{"glyphs":{"0":{"ha":694,"x_min":0,"x_max":0,"o":"m 346 -14 b 619 293 517 -14 619 86 l 619 688 b 347 997 619 889 517 997 b 74 688 175 997 74 888 l 74 293 b 346 -14 74 86 174 -14 z m 347 79 b 176 299 229 79 176 156 l 176 685 b 346 908 176 825 229 908 b 518 685 464 908 518 826 l 518 299 b 347 79 518 156 463 79 z "},"1":{"ha":471,"x_min":0,"x_max":0,"o":"m 435 0 l 435 96 l 286 96 l 286 988 l 208 988 b 75 846 192 889 161 851 l 75 769 l 190 769 l 190 96 l 43 96 l 43 0 z "},"2":{"ha":644,"x_min":0,"x_max":0,"o":"m 586 0 l 586 96 l 174 96 b 376 401 174 235 275 318 b 582 722 478 486 582 571 l 582 757 b 332 997 582 908 496 997 b 72 758 169 997 72 914 l 72 621 l 174 621 l 174 756 b 329 908 174 854 228 908 b 479 754 438 908 479 854 l 479 719 b 292 458 479 607 389 538 b 64 83 182 368 64 267 l 64 0 z "},"3":{"ha":653,"x_min":0,"x_max":0,"o":"m 322 -12 b 590 239 513 -12 590 90 l 590 300 b 446 510 590 413 547 483 b 576 714 543 538 576 615 l 576 768 b 324 997 576 910 497 997 b 65 765 158 997 65 906 l 65 661 l 165 661 l 165 761 b 324 908 165 850 215 908 b 475 761 431 908 475 854 l 475 706 b 326 550 475 614 429 550 l 249 550 l 249 465 l 326 465 b 486 308 435 465 486 411 l 486 246 b 322 79 486 138 436 79 b 158 232 211 79 158 128 l 158 350 l 57 350 l 57 226 b 322 -12 57 65 142 -12 z "},"4":{"ha":649,"x_min":0,"x_max":0,"o":"m 378 775 l 415 886 l 397 763 l 397 322 l 139 322 z m 615 235 l 615 322 l 490 322 l 490 988 l 401 988 l 35 310 l 35 235 l 397 235 l 397 0 l 490 0 l 490 235 z "},"5":{"ha":658,"x_min":0,"x_max":0,"o":"m 329 -14 b 592 250 499 -14 592 78 l 592 443 b 374 686 592 596 519 689 b 176 569 267 689 213 633 b 210 893 185 650 200 808 l 460 893 b 568 983 550 893 568 903 l 568 988 l 125 988 l 75 488 l 169 460 b 182 488 171 461 182 488 b 343 596 211 547 258 596 b 490 438 438 596 490 543 l 490 258 b 331 78 490 143 440 78 b 174 244 218 78 174 133 l 174 333 l 69 333 l 69 236 b 329 -14 69 65 161 -14 z "},"6":{"ha":678,"x_min":0,"x_max":0,"o":"m 618 286 l 618 340 b 382 603 618 511 529 603 b 172 469 274 603 204 546 l 172 688 b 350 908 172 829 225 908 b 506 736 454 908 506 850 l 506 710 l 607 710 l 607 742 b 353 997 607 910 514 997 b 74 692 164 997 74 890 l 74 289 b 342 -14 74 82 169 -14 b 618 286 513 -14 618 79 z m 343 79 b 172 294 225 79 172 151 l 172 344 b 349 514 175 443 246 514 b 517 336 468 514 517 436 l 517 292 b 343 79 517 149 458 79 z "},"7":{"ha":574,"x_min":0,"x_max":0,"o":"m 247 0 b 538 904 297 353 403 640 l 538 988 l 36 988 l 36 890 l 433 890 b 138 0 306 646 200 365 z "},"8":{"ha":661,"x_min":0,"x_max":0,"o":"m 331 -14 b 603 222 506 -14 603 82 l 603 315 b 471 517 603 415 551 489 b 589 703 544 546 589 614 l 589 767 b 332 997 589 906 496 997 b 78 767 168 997 78 904 l 78 703 b 190 517 78 611 117 544 b 60 315 110 486 60 410 l 60 222 b 331 -14 60 81 153 -14 z m 344 558 l 317 558 b 175 706 219 558 175 632 l 175 756 b 333 908 175 851 231 908 b 490 757 436 908 490 853 l 490 707 b 344 558 490 631 442 558 z m 331 79 b 161 231 221 79 161 144 l 161 315 b 315 472 161 394 215 472 l 343 472 b 501 315 449 472 501 400 l 501 231 b 331 79 501 142 440 79 z "},"9":{"ha":676,"x_min":0,"x_max":0,"o":"m 331 476 b 164 657 215 476 164 549 l 164 703 b 333 907 164 838 219 907 b 504 689 456 907 504 831 l 504 656 b 331 476 501 554 435 476 z m 326 -14 b 601 292 513 -14 601 92 l 601 694 b 333 997 601 901 507 997 b 61 707 161 997 61 903 l 61 651 b 297 390 61 483 143 390 b 504 526 408 390 474 449 l 504 294 b 333 78 504 154 458 78 b 172 246 224 78 172 133 l 172 307 l 69 307 l 69 240 b 326 -14 69 71 163 -14 z "}," ":{"ha":306,"x_min":0,"x_max":0,"o":""}," ":{"ha":306,"x_min":0,"x_max":0,"o":""},"A":{"ha":649,"x_min":0,"x_max":0,"o":"m 306 763 l 322 901 l 338 764 l 446 306 l 203 306 z m 518 0 l 618 0 l 371 988 l 271 988 l 32 0 l 133 0 l 182 214 l 468 214 z "},"B":{"ha":668,"x_min":0,"x_max":0,"o":"m 365 0 b 608 233 550 0 608 88 l 608 321 b 469 508 608 421 567 483 b 596 704 558 536 596 600 l 596 774 b 344 988 596 907 532 988 l 96 988 l 96 0 z m 342 901 b 497 765 454 901 497 854 l 497 706 b 340 550 497 599 454 550 l 193 550 l 193 901 z m 343 464 b 507 315 461 464 507 414 l 507 239 b 353 89 507 133 471 89 l 193 89 l 193 464 z "},"C":{"ha":681,"x_min":0,"x_max":0,"o":"m 346 -14 b 618 292 521 -14 618 82 l 618 386 l 513 386 l 513 297 b 347 79 513 150 464 79 b 178 297 228 79 178 150 l 178 686 b 346 910 178 831 226 910 b 513 686 471 910 513 840 l 513 626 l 617 626 l 617 689 b 347 999 617 899 535 999 b 76 689 172 999 76 892 l 76 292 b 346 -14 76 81 171 -14 z "},"D":{"ha":693,"x_min":0,"x_max":0,"o":"m 96 0 l 318 0 b 618 306 496 0 618 93 l 618 682 b 317 988 618 896 493 988 l 96 988 z m 313 901 b 515 676 436 901 515 833 l 515 314 b 315 89 515 158 438 89 l 194 89 l 194 901 z "},"E":{"ha":594,"x_min":0,"x_max":0,"o":"m 547 93 l 193 93 l 193 461 l 489 461 l 489 553 l 193 553 l 193 897 l 535 897 l 535 988 l 96 988 l 96 0 l 547 0 z "},"F":{"ha":558,"x_min":0,"x_max":0,"o":"m 493 432 l 493 524 l 192 524 l 192 896 l 514 896 l 514 988 l 96 988 l 96 0 l 192 0 l 192 432 z "},"G":{"ha":703,"x_min":0,"x_max":0,"o":"m 554 0 l 618 0 l 618 504 l 343 504 l 343 415 l 519 415 l 519 292 b 351 79 519 167 464 79 b 176 299 233 79 176 146 l 176 681 b 357 910 176 833 233 910 b 515 743 468 910 515 847 l 515 653 l 618 653 l 618 744 b 360 999 618 908 524 999 b 76 686 178 999 76 894 l 76 293 b 326 -14 76 85 163 -14 b 539 164 442 -14 513 46 z "},"H":{"ha":704,"x_min":0,"x_max":0,"o":"m 511 0 l 610 0 l 610 988 l 511 988 l 511 540 l 194 540 l 194 988 l 96 988 l 96 0 l 194 0 l 194 446 l 511 446 z "},"I":{"ha":458,"x_min":0,"x_max":0,"o":"m 411 0 l 411 93 l 276 93 l 276 897 l 411 897 l 411 988 l 47 988 l 47 897 l 181 897 l 181 93 l 47 93 l 47 0 z "},"J":{"ha":593,"x_min":0,"x_max":0,"o":"m 278 -14 b 507 244 431 -14 507 68 l 507 988 l 406 988 l 406 249 b 278 81 406 131 371 81 b 154 224 189 81 154 138 l 154 350 l 53 350 l 53 218 b 278 -14 53 67 131 -14 z "},"K":{"ha":675,"x_min":0,"x_max":0,"o":"m 335 517 l 536 0 l 644 0 l 392 628 l 624 988 l 511 988 l 194 493 l 189 481 l 192 518 l 192 988 l 96 988 l 96 0 l 192 0 l 192 367 l 321 563 z "},"L":{"ha":551,"x_min":0,"x_max":0,"o":"m 511 0 l 511 94 l 194 94 l 194 988 l 96 988 l 96 0 z "},"M":{"ha":814,"x_min":0,"x_max":0,"o":"m 189 665 l 164 871 l 200 757 l 390 342 l 424 342 l 607 751 l 647 874 l 625 665 l 625 0 l 718 0 l 718 988 l 626 988 l 408 486 l 188 988 l 96 988 l 96 0 l 189 0 z "},"N":{"ha":732,"x_min":0,"x_max":0,"o":"m 186 688 l 171 874 l 226 700 l 551 0 l 636 0 l 636 988 l 544 988 l 544 306 l 560 142 l 504 293 l 182 988 l 96 988 l 96 0 l 186 0 z "},"O":{"ha":701,"x_min":0,"x_max":0,"o":"m 350 -14 b 626 293 526 -14 626 83 l 626 686 b 351 997 626 890 526 997 b 76 686 176 997 76 889 l 76 293 b 350 -14 76 82 175 -14 z m 351 79 b 178 299 232 79 178 151 l 178 683 b 350 908 178 828 231 908 b 524 683 471 908 524 829 l 524 299 b 351 79 524 151 468 79 z "},"P":{"ha":649,"x_min":0,"x_max":0,"o":"m 331 408 l 192 408 l 192 899 l 328 899 b 496 735 443 899 496 846 l 496 578 b 331 408 496 469 440 407 z m 333 319 b 593 576 513 319 593 419 l 593 736 b 329 988 593 906 511 988 l 96 988 l 96 0 l 192 0 l 192 319 z "},"Q":{"ha":701,"x_min":0,"x_max":0,"o":"m 615 -133 l 513 26 b 626 293 586 72 626 160 l 626 686 b 351 997 626 890 526 997 b 76 686 176 997 76 889 l 76 293 b 350 -14 76 82 175 -14 b 421 -8 375 -14 399 -12 l 490 -133 z m 351 79 b 178 299 232 79 178 151 l 178 683 b 350 908 178 828 231 908 b 524 683 471 908 524 829 l 524 299 b 351 79 524 151 468 79 z "},"R":{"ha":669,"x_min":0,"x_max":0,"o":"m 340 900 b 499 750 454 900 499 849 l 499 663 b 339 503 499 558 447 503 l 193 503 l 193 900 z m 338 415 b 486 272 450 415 486 374 l 486 61 b 501 0 486 36 490 11 l 611 0 b 588 60 596 14 588 33 l 588 275 b 471 463 588 386 554 440 b 599 658 554 492 599 554 l 599 757 b 344 988 599 906 525 988 l 96 988 l 96 0 l 193 0 l 193 415 z "},"S":{"ha":632,"x_min":0,"x_max":0,"o":"m 325 -12 b 579 229 490 -12 579 90 l 579 279 b 360 540 579 438 467 492 b 168 732 263 585 168 624 l 168 761 b 315 913 168 849 217 913 b 464 765 414 913 464 861 l 464 672 l 563 672 l 563 771 b 315 997 563 908 483 997 b 69 763 151 997 69 897 l 69 728 b 286 472 69 572 181 519 b 481 272 386 428 481 388 l 481 229 b 325 78 481 143 433 78 b 157 242 208 78 157 139 l 157 354 l 54 354 l 54 240 b 325 -12 54 76 132 -12 z "},"T":{"ha":547,"x_min":0,"x_max":0,"o":"m 514 896 l 514 988 l 33 988 l 33 896 l 222 896 l 222 0 l 321 0 l 321 896 z "},"U":{"ha":683,"x_min":0,"x_max":0,"o":"m 342 -14 b 596 282 510 -14 596 79 l 596 988 l 494 988 l 494 286 b 342 82 494 143 449 82 b 189 286 235 82 189 144 l 189 988 l 88 988 l 88 282 b 342 -14 88 79 168 -14 z "},"V":{"ha":646,"x_min":0,"x_max":0,"o":"m 372 0 l 617 988 l 514 988 l 340 238 l 324 97 l 306 238 l 133 988 l 32 988 l 274 0 z "},"W":{"ha":947,"x_min":0,"x_max":0,"o":"m 460 751 l 469 868 l 479 753 l 639 0 l 729 0 l 907 988 l 813 988 l 689 265 l 678 97 l 664 253 l 504 988 l 436 988 l 267 253 l 250 111 l 246 265 l 139 988 l 43 988 l 197 0 l 286 0 z "},"X":{"ha":624,"x_min":0,"x_max":0,"o":"m 303 406 l 313 444 l 324 406 l 494 0 l 604 0 l 367 522 l 578 988 l 471 988 l 321 631 l 313 596 l 304 632 l 158 988 l 51 988 l 257 524 l 19 0 l 131 0 z "},"Y":{"ha":600,"x_min":0,"x_max":0,"o":"m 346 0 l 346 357 l 579 988 l 474 988 l 311 515 l 297 440 l 283 515 l 126 988 l 21 988 l 244 356 l 244 0 z "},"Z":{"ha":590,"x_min":0,"x_max":0,"o":"m 539 0 l 539 96 l 163 96 l 533 899 l 533 988 l 78 988 l 78 894 l 428 894 l 49 86 l 49 0 z "},"Á":{"ha":649,"x_min":0,"x_max":0,"o":"m 306 763 l 322 901 l 338 764 l 446 306 l 203 306 z m 518 0 l 618 0 l 371 988 l 271 988 l 32 0 l 133 0 l 182 214 l 468 214 z m 279 1075 l 357 1075 l 525 1293 l 418 1293 z "},"Ă":{"ha":649,"x_min":0,"x_max":0,"o":"m 306 763 l 322 901 l 338 764 l 446 306 l 203 306 z m 518 0 l 618 0 l 371 988 l 271 988 l 32 0 l 133 0 l 182 214 l 468 214 z m 322 1072 b 510 1275 450 1072 508 1149 l 435 1275 b 324 1143 432 1189 399 1144 b 213 1275 244 1144 215 1189 l 138 1275 b 322 1072 140 1149 185 1072 z "},"Â":{"ha":649,"x_min":0,"x_max":0,"o":"m 306 763 l 322 901 l 338 764 l 446 306 l 203 306 z m 518 0 l 618 0 l 371 988 l 271 988 l 32 0 l 133 0 l 182 214 l 468 214 z m 404 1071 l 492 1071 l 354 1274 l 282 1274 l 144 1071 l 232 1071 l 318 1203 z "},"Ä":{"ha":649,"x_min":0,"x_max":0,"o":"m 306 763 l 322 901 l 338 764 l 446 306 l 203 306 z m 518 0 l 618 0 l 371 988 l 271 988 l 32 0 l 133 0 l 182 214 l 468 214 z m 413 1069 b 472 1139 451 1069 472 1089 b 413 1207 472 1188 453 1207 b 350 1139 371 1207 350 1188 b 413 1069 350 1086 368 1069 z m 222 1069 b 285 1139 265 1069 285 1089 b 224 1207 285 1188 265 1207 b 163 1139 182 1207 163 1188 b 222 1069 163 1086 181 1069 z "},"À":{"ha":649,"x_min":0,"x_max":0,"o":"m 306 763 l 322 901 l 338 764 l 446 306 l 203 306 z m 518 0 l 618 0 l 371 988 l 271 988 l 32 0 l 133 0 l 182 214 l 468 214 z m 282 1076 l 360 1076 l 235 1279 l 129 1279 z "},"Ā":{"ha":649,"x_min":0,"x_max":0,"o":"m 306 763 l 322 901 l 338 764 l 446 306 l 203 306 z m 518 0 l 618 0 l 371 988 l 271 988 l 32 0 l 133 0 l 182 214 l 468 214 z m 165 1090 l 471 1090 l 471 1168 l 165 1168 z "},"Ʌ":{"ha":649,"x_min":0,"x_max":0,"o":"m 313 790 l 322 888 l 331 790 l 518 0 l 618 0 l 371 988 l 271 988 l 32 0 l 133 0 z "},"Ą":{"ha":649,"x_min":0,"x_max":0,"o":"m 306 763 l 322 901 l 338 764 l 446 306 l 203 306 z m 731 -136 l 640 -136 b 561 -194 629 -172 601 -194 b 492 -136 518 -194 492 -172 b 615 0 492 -94 521 -64 l 618 0 l 371 988 l 271 988 l 32 0 l 133 0 l 182 214 l 468 214 l 515 11 b 411 -143 438 -42 411 -92 b 557 -261 411 -219 464 -261 b 731 -136 646 -261 703 -221 z "},"Å":{"ha":649,"x_min":0,"x_max":0,"o":"m 306 763 l 322 901 l 338 764 l 446 306 l 203 306 z m 518 0 l 618 0 l 371 988 l 271 988 l 32 0 l 133 0 l 182 214 l 468 214 z m 317 1060 b 454 1193 399 1060 454 1110 b 317 1326 454 1278 399 1326 b 181 1193 238 1326 181 1275 b 317 1060 181 1108 236 1060 z m 317 1129 b 254 1193 276 1129 254 1154 b 317 1260 254 1233 279 1260 b 382 1193 356 1260 382 1233 b 317 1129 382 1151 351 1129 z "},"Ǻ":{"ha":649,"x_min":0,"x_max":0,"o":"m 283 1247 l 361 1247 l 529 1465 l 422 1465 z m 318 988 b 256 1051 278 988 256 1013 b 318 1118 256 1092 281 1118 b 383 1051 357 1118 383 1092 b 318 988 383 1010 353 988 z m 306 763 l 322 901 l 338 764 l 446 306 l 203 306 z m 182 214 l 468 214 l 518 0 l 618 0 l 385 932 b 456 1051 429 951 456 993 b 318 1185 456 1136 400 1185 b 182 1051 239 1185 182 1133 b 257 929 182 990 211 949 l 32 0 l 133 0 z "},"Ã":{"ha":649,"x_min":0,"x_max":0,"o":"m 306 763 l 322 901 l 338 764 l 446 306 l 203 306 z m 518 0 l 618 0 l 371 988 l 271 988 l 32 0 l 133 0 l 182 214 l 468 214 z m 115 1075 l 186 1075 b 228 1150 186 1129 199 1150 b 403 1071 281 1150 319 1071 b 517 1222 486 1071 517 1128 l 447 1222 b 401 1146 447 1163 433 1146 b 228 1225 353 1146 311 1225 b 115 1075 147 1225 117 1171 z "},"Æ":{"ha":932,"x_min":0,"x_max":0,"o":"m 374 761 l 399 892 l 400 761 l 454 303 l 221 303 z m 490 0 l 885 0 l 885 93 l 571 93 l 528 453 l 825 453 l 825 544 l 517 544 l 475 897 l 871 897 l 871 988 l 358 988 l 17 0 l 121 0 l 193 217 l 464 217 z "},"Ǽ":{"ha":932,"x_min":0,"x_max":0,"o":"m 374 761 l 399 892 l 400 761 l 454 303 l 221 303 z m 490 0 l 885 0 l 885 93 l 571 93 l 528 453 l 825 453 l 825 544 l 517 544 l 475 897 l 871 897 l 871 988 l 358 988 l 17 0 l 121 0 l 193 217 l 464 217 z m 382 1075 l 460 1075 l 628 1293 l 521 1293 z "},"Ć":{"ha":681,"x_min":0,"x_max":0,"o":"m 346 -14 b 618 292 521 -14 618 82 l 618 386 l 513 386 l 513 297 b 347 79 513 150 464 79 b 178 297 228 79 178 150 l 178 686 b 346 910 178 831 226 910 b 513 686 471 910 513 840 l 513 626 l 617 626 l 617 689 b 347 999 617 899 535 999 b 76 689 172 999 76 892 l 76 292 b 346 -14 76 81 171 -14 z m 315 1089 l 393 1089 l 561 1307 l 454 1307 z "},"Č":{"ha":681,"x_min":0,"x_max":0,"o":"m 346 -14 b 618 292 521 -14 618 82 l 618 386 l 513 386 l 513 297 b 347 79 513 150 464 79 b 178 297 228 79 178 150 l 178 686 b 346 910 178 831 226 910 b 513 686 471 910 513 840 l 513 626 l 617 626 l 617 689 b 347 999 617 899 535 999 b 76 689 172 999 76 892 l 76 292 b 346 -14 76 81 171 -14 z m 388 1089 l 526 1289 l 440 1289 l 354 1163 l 269 1289 l 181 1289 l 318 1089 z "},"Ç":{"ha":681,"x_min":0,"x_max":0,"o":"m 361 -317 b 524 -189 461 -317 524 -271 b 389 -81 524 -122 476 -82 l 389 -11 b 618 292 536 3 618 100 l 618 386 l 513 386 l 513 297 b 347 79 513 150 464 79 b 178 297 228 79 178 150 l 178 686 b 346 910 178 831 226 910 b 513 686 471 910 513 840 l 513 626 l 617 626 l 617 689 b 347 999 617 899 535 999 b 76 689 172 999 76 892 l 76 292 b 314 -12 76 94 160 -1 l 314 -139 l 358 -139 b 443 -192 419 -139 443 -157 b 361 -251 443 -232 414 -251 b 274 -185 310 -251 279 -229 l 186 -185 b 361 -317 199 -269 246 -317 z "},"Ĉ":{"ha":681,"x_min":0,"x_max":0,"o":"m 346 -14 b 618 292 521 -14 618 82 l 618 386 l 513 386 l 513 297 b 347 79 513 150 464 79 b 178 297 228 79 178 150 l 178 686 b 346 910 178 831 226 910 b 513 686 471 910 513 840 l 513 626 l 617 626 l 617 689 b 347 999 617 899 535 999 b 76 689 172 999 76 892 l 76 292 b 346 -14 76 81 171 -14 z m 440 1089 l 528 1089 l 390 1292 l 318 1292 l 181 1089 l 268 1089 l 354 1221 z "},"Ċ":{"ha":681,"x_min":0,"x_max":0,"o":"m 346 -14 b 618 292 521 -14 618 82 l 618 386 l 513 386 l 513 297 b 347 79 513 150 464 79 b 178 297 228 79 178 150 l 178 686 b 346 910 178 831 226 910 b 513 686 471 910 513 840 l 513 626 l 617 626 l 617 689 b 347 999 617 899 535 999 b 76 689 172 999 76 892 l 76 292 b 346 -14 76 81 171 -14 z m 354 1088 b 422 1164 399 1088 422 1110 b 356 1242 422 1219 399 1242 b 285 1164 308 1242 285 1219 b 354 1088 285 1107 306 1088 z "},"Ď":{"ha":693,"x_min":0,"x_max":0,"o":"m 96 0 l 318 0 b 618 306 496 0 618 93 l 618 682 b 317 988 618 896 493 988 l 96 988 z m 313 901 b 515 676 436 901 515 833 l 515 314 b 315 89 515 158 438 89 l 194 89 l 194 901 z m 375 1075 l 514 1275 l 428 1275 l 342 1149 l 257 1275 l 168 1275 l 306 1075 z "},"Đ":{"ha":700,"x_min":0,"x_max":0,"o":"m 329 0 b 626 306 507 0 626 93 l 626 682 b 328 988 626 896 504 988 l 107 988 l 107 536 l 13 536 l 13 446 l 107 446 l 107 0 z m 340 446 l 340 536 l 204 536 l 204 901 l 324 901 b 526 676 447 901 526 833 l 526 314 b 326 89 526 158 449 89 l 204 89 l 204 446 z "},"Ð":{"ha":700,"x_min":0,"x_max":0,"o":"m 329 0 b 626 306 507 0 626 93 l 626 682 b 328 988 626 896 504 988 l 107 988 l 107 536 l 13 536 l 13 446 l 107 446 l 107 0 z m 340 446 l 340 536 l 204 536 l 204 901 l 324 901 b 526 676 447 901 526 833 l 526 314 b 326 89 526 158 449 89 l 204 89 l 204 446 z "},"É":{"ha":594,"x_min":0,"x_max":0,"o":"m 547 93 l 193 93 l 193 461 l 489 461 l 489 553 l 193 553 l 193 897 l 535 897 l 535 988 l 96 988 l 96 0 l 547 0 z m 275 1075 l 353 1075 l 521 1293 l 414 1293 z "},"Ĕ":{"ha":594,"x_min":0,"x_max":0,"o":"m 547 93 l 193 93 l 193 461 l 489 461 l 489 553 l 193 553 l 193 897 l 535 897 l 535 988 l 96 988 l 96 0 l 547 0 z m 319 1072 b 507 1275 447 1072 506 1149 l 432 1275 b 321 1143 429 1189 396 1144 b 210 1275 242 1144 213 1189 l 135 1275 b 319 1072 138 1149 182 1072 z "},"Ě":{"ha":594,"x_min":0,"x_max":0,"o":"m 547 93 l 193 93 l 193 461 l 489 461 l 489 553 l 193 553 l 193 897 l 535 897 l 535 988 l 96 988 l 96 0 l 547 0 z m 349 1075 l 488 1275 l 401 1275 l 315 1149 l 231 1275 l 142 1275 l 279 1075 z "},"Ê":{"ha":594,"x_min":0,"x_max":0,"o":"m 547 93 l 193 93 l 193 461 l 489 461 l 489 553 l 193 553 l 193 897 l 535 897 l 535 988 l 96 988 l 96 0 l 547 0 z m 404 1075 l 492 1075 l 354 1278 l 282 1278 l 144 1075 l 232 1075 l 318 1207 z "},"Ë":{"ha":594,"x_min":0,"x_max":0,"o":"m 547 93 l 193 93 l 193 461 l 489 461 l 489 553 l 193 553 l 193 897 l 535 897 l 535 988 l 96 988 l 96 0 l 547 0 z m 415 1075 b 475 1144 454 1075 475 1094 b 415 1213 475 1193 456 1213 b 353 1144 374 1213 353 1193 b 415 1075 353 1092 371 1075 z m 225 1075 b 288 1144 268 1075 288 1094 b 226 1213 288 1193 268 1213 b 165 1144 185 1213 165 1193 b 225 1075 165 1092 183 1075 z "},"Ė":{"ha":594,"x_min":0,"x_max":0,"o":"m 547 93 l 193 93 l 193 461 l 489 461 l 489 553 l 193 553 l 193 897 l 535 897 l 535 988 l 96 988 l 96 0 l 547 0 z m 317 1074 b 385 1150 361 1074 385 1096 b 318 1228 385 1206 361 1228 b 247 1150 271 1228 247 1206 b 317 1074 247 1093 268 1074 z "},"È":{"ha":594,"x_min":0,"x_max":0,"o":"m 547 93 l 193 93 l 193 461 l 489 461 l 489 553 l 193 553 l 193 897 l 535 897 l 535 988 l 96 988 l 96 0 l 547 0 z m 288 1076 l 365 1076 l 240 1279 l 135 1279 z "},"Ē":{"ha":594,"x_min":0,"x_max":0,"o":"m 547 93 l 193 93 l 193 461 l 489 461 l 489 553 l 193 553 l 193 897 l 535 897 l 535 988 l 96 988 l 96 0 l 547 0 z m 169 1101 l 475 1101 l 475 1179 l 169 1179 z "},"Ę":{"ha":594,"x_min":0,"x_max":0,"o":"m 663 -136 l 572 -136 b 493 -194 561 -172 533 -194 b 424 -136 450 -194 424 -172 b 547 0 424 -94 453 -64 l 547 93 l 193 93 l 193 461 l 489 461 l 489 553 l 193 553 l 193 897 l 535 897 l 535 988 l 96 988 l 96 0 l 432 0 b 343 -143 365 -49 343 -94 b 489 -261 343 -219 396 -261 b 663 -136 578 -261 635 -221 z "},"Ğ":{"ha":703,"x_min":0,"x_max":0,"o":"m 554 0 l 618 0 l 618 504 l 343 504 l 343 415 l 519 415 l 519 292 b 351 79 519 167 464 79 b 176 299 233 79 176 146 l 176 681 b 357 910 176 833 233 910 b 515 743 468 910 515 847 l 515 653 l 618 653 l 618 744 b 360 999 618 908 524 999 b 76 686 178 999 76 894 l 76 293 b 326 -14 76 85 163 -14 b 539 164 442 -14 513 46 z m 357 1086 b 544 1289 485 1086 543 1163 l 469 1289 b 358 1157 467 1203 433 1158 b 247 1289 279 1158 250 1203 l 172 1289 b 357 1086 175 1163 219 1086 z "},"Ĝ":{"ha":703,"x_min":0,"x_max":0,"o":"m 554 0 l 618 0 l 618 504 l 343 504 l 343 415 l 519 415 l 519 292 b 351 79 519 167 464 79 b 176 299 233 79 176 146 l 176 681 b 357 910 176 833 233 910 b 515 743 468 910 515 847 l 515 653 l 618 653 l 618 744 b 360 999 618 908 524 999 b 76 686 178 999 76 894 l 76 293 b 326 -14 76 85 163 -14 b 539 164 442 -14 513 46 z m 444 1089 l 532 1089 l 394 1292 l 322 1292 l 185 1089 l 272 1089 l 358 1221 z "},"Ģ":{"ha":703,"x_min":0,"x_max":0,"o":"m 554 0 l 618 0 l 618 504 l 343 504 l 343 415 l 519 415 l 519 292 b 351 79 519 167 464 79 b 176 299 233 79 176 146 l 176 681 b 357 910 176 833 233 910 b 515 743 468 910 515 847 l 515 653 l 618 653 l 618 744 b 360 999 618 908 524 999 b 76 686 178 999 76 894 l 76 293 b 326 -14 76 85 163 -14 b 539 164 442 -14 513 46 z m 306 -353 b 425 -178 385 -333 425 -267 b 358 -83 425 -108 407 -83 b 294 -151 315 -83 294 -103 b 347 -214 294 -203 313 -214 b 363 -211 353 -214 358 -212 b 300 -300 357 -257 338 -287 z "},"Ġ":{"ha":703,"x_min":0,"x_max":0,"o":"m 554 0 l 618 0 l 618 504 l 343 504 l 343 415 l 519 415 l 519 292 b 351 79 519 167 464 79 b 176 299 233 79 176 146 l 176 681 b 357 910 176 833 233 910 b 515 743 468 910 515 847 l 515 653 l 618 653 l 618 744 b 360 999 618 908 524 999 b 76 686 178 999 76 894 l 76 293 b 326 -14 76 85 163 -14 b 539 164 442 -14 513 46 z m 358 1088 b 426 1164 403 1088 426 1110 b 360 1242 426 1219 403 1242 b 289 1164 313 1242 289 1219 b 358 1088 289 1107 310 1088 z "},"Ħ":{"ha":725,"x_min":0,"x_max":0,"o":"m 522 515 l 204 515 l 204 701 l 522 701 z m 522 0 l 619 0 l 619 701 l 713 701 l 713 788 l 619 788 l 619 988 l 522 988 l 522 788 l 204 788 l 204 988 l 106 988 l 106 788 l 14 788 l 14 701 l 106 701 l 106 0 l 204 0 l 204 426 l 522 426 z "},"Ĥ":{"ha":704,"x_min":0,"x_max":0,"o":"m 511 0 l 610 0 l 610 988 l 511 988 l 511 540 l 194 540 l 194 988 l 96 988 l 96 0 l 194 0 l 194 446 l 511 446 z m 438 1064 l 525 1064 l 388 1267 l 315 1267 l 178 1064 l 265 1064 l 351 1196 z "},"Í":{"ha":458,"x_min":0,"x_max":0,"o":"m 411 0 l 411 93 l 276 93 l 276 897 l 411 897 l 411 988 l 47 988 l 47 897 l 181 897 l 181 93 l 47 93 l 47 0 z m 186 1075 l 264 1075 l 432 1293 l 325 1293 z "},"Ĭ":{"ha":458,"x_min":0,"x_max":0,"o":"m 411 0 l 411 93 l 276 93 l 276 897 l 411 897 l 411 988 l 47 988 l 47 897 l 181 897 l 181 93 l 47 93 l 47 0 z m 228 1072 b 415 1275 356 1072 414 1149 l 340 1275 b 229 1143 338 1189 304 1144 b 118 1275 150 1144 121 1189 l 43 1275 b 228 1072 46 1149 90 1072 z "},"Î":{"ha":458,"x_min":0,"x_max":0,"o":"m 411 0 l 411 93 l 276 93 l 276 897 l 411 897 l 411 988 l 47 988 l 47 897 l 181 897 l 181 93 l 47 93 l 47 0 z m 315 1075 l 403 1075 l 265 1278 l 193 1278 l 56 1075 l 143 1075 l 229 1207 z "},"Ï":{"ha":458,"x_min":0,"x_max":0,"o":"m 411 0 l 411 93 l 276 93 l 276 897 l 411 897 l 411 988 l 47 988 l 47 897 l 181 897 l 181 93 l 47 93 l 47 0 z m 324 1075 b 383 1144 363 1075 383 1094 b 324 1213 383 1193 364 1213 b 261 1144 282 1213 261 1193 b 324 1075 261 1092 279 1075 z m 133 1075 b 196 1144 176 1075 196 1094 b 135 1213 196 1193 176 1213 b 74 1144 93 1213 74 1193 b 133 1075 74 1092 92 1075 z "},"İ":{"ha":458,"x_min":0,"x_max":0,"o":"m 411 0 l 411 93 l 276 93 l 276 897 l 411 897 l 411 988 l 47 988 l 47 897 l 181 897 l 181 93 l 47 93 l 47 0 z m 229 1074 b 297 1150 274 1074 297 1096 b 231 1228 297 1206 274 1228 b 160 1150 183 1228 160 1206 b 229 1074 160 1093 181 1074 z "},"Ì":{"ha":458,"x_min":0,"x_max":0,"o":"m 411 0 l 411 93 l 276 93 l 276 897 l 411 897 l 411 988 l 47 988 l 47 897 l 181 897 l 181 93 l 47 93 l 47 0 z m 190 1076 l 268 1076 l 143 1279 l 38 1279 z "},"Ī":{"ha":458,"x_min":0,"x_max":0,"o":"m 411 0 l 411 93 l 276 93 l 276 897 l 411 897 l 411 988 l 47 988 l 47 897 l 181 897 l 181 93 l 47 93 l 47 0 z m 79 1100 l 385 1100 l 385 1178 l 79 1178 z "},"Į":{"ha":458,"x_min":0,"x_max":0,"o":"m 526 -136 l 436 -136 b 357 -194 425 -172 397 -194 b 288 -136 314 -194 288 -172 b 411 0 288 -94 317 -64 l 411 93 l 276 93 l 276 897 l 411 897 l 411 988 l 47 988 l 47 897 l 181 897 l 181 93 l 47 93 l 47 0 l 296 0 b 207 -143 229 -49 207 -94 b 353 -261 207 -219 260 -261 b 526 -136 442 -261 499 -221 z "},"Ĩ":{"ha":458,"x_min":0,"x_max":0,"o":"m 411 0 l 411 93 l 276 93 l 276 897 l 411 897 l 411 988 l 47 988 l 47 897 l 181 897 l 181 93 l 47 93 l 47 0 z m 26 1079 l 97 1079 b 139 1154 97 1133 110 1154 b 314 1075 192 1154 231 1075 b 428 1226 397 1075 428 1132 l 358 1226 b 313 1150 358 1167 344 1150 b 139 1229 264 1150 222 1229 b 26 1079 58 1229 28 1175 z "},"Ĵ":{"ha":593,"x_min":0,"x_max":0,"o":"m 278 -14 b 507 244 431 -14 507 68 l 507 988 l 406 988 l 406 249 b 278 81 406 131 371 81 b 154 224 189 81 154 138 l 154 350 l 53 350 l 53 218 b 278 -14 53 67 131 -14 z m 543 1075 l 631 1075 l 493 1278 l 421 1278 l 283 1075 l 371 1075 l 457 1207 z "},"Ķ":{"ha":675,"x_min":0,"x_max":0,"o":"m 335 517 l 536 0 l 644 0 l 392 628 l 624 988 l 511 988 l 194 493 l 189 481 l 192 518 l 192 988 l 96 988 l 96 0 l 192 0 l 192 367 l 321 563 z m 301 -329 b 421 -154 381 -310 421 -243 b 354 -60 421 -85 403 -60 b 290 -128 311 -60 290 -79 b 343 -190 290 -179 308 -190 b 358 -187 349 -190 354 -189 b 296 -276 353 -233 333 -264 z "},"Ĺ":{"ha":551,"x_min":0,"x_max":0,"o":"m 511 0 l 511 94 l 194 94 l 194 988 l 96 988 l 96 0 z m 101 1075 l 179 1075 l 347 1293 l 240 1293 z "},"Ľ":{"ha":551,"x_min":0,"x_max":0,"o":"m 511 0 l 511 94 l 194 94 l 194 988 l 96 988 l 96 0 z m 350 882 l 415 882 l 482 1088 l 396 1088 z "},"Ļ":{"ha":551,"x_min":0,"x_max":0,"o":"m 511 0 l 511 94 l 194 94 l 194 988 l 96 988 l 96 0 z m 256 -339 b 375 -164 335 -319 375 -253 b 308 -69 375 -94 357 -69 b 244 -137 265 -69 244 -89 b 297 -200 244 -189 263 -200 b 313 -197 303 -200 308 -199 b 250 -286 307 -243 288 -274 z "},"Ŀ":{"ha":551,"x_min":0,"x_max":0,"o":"m 511 0 l 511 94 l 194 94 l 194 988 l 96 988 l 96 0 z m 449 351 b 517 428 493 351 517 374 b 450 506 517 483 493 506 b 379 428 403 506 379 483 b 449 351 379 371 400 351 z "},"Ł":{"ha":565,"x_min":0,"x_max":0,"o":"m 525 0 l 525 94 l 208 94 l 208 485 l 371 535 l 349 617 l 208 574 l 208 988 l 110 988 l 110 543 l 3 510 l 26 429 l 110 454 l 110 0 z "},"Ń":{"ha":732,"x_min":0,"x_max":0,"o":"m 186 688 l 171 874 l 226 700 l 551 0 l 636 0 l 636 988 l 544 988 l 544 306 l 560 142 l 504 293 l 182 988 l 96 988 l 96 0 l 186 0 z m 326 1058 l 404 1058 l 572 1276 l 465 1276 z "},"Ň":{"ha":732,"x_min":0,"x_max":0,"o":"m 186 688 l 171 874 l 226 700 l 551 0 l 636 0 l 636 988 l 544 988 l 544 306 l 560 142 l 504 293 l 182 988 l 96 988 l 96 0 l 186 0 z m 399 1060 l 538 1260 l 451 1260 l 365 1133 l 281 1260 l 192 1260 l 329 1060 z "},"Ņ":{"ha":732,"x_min":0,"x_max":0,"o":"m 186 688 l 171 874 l 226 700 l 551 0 l 636 0 l 636 988 l 544 988 l 544 306 l 560 142 l 504 293 l 182 988 l 96 988 l 96 0 l 186 0 z m 303 -328 b 422 -153 382 -308 422 -242 b 356 -58 422 -83 404 -58 b 292 -126 313 -58 292 -78 b 344 -189 292 -178 310 -189 b 360 -186 350 -189 356 -187 b 297 -275 354 -232 335 -262 z "},"Ñ":{"ha":732,"x_min":0,"x_max":0,"o":"m 186 688 l 171 874 l 226 700 l 551 0 l 636 0 l 636 988 l 544 988 l 544 306 l 560 142 l 504 293 l 182 988 l 96 988 l 96 0 l 186 0 z m 186 1082 l 257 1082 b 299 1157 257 1136 269 1157 b 474 1078 351 1157 390 1078 b 588 1229 557 1078 588 1135 l 518 1229 b 472 1153 518 1169 504 1153 b 299 1232 424 1153 382 1232 b 186 1082 218 1232 188 1178 z "},"Ŋ":{"ha":731,"x_min":0,"x_max":0,"o":"m 453 -242 b 636 -46 599 -242 636 -199 l 636 988 l 544 988 l 544 304 l 560 143 l 511 278 l 182 988 l 96 988 l 96 0 l 186 0 l 186 690 l 171 874 l 219 721 l 544 15 l 544 -35 b 443 -150 544 -132 524 -150 l 408 -150 l 408 -242 z "},"Ó":{"ha":701,"x_min":0,"x_max":0,"o":"m 350 -14 b 626 293 526 -14 626 83 l 626 686 b 351 997 626 890 526 997 b 76 686 176 997 76 889 l 76 293 b 350 -14 76 82 175 -14 z m 351 79 b 178 299 232 79 178 151 l 178 683 b 350 908 178 828 231 908 b 524 683 471 908 524 829 l 524 299 b 351 79 524 151 468 79 z m 322 1088 l 400 1088 l 568 1306 l 461 1306 z "},"Ŏ":{"ha":701,"x_min":0,"x_max":0,"o":"m 350 -14 b 626 293 526 -14 626 83 l 626 686 b 351 997 626 890 526 997 b 76 686 176 997 76 889 l 76 293 b 350 -14 76 82 175 -14 z m 351 79 b 178 299 232 79 178 151 l 178 683 b 350 908 178 828 231 908 b 524 683 471 908 524 829 l 524 299 b 351 79 524 151 468 79 z m 350 1086 b 538 1289 478 1086 536 1163 l 463 1289 b 351 1157 460 1203 426 1158 b 240 1289 272 1158 243 1203 l 165 1289 b 350 1086 168 1163 213 1086 z "},"Ô":{"ha":701,"x_min":0,"x_max":0,"o":"m 350 -14 b 626 293 526 -14 626 83 l 626 686 b 351 997 626 890 526 997 b 76 686 176 997 76 889 l 76 293 b 350 -14 76 82 175 -14 z m 351 79 b 178 299 232 79 178 151 l 178 683 b 350 908 178 828 231 908 b 524 683 471 908 524 829 l 524 299 b 351 79 524 151 468 79 z m 439 1089 l 526 1089 l 389 1292 l 317 1292 l 179 1089 l 267 1089 l 353 1221 z "},"Ö":{"ha":701,"x_min":0,"x_max":0,"o":"m 350 -14 b 626 293 526 -14 626 83 l 626 686 b 351 997 626 890 526 997 b 76 686 176 997 76 889 l 76 293 b 350 -14 76 82 175 -14 z m 351 79 b 178 299 232 79 178 151 l 178 683 b 350 908 178 828 231 908 b 524 683 471 908 524 829 l 524 299 b 351 79 524 151 468 79 z m 447 1089 b 507 1158 486 1089 507 1108 b 447 1226 507 1207 488 1226 b 385 1158 406 1226 385 1207 b 447 1089 385 1106 403 1089 z m 257 1089 b 319 1158 300 1089 319 1108 b 258 1226 319 1207 300 1226 b 197 1158 217 1226 197 1207 b 257 1089 197 1106 215 1089 z "},"Ò":{"ha":701,"x_min":0,"x_max":0,"o":"m 350 -14 b 626 293 526 -14 626 83 l 626 686 b 351 997 626 890 526 997 b 76 686 176 997 76 889 l 76 293 b 350 -14 76 82 175 -14 z m 351 79 b 178 299 232 79 178 151 l 178 683 b 350 908 178 828 231 908 b 524 683 471 908 524 829 l 524 299 b 351 79 524 151 468 79 z m 317 1089 l 394 1089 l 269 1292 l 164 1292 z "},"Ő":{"ha":701,"x_min":0,"x_max":0,"o":"m 350 -14 b 626 293 526 -14 626 83 l 626 686 b 351 997 626 890 526 997 b 76 686 176 997 76 889 l 76 293 b 350 -14 76 82 175 -14 z m 351 79 b 178 299 232 79 178 151 l 178 683 b 350 908 178 828 231 908 b 524 683 471 908 524 829 l 524 299 b 351 79 524 151 468 79 z m 456 1293 l 353 1293 l 232 1089 l 304 1089 z m 629 1293 l 525 1293 l 397 1089 l 469 1089 z "},"Ō":{"ha":701,"x_min":0,"x_max":0,"o":"m 350 -14 b 626 293 526 -14 626 83 l 626 686 b 351 997 626 890 526 997 b 76 686 176 997 76 889 l 76 293 b 350 -14 76 82 175 -14 z m 351 79 b 178 299 232 79 178 151 l 178 683 b 350 908 178 828 231 908 b 524 683 471 908 524 829 l 524 299 b 351 79 524 151 468 79 z m 200 1104 l 506 1104 l 506 1182 l 200 1182 z "},"Ø":{"ha":710,"x_min":0,"x_max":0,"o":"m 176 299 l 176 683 b 356 913 176 828 233 913 b 428 900 382 913 407 908 l 224 129 b 176 299 192 167 176 222 z m 356 76 b 289 86 331 76 308 79 l 490 853 b 535 683 519 814 535 757 l 535 299 b 356 76 535 151 474 76 z m 356 -15 b 635 293 532 -15 635 83 l 635 688 b 518 957 635 817 594 908 l 560 1103 l 485 1103 l 451 988 b 356 1000 422 996 390 1000 b 76 688 178 1000 76 890 l 76 293 b 194 24 76 158 118 69 l 151 -125 l 231 -125 l 264 -6 b 356 -15 292 -12 322 -15 z "},"Ǿ":{"ha":710,"x_min":0,"x_max":0,"o":"m 176 299 l 176 683 b 356 913 176 828 233 913 b 428 900 382 913 407 908 l 224 129 b 176 299 192 167 176 222 z m 356 76 b 289 86 331 76 308 79 l 490 853 b 535 683 519 814 535 757 l 535 299 b 356 76 535 151 474 76 z m 356 -15 b 635 293 532 -15 635 83 l 635 688 b 518 957 635 817 594 908 l 560 1103 l 485 1103 l 451 988 b 356 1000 422 996 390 1000 b 76 688 178 1000 76 890 l 76 293 b 194 24 76 158 118 69 l 151 -125 l 231 -125 l 264 -6 b 356 -15 292 -12 322 -15 z m 314 1113 l 392 1113 l 560 1331 l 453 1331 z "},"Õ":{"ha":701,"x_min":0,"x_max":0,"o":"m 350 -14 b 626 293 526 -14 626 83 l 626 686 b 351 997 626 890 526 997 b 76 686 176 997 76 889 l 76 293 b 350 -14 76 82 175 -14 z m 351 79 b 178 299 232 79 178 151 l 178 683 b 350 908 178 828 231 908 b 524 683 471 908 524 829 l 524 299 b 351 79 524 151 468 79 z m 150 1092 l 221 1092 b 263 1167 221 1146 233 1167 b 438 1088 315 1167 354 1088 b 551 1239 521 1088 551 1144 l 482 1239 b 436 1163 482 1179 468 1163 b 263 1242 388 1163 346 1242 b 150 1092 182 1242 151 1188 z "},"Œ":{"ha":1019,"x_min":0,"x_max":0,"o":"m 351 79 b 178 299 232 79 178 151 l 178 683 b 350 908 178 828 231 908 b 524 683 471 908 524 829 l 524 299 b 351 79 524 151 468 79 z m 521 0 l 972 0 l 972 93 l 618 93 l 618 461 l 914 461 l 914 553 l 618 553 l 618 897 l 960 897 l 960 988 l 521 988 l 521 879 b 335 997 493 956 438 997 b 76 686 175 997 76 889 l 76 293 b 331 -14 76 82 175 -14 b 521 104 436 -14 493 26 z "},"Ŕ":{"ha":669,"x_min":0,"x_max":0,"o":"m 340 900 b 499 750 454 900 499 849 l 499 663 b 339 503 499 558 447 503 l 193 503 l 193 900 z m 338 415 b 486 272 450 415 486 374 l 486 61 b 501 0 486 36 490 11 l 611 0 b 588 60 596 14 588 33 l 588 275 b 471 463 588 386 554 440 b 599 658 554 492 599 554 l 599 757 b 344 988 599 906 525 988 l 96 988 l 96 0 l 193 0 l 193 415 z m 292 1075 l 369 1075 l 538 1293 l 431 1293 z "},"Ř":{"ha":669,"x_min":0,"x_max":0,"o":"m 340 900 b 499 750 454 900 499 849 l 499 663 b 339 503 499 558 447 503 l 193 503 l 193 900 z m 338 415 b 486 272 450 415 486 374 l 486 61 b 501 0 486 36 490 11 l 611 0 b 588 60 596 14 588 33 l 588 275 b 471 463 588 386 554 440 b 599 658 554 492 599 554 l 599 757 b 344 988 599 906 525 988 l 96 988 l 96 0 l 193 0 l 193 415 z m 364 1075 l 503 1275 l 417 1275 l 331 1149 l 246 1275 l 157 1275 l 294 1075 z "},"Ŗ":{"ha":669,"x_min":0,"x_max":0,"o":"m 340 900 b 499 750 454 900 499 849 l 499 663 b 339 503 499 558 447 503 l 193 503 l 193 900 z m 338 415 b 486 272 450 415 486 374 l 486 61 b 501 0 486 36 490 11 l 611 0 b 588 60 596 14 588 33 l 588 275 b 471 463 588 386 554 440 b 599 658 554 492 599 554 l 599 757 b 344 988 599 906 525 988 l 96 988 l 96 0 l 193 0 l 193 415 z m 289 -331 b 408 -156 368 -311 408 -244 b 342 -61 408 -86 390 -61 b 278 -129 299 -61 278 -81 b 331 -192 278 -181 296 -192 b 346 -189 336 -192 342 -190 b 283 -278 340 -235 321 -265 z "},"Ś":{"ha":632,"x_min":0,"x_max":0,"o":"m 325 -12 b 579 229 490 -12 579 90 l 579 279 b 360 540 579 438 467 492 b 168 732 263 585 168 624 l 168 761 b 315 913 168 849 217 913 b 464 765 414 913 464 861 l 464 672 l 563 672 l 563 771 b 315 997 563 908 483 997 b 69 763 151 997 69 897 l 69 728 b 286 472 69 572 181 519 b 481 272 386 428 481 388 l 481 229 b 325 78 481 143 433 78 b 157 242 208 78 157 139 l 157 354 l 54 354 l 54 240 b 325 -12 54 76 132 -12 z m 269 1089 l 347 1089 l 515 1307 l 408 1307 z "},"Š":{"ha":632,"x_min":0,"x_max":0,"o":"m 325 -12 b 579 229 490 -12 579 90 l 579 279 b 360 540 579 438 467 492 b 168 732 263 585 168 624 l 168 761 b 315 913 168 849 217 913 b 464 765 414 913 464 861 l 464 672 l 563 672 l 563 771 b 315 997 563 908 483 997 b 69 763 151 997 69 897 l 69 728 b 286 472 69 572 181 519 b 481 272 386 428 481 388 l 481 229 b 325 78 481 143 433 78 b 157 242 208 78 157 139 l 157 354 l 54 354 l 54 240 b 325 -12 54 76 132 -12 z m 350 1089 l 489 1289 l 403 1289 l 317 1163 l 232 1289 l 143 1289 l 281 1089 z "},"Ş":{"ha":632,"x_min":0,"x_max":0,"o":"m 329 -317 b 492 -189 429 -317 492 -271 b 357 -81 492 -122 444 -82 l 357 -11 b 579 229 501 1 579 100 l 579 279 b 360 540 579 438 467 492 b 168 732 263 585 168 624 l 168 761 b 315 913 168 849 217 913 b 464 765 414 913 464 861 l 464 672 l 563 672 l 563 771 b 315 997 563 908 483 997 b 69 763 151 997 69 897 l 69 728 b 286 472 69 572 181 519 b 481 272 386 428 481 388 l 481 229 b 325 78 481 143 433 78 b 157 242 208 78 157 139 l 157 354 l 54 354 l 54 240 b 282 -11 54 89 121 1 l 282 -139 l 326 -139 b 411 -192 388 -139 411 -157 b 329 -251 411 -232 382 -251 b 242 -185 278 -251 247 -229 l 154 -185 b 329 -317 167 -269 214 -317 z "},"Ŝ":{"ha":632,"x_min":0,"x_max":0,"o":"m 325 -12 b 579 229 490 -12 579 90 l 579 279 b 360 540 579 438 467 492 b 168 732 263 585 168 624 l 168 761 b 315 913 168 849 217 913 b 464 765 414 913 464 861 l 464 672 l 563 672 l 563 771 b 315 997 563 908 483 997 b 69 763 151 997 69 897 l 69 728 b 286 472 69 572 181 519 b 481 272 386 428 481 388 l 481 229 b 325 78 481 143 433 78 b 157 242 208 78 157 139 l 157 354 l 54 354 l 54 240 b 325 -12 54 76 132 -12 z m 407 1088 l 494 1088 l 357 1290 l 285 1290 l 147 1088 l 235 1088 l 321 1219 z "},"Ș":{"ha":632,"x_min":0,"x_max":0,"o":"m 325 -12 b 579 229 490 -12 579 90 l 579 279 b 360 540 579 438 467 492 b 168 732 263 585 168 624 l 168 761 b 315 913 168 849 217 913 b 464 765 414 913 464 861 l 464 672 l 563 672 l 563 771 b 315 997 563 908 483 997 b 69 763 151 997 69 897 l 69 728 b 286 472 69 572 181 519 b 481 272 386 428 481 388 l 481 229 b 325 78 481 143 433 78 b 157 242 208 78 157 139 l 157 354 l 54 354 l 54 240 b 325 -12 54 76 132 -12 z m 269 -354 b 389 -179 349 -335 389 -268 b 322 -85 389 -110 371 -85 b 258 -153 279 -85 258 -104 b 311 -215 258 -204 276 -215 b 326 -212 317 -215 322 -214 b 264 -301 321 -258 301 -289 z "},"Ŧ":{"ha":547,"x_min":0,"x_max":0,"o":"m 433 450 l 433 536 l 321 536 l 321 896 l 514 896 l 514 988 l 33 988 l 33 896 l 222 896 l 222 536 l 108 536 l 108 450 l 222 450 l 222 0 l 321 0 l 321 450 z "},"Ť":{"ha":547,"x_min":0,"x_max":0,"o":"m 514 896 l 514 988 l 33 988 l 33 896 l 222 896 l 222 0 l 321 0 l 321 896 z m 307 1075 l 446 1275 l 360 1275 l 274 1149 l 189 1275 l 100 1275 l 238 1075 z "},"Ţ":{"ha":547,"x_min":0,"x_max":0,"o":"m 514 896 l 514 988 l 33 988 l 33 896 l 222 896 l 222 0 l 321 0 l 321 896 z m 225 -339 b 344 -164 304 -319 344 -253 b 278 -69 344 -94 326 -69 b 214 -137 235 -69 214 -89 b 267 -200 214 -189 232 -200 b 282 -197 272 -200 278 -199 b 219 -286 276 -243 257 -274 z "},"Ú":{"ha":683,"x_min":0,"x_max":0,"o":"m 342 -14 b 596 282 510 -14 596 79 l 596 988 l 494 988 l 494 286 b 342 82 494 143 449 82 b 189 286 235 82 189 144 l 189 988 l 88 988 l 88 282 b 342 -14 88 79 168 -14 z m 300 1067 l 378 1067 l 546 1285 l 439 1285 z "},"Ŭ":{"ha":683,"x_min":0,"x_max":0,"o":"m 342 -14 b 596 282 510 -14 596 79 l 596 988 l 494 988 l 494 286 b 342 82 494 143 449 82 b 189 286 235 82 189 144 l 189 988 l 88 988 l 88 282 b 342 -14 88 79 168 -14 z m 339 1064 b 526 1267 467 1064 525 1140 l 451 1267 b 340 1135 449 1181 415 1136 b 229 1267 261 1136 232 1181 l 154 1267 b 339 1064 157 1140 201 1064 z "},"Û":{"ha":683,"x_min":0,"x_max":0,"o":"m 342 -14 b 596 282 510 -14 596 79 l 596 988 l 494 988 l 494 286 b 342 82 494 143 449 82 b 189 286 235 82 189 144 l 189 988 l 88 988 l 88 282 b 342 -14 88 79 168 -14 z m 428 1067 l 515 1067 l 378 1269 l 306 1269 l 168 1067 l 256 1067 l 342 1199 z "},"Ü":{"ha":683,"x_min":0,"x_max":0,"o":"m 342 -14 b 596 282 510 -14 596 79 l 596 988 l 494 988 l 494 286 b 342 82 494 143 449 82 b 189 286 235 82 189 144 l 189 988 l 88 988 l 88 282 b 342 -14 88 79 168 -14 z m 435 1067 b 494 1136 474 1067 494 1086 b 435 1204 494 1185 475 1204 b 372 1136 393 1204 372 1185 b 435 1067 372 1083 390 1067 z m 244 1067 b 307 1136 288 1067 307 1086 b 246 1204 307 1185 288 1204 b 185 1136 204 1204 185 1185 b 244 1067 185 1083 203 1067 z "},"Ù":{"ha":683,"x_min":0,"x_max":0,"o":"m 342 -14 b 596 282 510 -14 596 79 l 596 988 l 494 988 l 494 286 b 342 82 494 143 449 82 b 189 286 235 82 189 144 l 189 988 l 88 988 l 88 282 b 342 -14 88 79 168 -14 z m 304 1068 l 382 1068 l 257 1271 l 151 1271 z "},"Ű":{"ha":683,"x_min":0,"x_max":0,"o":"m 342 -14 b 596 282 510 -14 596 79 l 596 988 l 494 988 l 494 286 b 342 82 494 143 449 82 b 189 286 235 82 189 144 l 189 988 l 88 988 l 88 282 b 342 -14 88 79 168 -14 z m 443 1271 l 340 1271 l 219 1067 l 292 1067 z m 617 1271 l 513 1271 l 385 1067 l 457 1067 z "},"Ū":{"ha":683,"x_min":0,"x_max":0,"o":"m 342 -14 b 596 282 510 -14 596 79 l 596 988 l 494 988 l 494 286 b 342 82 494 143 449 82 b 189 286 235 82 189 144 l 189 988 l 88 988 l 88 282 b 342 -14 88 79 168 -14 z m 188 1082 l 493 1082 l 493 1160 l 188 1160 z "},"Ų":{"ha":683,"x_min":0,"x_max":0,"o":"m 403 -253 b 576 -128 492 -253 549 -212 l 486 -128 b 407 -186 475 -164 447 -186 b 338 -128 364 -186 338 -164 b 457 6 338 -86 365 -57 b 596 282 549 43 596 132 l 596 988 l 494 988 l 494 286 b 342 82 494 143 449 82 b 189 286 235 82 189 144 l 189 988 l 88 988 l 88 282 b 318 -14 88 89 161 -6 b 257 -135 274 -54 257 -94 b 403 -253 257 -211 310 -253 z "},"Ů":{"ha":683,"x_min":0,"x_max":0,"o":"m 342 -14 b 596 282 510 -14 596 79 l 596 988 l 494 988 l 494 286 b 342 82 494 143 449 82 b 189 286 235 82 189 144 l 189 988 l 88 988 l 88 282 b 342 -14 88 79 168 -14 z m 339 1044 b 476 1178 421 1044 476 1094 b 339 1311 476 1263 421 1311 b 203 1178 260 1311 203 1260 b 339 1044 203 1093 258 1044 z m 339 1114 b 276 1178 299 1114 276 1139 b 339 1244 276 1218 301 1244 b 404 1178 378 1244 404 1218 b 339 1114 404 1136 374 1114 z "},"Ũ":{"ha":683,"x_min":0,"x_max":0,"o":"m 342 -14 b 596 282 510 -14 596 79 l 596 988 l 494 988 l 494 286 b 342 82 494 143 449 82 b 189 286 235 82 189 144 l 189 988 l 88 988 l 88 282 b 342 -14 88 79 168 -14 z m 138 1071 l 208 1071 b 250 1146 208 1125 221 1146 b 425 1067 303 1146 342 1067 b 539 1218 508 1067 539 1124 l 469 1218 b 424 1142 469 1158 456 1142 b 250 1221 375 1142 333 1221 b 138 1071 169 1221 139 1167 z "},"Ẃ":{"ha":947,"x_min":0,"x_max":0,"o":"m 460 751 l 469 868 l 479 753 l 639 0 l 729 0 l 907 988 l 813 988 l 689 265 l 678 97 l 664 253 l 504 988 l 436 988 l 267 253 l 250 111 l 246 265 l 139 988 l 43 988 l 197 0 l 286 0 z m 431 1075 l 508 1075 l 676 1293 l 569 1293 z "},"Ŵ":{"ha":947,"x_min":0,"x_max":0,"o":"m 460 751 l 469 868 l 479 753 l 639 0 l 729 0 l 907 988 l 813 988 l 689 265 l 678 97 l 664 253 l 504 988 l 436 988 l 267 253 l 250 111 l 246 265 l 139 988 l 43 988 l 197 0 l 286 0 z m 557 1075 l 644 1075 l 507 1278 l 435 1278 l 297 1075 l 385 1075 l 471 1207 z "},"Ẅ":{"ha":947,"x_min":0,"x_max":0,"o":"m 460 751 l 469 868 l 479 753 l 639 0 l 729 0 l 907 988 l 813 988 l 689 265 l 678 97 l 664 253 l 504 988 l 436 988 l 267 253 l 250 111 l 246 265 l 139 988 l 43 988 l 197 0 l 286 0 z m 565 1075 b 625 1144 604 1075 625 1094 b 565 1213 625 1193 606 1213 b 503 1144 524 1213 503 1193 b 565 1075 503 1092 521 1075 z m 375 1075 b 438 1144 418 1075 438 1094 b 376 1213 438 1193 418 1213 b 315 1144 335 1213 315 1193 b 375 1075 315 1092 333 1075 z "},"Ẁ":{"ha":947,"x_min":0,"x_max":0,"o":"m 460 751 l 469 868 l 479 753 l 639 0 l 729 0 l 907 988 l 813 988 l 689 265 l 678 97 l 664 253 l 504 988 l 436 988 l 267 253 l 250 111 l 246 265 l 139 988 l 43 988 l 197 0 l 286 0 z m 435 1076 l 513 1076 l 388 1279 l 282 1279 z "},"Ý":{"ha":600,"x_min":0,"x_max":0,"o":"m 346 0 l 346 357 l 579 988 l 474 988 l 311 515 l 297 440 l 283 515 l 126 988 l 21 988 l 244 356 l 244 0 z m 264 1068 l 342 1068 l 510 1286 l 403 1286 z "},"Ŷ":{"ha":600,"x_min":0,"x_max":0,"o":"m 346 0 l 346 357 l 579 988 l 474 988 l 311 515 l 297 440 l 283 515 l 126 988 l 21 988 l 244 356 l 244 0 z m 392 1068 l 479 1068 l 342 1271 l 269 1271 l 132 1068 l 219 1068 l 306 1200 z "},"Ÿ":{"ha":600,"x_min":0,"x_max":0,"o":"m 346 0 l 346 357 l 579 988 l 474 988 l 311 515 l 297 440 l 283 515 l 126 988 l 21 988 l 244 356 l 244 0 z m 399 1068 b 458 1138 438 1068 458 1088 b 399 1206 458 1186 439 1206 b 336 1138 357 1206 336 1186 b 399 1068 336 1085 354 1068 z m 208 1068 b 271 1138 251 1068 271 1088 b 210 1206 271 1186 251 1206 b 149 1138 168 1206 149 1186 b 208 1068 149 1085 167 1068 z "},"Ỳ":{"ha":600,"x_min":0,"x_max":0,"o":"m 346 0 l 346 357 l 579 988 l 474 988 l 311 515 l 297 440 l 283 515 l 126 988 l 21 988 l 244 356 l 244 0 z m 268 1069 l 346 1069 l 221 1272 l 115 1272 z "},"Ĳ":{"ha":817,"x_min":0,"x_max":0,"o":"m 490 0 l 517 0 b 731 229 682 0 731 51 l 731 988 l 629 988 l 629 233 b 517 93 629 124 608 93 l 490 93 z m 408 0 l 408 93 l 276 93 l 276 897 l 408 897 l 408 988 l 47 988 l 47 897 l 181 897 l 181 93 l 47 93 l 47 0 z "},"Ź":{"ha":590,"x_min":0,"x_max":0,"o":"m 539 0 l 539 96 l 163 96 l 533 899 l 533 988 l 78 988 l 78 894 l 428 894 l 49 86 l 49 0 z m 260 1075 l 338 1075 l 506 1293 l 399 1293 z "},"Ž":{"ha":590,"x_min":0,"x_max":0,"o":"m 539 0 l 539 96 l 163 96 l 533 899 l 533 988 l 78 988 l 78 894 l 428 894 l 49 86 l 49 0 z m 332 1075 l 471 1275 l 385 1275 l 299 1149 l 214 1275 l 125 1275 l 263 1075 z "},"Ż":{"ha":590,"x_min":0,"x_max":0,"o":"m 539 0 l 539 96 l 163 96 l 533 899 l 533 988 l 78 988 l 78 894 l 428 894 l 49 86 l 49 0 z m 299 1074 b 367 1150 343 1074 367 1096 b 300 1228 367 1206 343 1228 b 229 1150 253 1228 229 1206 b 299 1074 229 1093 250 1074 z "},"Þ":{"ha":640,"x_min":0,"x_max":0,"o":"m 321 733 b 489 579 436 733 489 689 l 489 442 b 324 279 489 333 433 279 l 192 279 l 192 733 z m 328 192 b 586 440 506 192 586 282 l 586 579 b 322 822 586 749 504 822 l 192 822 l 192 988 l 96 988 l 96 0 l 192 0 l 192 192 z "},"a":{"ha":639,"x_min":0,"x_max":0,"o":"m 285 71 b 157 193 204 71 157 117 l 157 206 b 203 326 157 261 175 301 b 336 397 232 354 264 372 b 464 474 406 424 446 440 l 464 308 b 285 71 464 175 400 71 z m 481 0 l 557 0 l 557 589 b 321 804 557 724 486 804 b 72 588 158 804 72 719 l 72 508 l 168 508 l 168 583 b 321 724 168 672 225 724 b 464 596 419 724 464 678 l 464 588 b 308 458 464 518 414 496 b 131 375 214 424 171 408 b 54 207 86 339 54 285 l 54 182 b 250 -11 54 57 124 -11 b 465 153 357 -11 432 50 z "},"b":{"ha":674,"x_min":0,"x_max":0,"o":"m 368 -12 b 604 289 517 -12 604 88 l 604 513 b 374 806 604 713 519 806 b 183 665 275 806 213 756 l 183 1032 l 89 1032 l 89 0 l 168 0 l 179 142 b 368 -12 203 47 263 -12 z m 343 78 b 183 288 238 78 183 157 l 183 513 b 349 721 183 636 240 721 b 504 513 450 721 504 651 l 504 290 b 343 78 504 149 449 78 z "},"c":{"ha":629,"x_min":0,"x_max":0,"o":"m 318 -12 b 569 250 479 -12 569 72 l 569 321 l 465 321 l 465 253 b 318 76 465 132 422 76 b 168 268 213 76 168 142 l 168 521 b 322 719 168 657 217 719 b 465 546 422 719 465 674 l 465 492 l 569 492 l 569 549 b 324 807 569 729 481 807 b 68 524 160 807 68 715 l 68 265 b 318 -12 68 82 146 -12 z "},"d":{"ha":672,"x_min":0,"x_max":0,"o":"m 325 76 b 168 292 224 76 168 146 l 168 506 b 329 721 168 646 224 721 b 490 513 440 721 490 635 l 490 288 b 325 76 490 161 433 76 z m 507 0 l 583 0 l 583 1032 l 490 1032 l 490 669 b 303 806 463 756 403 806 b 68 510 158 806 68 710 l 68 285 b 299 -12 68 83 153 -12 b 493 146 407 -12 468 51 z "},"e":{"ha":638,"x_min":0,"x_max":0,"o":"m 163 524 b 326 719 163 656 219 719 b 481 532 435 719 481 658 l 481 451 l 163 451 z m 576 239 l 576 268 l 478 268 l 478 232 b 326 76 478 131 428 76 b 163 264 211 76 163 140 l 163 368 l 576 368 l 576 529 b 326 807 576 694 500 807 b 68 521 164 807 68 703 l 68 261 b 325 -12 68 85 149 -12 b 576 239 510 -12 576 90 z "},"f":{"ha":385,"x_min":0,"x_max":0,"o":"m 363 704 l 363 794 l 218 794 l 218 846 b 321 974 218 953 236 974 l 363 974 l 363 1061 l 308 1061 b 124 851 176 1061 124 1014 l 124 794 l 18 794 l 18 704 l 124 704 l 124 0 l 218 0 l 218 704 z "},"g":{"ha":618,"x_min":0,"x_max":0,"o":"m 299 -269 b 600 -72 510 -269 600 -179 l 600 -69 b 389 94 600 31 538 94 l 246 94 b 136 149 167 93 136 111 b 285 214 136 190 174 214 l 311 214 b 554 429 458 214 554 289 l 554 586 b 404 782 554 703 488 769 b 375 786 393 783 383 785 b 543 938 506 793 543 843 l 543 964 l 436 964 l 436 925 b 299 807 436 851 408 826 b 253 799 286 806 263 801 b 72 581 138 775 72 701 l 72 428 b 188 246 72 329 110 272 b 47 124 94 231 47 188 b 189 8 47 57 93 15 b 43 -132 100 -14 43 -65 b 271 -269 43 -217 110 -269 z m 310 289 b 171 428 219 289 171 335 l 171 581 b 267 725 171 658 203 706 b 318 731 281 729 300 731 b 454 585 408 731 454 676 l 454 429 b 310 289 454 339 404 289 z m 278 -186 b 139 -107 185 -186 139 -154 l 139 -104 b 288 8 139 -43 200 0 l 375 8 b 504 -76 467 8 504 -22 l 504 -79 b 313 -186 504 -140 436 -186 z "},"h":{"ha":660,"x_min":0,"x_max":0,"o":"m 183 514 b 340 718 183 640 238 718 b 476 543 439 718 476 656 l 476 0 l 575 0 l 575 556 b 371 806 575 715 508 806 b 183 656 271 806 210 749 l 183 1032 l 89 1032 l 89 0 l 183 0 z "},"i":{"ha":275,"x_min":0,"x_max":0,"o":"m 140 878 b 206 954 185 878 206 899 b 140 1029 206 1010 186 1029 b 75 954 94 1029 75 1010 b 140 878 75 897 92 878 z m 186 0 l 186 794 l 89 794 l 89 0 z "},"j":{"ha":276,"x_min":0,"x_max":0,"o":"m 140 878 b 206 954 185 878 206 899 b 140 1029 206 1010 186 1029 b 75 954 94 1029 75 1010 b 140 878 75 897 93 878 z m 3 -243 b 188 -44 151 -243 188 -200 l 188 794 l 90 794 l 90 -35 b -6 -150 90 -131 74 -150 l -40 -150 l -40 -243 z "},"k":{"ha":615,"x_min":0,"x_max":0,"o":"m 489 0 l 594 0 l 378 503 l 579 794 l 467 794 l 190 394 l 182 374 l 183 419 l 183 1032 l 89 1032 l 89 0 l 183 0 l 183 268 l 304 443 z "},"l":{"ha":275,"x_min":0,"x_max":0,"o":"m 186 0 l 186 1032 l 89 1032 l 89 0 z "},"m":{"ha":986,"x_min":0,"x_max":0,"o":"m 186 524 b 322 724 186 643 226 724 b 447 557 417 724 447 657 l 447 0 l 546 0 l 546 556 b 678 724 546 646 582 724 b 807 551 769 724 807 663 l 807 0 l 904 0 l 904 565 b 708 811 904 725 840 811 b 532 669 617 811 557 757 b 356 811 513 758 460 811 b 176 667 261 811 201 757 l 167 794 l 88 794 l 88 0 l 186 0 z "},"n":{"ha":660,"x_min":0,"x_max":0,"o":"m 186 514 b 342 718 186 643 239 718 b 479 542 442 718 479 654 l 479 0 l 578 0 l 578 554 b 371 806 578 717 511 806 b 178 647 264 806 201 746 l 167 794 l 88 794 l 88 0 l 186 0 z "},"o":{"ha":650,"x_min":0,"x_max":0,"o":"m 324 -12 b 581 263 483 -12 581 79 l 581 524 b 324 807 581 713 483 807 b 68 524 167 807 68 714 l 68 263 b 324 -12 68 78 158 -12 z m 324 76 b 168 265 218 76 168 144 l 168 522 b 324 719 168 656 222 719 b 481 522 426 719 481 654 l 481 265 b 324 76 481 143 429 76 z "},"p":{"ha":671,"x_min":0,"x_max":0,"o":"m 340 76 b 182 281 235 76 182 157 l 182 507 b 346 721 182 636 236 721 b 503 507 450 721 503 654 l 503 282 b 340 76 503 146 449 76 z m 368 -12 b 603 283 514 -12 603 85 l 603 506 b 372 807 603 717 518 807 b 178 657 268 807 204 749 l 165 794 l 88 794 l 88 -268 l 182 -268 l 182 126 b 368 -12 208 39 267 -12 z "},"q":{"ha":671,"x_min":0,"x_max":0,"o":"m 583 -268 l 583 794 l 506 794 l 494 658 b 303 806 469 749 411 806 b 68 507 157 806 68 714 l 68 274 b 299 -12 68 74 157 -12 b 489 139 401 -12 464 43 l 489 -268 z m 325 75 b 168 278 224 75 168 144 l 168 508 b 329 719 168 654 225 719 b 490 504 439 719 490 636 l 490 282 b 325 75 490 157 429 75 z "},"r":{"ha":426,"x_min":0,"x_max":0,"o":"m 185 0 l 185 476 b 361 693 185 626 222 693 l 399 693 l 399 799 l 374 799 b 179 640 251 799 196 758 l 163 794 l 88 794 l 88 0 z "},"s":{"ha":589,"x_min":0,"x_max":0,"o":"m 299 -12 b 538 207 458 -12 538 71 l 538 232 b 332 450 538 369 431 413 b 163 590 244 482 163 508 l 163 604 b 293 722 163 672 204 722 b 426 601 385 722 426 678 l 426 543 l 524 543 l 524 603 b 293 807 524 729 444 807 b 65 603 144 807 65 722 l 65 585 b 267 375 65 453 168 411 b 440 225 356 342 440 314 l 440 207 b 300 75 440 124 394 75 b 154 213 199 75 154 124 l 154 283 l 51 283 l 51 207 b 299 -12 51 63 131 -12 z "},"t":{"ha":417,"x_min":0,"x_max":0,"o":"m 379 94 l 342 94 b 218 244 243 94 218 115 l 218 704 l 379 704 l 379 794 l 218 794 l 218 954 l 146 954 b 133 850 143 917 140 874 b 88 796 126 813 115 801 b 22 788 75 790 40 788 l 22 704 l 126 704 l 126 236 b 322 0 126 47 171 0 l 379 0 z "},"u":{"ha":643,"x_min":0,"x_max":0,"o":"m 476 0 l 556 0 l 556 794 l 457 794 l 457 282 b 311 76 457 154 406 76 b 182 250 218 76 182 140 l 182 794 l 83 794 l 83 236 b 282 -12 83 76 146 -12 b 464 146 382 -12 442 47 z "},"v":{"ha":597,"x_min":0,"x_max":0,"o":"m 344 0 l 571 794 l 472 794 l 310 188 l 297 101 l 283 188 l 125 794 l 25 794 l 247 0 z "},"w":{"ha":878,"x_min":0,"x_max":0,"o":"m 421 560 l 435 678 l 447 563 l 581 0 l 674 0 l 849 794 l 754 794 l 636 219 l 621 99 l 604 222 l 465 794 l 404 794 l 257 224 l 238 104 l 226 221 l 125 794 l 29 794 l 179 0 l 275 0 z "},"x":{"ha":583,"x_min":0,"x_max":0,"o":"m 283 315 l 293 358 l 303 315 l 454 0 l 563 0 l 347 421 l 542 794 l 436 794 l 303 521 l 293 481 l 282 521 l 149 794 l 43 794 l 239 419 l 21 0 l 128 0 z "},"y":{"ha":590,"x_min":0,"x_max":0,"o":"m 110 -226 b 335 -42 254 -226 290 -196 l 565 794 l 465 794 l 317 210 l 303 113 l 290 206 l 131 794 l 31 794 l 256 14 l 244 -29 b 106 -135 217 -121 194 -135 l 57 -135 l 57 -226 z "},"z":{"ha":539,"x_min":0,"x_max":0,"o":"m 43 -1 l 497 0 l 497 90 l 156 90 l 497 713 l 497 794 l 64 794 l 64 706 l 390 706 l 43 76 z "},"á":{"ha":639,"x_min":0,"x_max":0,"o":"m 285 71 b 157 193 204 71 157 117 l 157 206 b 203 326 157 261 175 301 b 336 397 232 354 264 372 b 464 474 406 424 446 440 l 464 308 b 285 71 464 175 400 71 z m 481 0 l 557 0 l 557 589 b 321 804 557 724 486 804 b 72 588 158 804 72 719 l 72 508 l 168 508 l 168 583 b 321 724 168 672 225 724 b 464 596 419 724 464 678 l 464 588 b 308 458 464 518 414 496 b 131 375 214 424 171 408 b 54 207 86 339 54 285 l 54 182 b 250 -11 54 57 124 -11 b 465 153 357 -11 432 50 z m 278 894 l 356 894 l 524 1113 l 417 1113 z "},"ă":{"ha":639,"x_min":0,"x_max":0,"o":"m 285 71 b 157 193 204 71 157 117 l 157 206 b 203 326 157 261 175 301 b 336 397 232 354 264 372 b 464 474 406 424 446 440 l 464 308 b 285 71 464 175 400 71 z m 481 0 l 557 0 l 557 589 b 321 804 557 724 486 804 b 72 588 158 804 72 719 l 72 508 l 168 508 l 168 583 b 321 724 168 672 225 724 b 464 596 419 724 464 678 l 464 588 b 308 458 464 518 414 496 b 131 375 214 424 171 408 b 54 207 86 339 54 285 l 54 182 b 250 -11 54 57 124 -11 b 465 153 357 -11 432 50 z m 322 892 b 510 1094 450 892 508 968 l 435 1094 b 324 963 432 1008 399 964 b 213 1094 244 964 215 1008 l 138 1094 b 322 892 140 968 185 892 z "},"â":{"ha":639,"x_min":0,"x_max":0,"o":"m 285 71 b 157 193 204 71 157 117 l 157 206 b 203 326 157 261 175 301 b 336 397 232 354 264 372 b 464 474 406 424 446 440 l 464 308 b 285 71 464 175 400 71 z m 481 0 l 557 0 l 557 589 b 321 804 557 724 486 804 b 72 588 158 804 72 719 l 72 508 l 168 508 l 168 583 b 321 724 168 672 225 724 b 464 596 419 724 464 678 l 464 588 b 308 458 464 518 414 496 b 131 375 214 424 171 408 b 54 207 86 339 54 285 l 54 182 b 250 -11 54 57 124 -11 b 465 153 357 -11 432 50 z m 411 894 l 499 894 l 361 1097 l 289 1097 l 151 894 l 239 894 l 325 1026 z "},"ä":{"ha":639,"x_min":0,"x_max":0,"o":"m 285 71 b 157 193 204 71 157 117 l 157 206 b 203 326 157 261 175 301 b 336 397 232 354 264 372 b 464 474 406 424 446 440 l 464 308 b 285 71 464 175 400 71 z m 481 0 l 557 0 l 557 589 b 321 804 557 724 486 804 b 72 588 158 804 72 719 l 72 508 l 168 508 l 168 583 b 321 724 168 672 225 724 b 464 596 419 724 464 678 l 464 588 b 308 458 464 518 414 496 b 131 375 214 424 171 408 b 54 207 86 339 54 285 l 54 182 b 250 -11 54 57 124 -11 b 465 153 357 -11 432 50 z m 419 894 b 479 964 458 894 479 914 b 419 1032 479 1013 460 1032 b 357 964 378 1032 357 1013 b 419 894 357 911 375 894 z m 229 894 b 292 964 272 894 292 914 b 231 1032 292 1013 272 1032 b 169 964 189 1032 169 1013 b 229 894 169 911 188 894 z "},"à":{"ha":639,"x_min":0,"x_max":0,"o":"m 285 71 b 157 193 204 71 157 117 l 157 206 b 203 326 157 261 175 301 b 336 397 232 354 264 372 b 464 474 406 424 446 440 l 464 308 b 285 71 464 175 400 71 z m 481 0 l 557 0 l 557 589 b 321 804 557 724 486 804 b 72 588 158 804 72 719 l 72 508 l 168 508 l 168 583 b 321 724 168 672 225 724 b 464 596 419 724 464 678 l 464 588 b 308 458 464 518 414 496 b 131 375 214 424 171 408 b 54 207 86 339 54 285 l 54 182 b 250 -11 54 57 124 -11 b 465 153 357 -11 432 50 z m 289 894 l 367 894 l 242 1097 l 136 1097 z "},"ā":{"ha":639,"x_min":0,"x_max":0,"o":"m 285 71 b 157 193 204 71 157 117 l 157 206 b 203 326 157 261 175 301 b 336 397 232 354 264 372 b 464 474 406 424 446 440 l 464 308 b 285 71 464 175 400 71 z m 481 0 l 557 0 l 557 589 b 321 804 557 724 486 804 b 72 588 158 804 72 719 l 72 508 l 168 508 l 168 583 b 321 724 168 672 225 724 b 464 596 419 724 464 678 l 464 588 b 308 458 464 518 414 496 b 131 375 214 424 171 408 b 54 207 86 339 54 285 l 54 182 b 250 -11 54 57 124 -11 b 465 153 357 -11 432 50 z m 172 910 l 478 910 l 478 988 l 172 988 z "},"ą":{"ha":639,"x_min":0,"x_max":0,"o":"m 285 71 b 157 193 204 71 157 117 l 157 206 b 203 326 157 261 175 301 b 336 397 232 354 264 372 b 464 474 406 424 446 440 l 464 308 b 285 71 464 175 400 71 z m 672 -136 l 582 -136 b 503 -194 571 -172 543 -194 b 433 -136 460 -194 433 -172 b 557 0 433 -94 463 -64 l 557 589 b 321 804 557 724 486 804 b 72 588 158 804 72 719 l 72 508 l 168 508 l 168 583 b 321 724 168 672 225 724 b 464 596 419 724 464 678 l 464 588 b 308 458 464 518 414 496 b 131 375 214 424 171 408 b 54 207 86 339 54 285 l 54 182 b 250 -11 54 57 124 -11 b 465 153 357 -11 432 50 l 478 25 b 353 -143 383 -33 353 -87 b 499 -261 353 -219 406 -261 b 672 -136 588 -261 644 -221 z "},"å":{"ha":639,"x_min":0,"x_max":0,"o":"m 285 71 b 157 193 204 71 157 117 l 157 206 b 203 326 157 261 175 301 b 336 397 232 354 264 372 b 464 474 406 424 446 440 l 464 308 b 285 71 464 175 400 71 z m 481 0 l 557 0 l 557 589 b 321 804 557 724 486 804 b 72 588 158 804 72 719 l 72 508 l 168 508 l 168 583 b 321 724 168 672 225 724 b 464 596 419 724 464 678 l 464 588 b 308 458 464 518 414 496 b 131 375 214 424 171 408 b 54 207 86 339 54 285 l 54 182 b 250 -11 54 57 124 -11 b 465 153 357 -11 432 50 z m 321 897 b 458 1031 403 897 458 947 b 321 1164 458 1115 403 1164 b 185 1031 242 1164 185 1113 b 321 897 185 946 240 897 z m 321 967 b 258 1031 281 967 258 992 b 321 1097 258 1071 283 1097 b 386 1031 360 1097 386 1071 b 321 967 386 989 356 967 z "},"ǻ":{"ha":642,"x_min":0,"x_max":0,"o":"m 285 71 b 157 193 204 71 157 117 l 157 206 b 203 326 157 261 175 301 b 336 397 232 354 264 372 b 464 474 406 424 446 440 l 464 308 b 285 71 464 175 400 71 z m 481 0 l 557 0 l 557 589 b 321 804 557 724 486 804 b 72 588 158 804 72 719 l 72 508 l 168 508 l 168 583 b 321 724 168 672 225 724 b 464 596 419 724 464 678 l 464 588 b 308 458 464 518 414 496 b 131 375 214 424 171 408 b 54 207 86 339 54 285 l 54 182 b 250 -11 54 57 124 -11 b 465 153 357 -11 432 50 z m 322 872 b 460 1006 404 872 460 922 b 322 1139 460 1090 404 1139 b 186 1006 243 1139 186 1088 b 322 872 186 921 242 872 z m 322 942 b 260 1006 282 942 260 967 b 322 1072 260 1046 285 1072 b 388 1006 361 1072 388 1046 b 322 942 388 964 357 942 z m 285 1197 l 363 1197 l 531 1415 l 424 1415 z "},"ã":{"ha":639,"x_min":0,"x_max":0,"o":"m 285 71 b 157 193 204 71 157 117 l 157 206 b 203 326 157 261 175 301 b 336 397 232 354 264 372 b 464 474 406 424 446 440 l 464 308 b 285 71 464 175 400 71 z m 481 0 l 557 0 l 557 589 b 321 804 557 724 486 804 b 72 588 158 804 72 719 l 72 508 l 168 508 l 168 583 b 321 724 168 672 225 724 b 464 596 419 724 464 678 l 464 588 b 308 458 464 518 414 496 b 131 375 214 424 171 408 b 54 207 86 339 54 285 l 54 182 b 250 -11 54 57 124 -11 b 465 153 357 -11 432 50 z m 122 897 l 193 897 b 235 972 193 951 206 972 b 410 893 288 972 326 893 b 524 1044 493 893 524 950 l 454 1044 b 408 968 454 985 440 968 b 235 1047 360 968 318 1047 b 122 897 154 1047 124 993 z "},"æ":{"ha":1038,"x_min":0,"x_max":0,"o":"m 557 524 b 724 719 557 656 617 719 b 881 532 831 719 881 658 l 881 447 l 557 447 z m 282 71 b 158 196 204 71 158 114 l 158 206 b 204 328 158 261 174 299 b 336 397 233 356 264 372 b 464 474 406 424 446 440 l 464 308 b 282 71 464 175 400 71 z m 976 233 l 976 268 l 878 268 l 878 231 b 719 76 878 131 824 76 b 557 268 610 76 557 144 l 557 365 l 976 365 l 976 529 b 728 807 976 703 897 807 b 525 704 631 807 564 771 b 318 807 496 769 435 807 b 72 589 158 807 72 721 l 72 508 l 168 508 l 168 586 b 321 725 168 674 225 725 b 464 597 419 725 464 679 l 464 583 b 308 460 464 522 414 497 b 131 375 214 425 171 408 b 54 207 82 336 54 288 l 54 182 b 256 -12 54 57 126 -12 b 482 154 371 -12 449 49 b 719 -12 510 50 586 -12 b 976 233 892 -12 976 83 z "},"ǽ":{"ha":1038,"x_min":0,"x_max":0,"o":"m 557 524 b 724 719 557 656 617 719 b 881 532 831 719 881 658 l 881 447 l 557 447 z m 282 71 b 158 196 204 71 158 114 l 158 206 b 204 328 158 261 174 299 b 336 397 233 356 264 372 b 464 474 406 424 446 440 l 464 308 b 282 71 464 175 400 71 z m 976 233 l 976 268 l 878 268 l 878 231 b 719 76 878 131 824 76 b 557 268 610 76 557 144 l 557 365 l 976 365 l 976 529 b 728 807 976 703 897 807 b 525 704 631 807 564 771 b 318 807 496 769 435 807 b 72 589 158 807 72 721 l 72 508 l 168 508 l 168 586 b 321 725 168 674 225 725 b 464 597 419 725 464 679 l 464 583 b 308 460 464 522 414 497 b 131 375 214 425 171 408 b 54 207 82 336 54 288 l 54 182 b 256 -12 54 57 126 -12 b 482 154 371 -12 449 49 b 719 -12 510 50 586 -12 b 976 233 892 -12 976 83 z m 486 865 l 564 865 l 732 1083 l 625 1083 z "},"ć":{"ha":629,"x_min":0,"x_max":0,"o":"m 318 -12 b 569 250 479 -12 569 72 l 569 321 l 465 321 l 465 253 b 318 76 465 132 422 76 b 168 268 213 76 168 142 l 168 521 b 322 719 168 657 217 719 b 465 546 422 719 465 674 l 465 492 l 569 492 l 569 549 b 324 807 569 729 481 807 b 68 524 160 807 68 715 l 68 265 b 318 -12 68 82 146 -12 z m 286 894 l 364 894 l 532 1113 l 425 1113 z "},"č":{"ha":629,"x_min":0,"x_max":0,"o":"m 318 -12 b 569 250 479 -12 569 72 l 569 321 l 465 321 l 465 253 b 318 76 465 132 422 76 b 168 268 213 76 168 142 l 168 521 b 322 719 168 657 217 719 b 465 546 422 719 465 674 l 465 492 l 569 492 l 569 549 b 324 807 569 729 481 807 b 68 524 160 807 68 715 l 68 265 b 318 -12 68 82 146 -12 z m 358 894 l 497 1094 l 411 1094 l 325 968 l 240 1094 l 151 1094 l 289 894 z "},"ç":{"ha":629,"x_min":0,"x_max":0,"o":"m 336 -317 b 499 -189 436 -317 499 -271 b 364 -81 499 -122 451 -82 l 364 -10 b 569 250 496 6 569 90 l 569 321 l 465 321 l 465 253 b 318 76 465 132 422 76 b 168 268 213 76 168 142 l 168 521 b 322 719 168 657 217 719 b 465 546 422 719 465 674 l 465 492 l 569 492 l 569 549 b 324 807 569 729 481 807 b 68 524 160 807 68 715 l 68 265 b 289 -11 68 93 138 -1 l 289 -139 l 333 -139 b 418 -192 394 -139 418 -157 b 336 -251 418 -232 389 -251 b 249 -185 285 -251 254 -229 l 161 -185 b 336 -317 174 -269 221 -317 z "},"ĉ":{"ha":629,"x_min":0,"x_max":0,"o":"m 318 -12 b 569 250 479 -12 569 72 l 569 321 l 465 321 l 465 253 b 318 76 465 132 422 76 b 168 268 213 76 168 142 l 168 521 b 322 719 168 657 217 719 b 465 546 422 719 465 674 l 465 492 l 569 492 l 569 549 b 324 807 569 729 481 807 b 68 524 160 807 68 715 l 68 265 b 318 -12 68 82 146 -12 z m 415 894 l 503 894 l 365 1097 l 293 1097 l 156 894 l 243 894 l 329 1026 z "},"ċ":{"ha":629,"x_min":0,"x_max":0,"o":"m 318 -12 b 569 250 479 -12 569 72 l 569 321 l 465 321 l 465 253 b 318 76 465 132 422 76 b 168 268 213 76 168 142 l 168 521 b 322 719 168 657 217 719 b 465 546 422 719 465 674 l 465 492 l 569 492 l 569 549 b 324 807 569 729 481 807 b 68 524 160 807 68 715 l 68 265 b 318 -12 68 82 146 -12 z m 325 893 b 393 969 369 893 393 915 b 326 1047 393 1025 369 1047 b 256 969 279 1047 256 1025 b 325 893 256 913 276 893 z "},"ď":{"ha":672,"x_min":0,"x_max":0,"o":"m 325 76 b 168 292 224 76 168 146 l 168 506 b 329 721 168 646 224 721 b 490 513 440 721 490 635 l 490 288 b 325 76 490 161 433 76 z m 507 0 l 583 0 l 583 1032 l 490 1032 l 490 669 b 303 806 463 756 403 806 b 68 510 158 806 68 710 l 68 285 b 299 -12 68 83 153 -12 b 493 146 407 -12 468 51 z m 658 908 l 724 908 l 790 1114 l 704 1114 z "},"đ":{"ha":674,"x_min":0,"x_max":0,"o":"m 325 76 b 168 292 224 76 168 146 l 168 506 b 329 721 168 646 224 721 b 490 513 440 721 490 635 l 490 288 b 325 76 490 161 433 76 z m 493 146 l 507 0 l 583 0 l 583 878 l 661 878 l 661 942 l 583 942 l 583 1032 l 490 1032 l 490 942 l 378 942 l 378 878 l 490 878 l 490 669 b 303 806 463 756 403 806 b 68 510 158 806 68 710 l 68 285 b 299 -12 68 83 153 -12 b 493 146 407 -12 468 51 z "},"ð":{"ha":656,"x_min":0,"x_max":0,"o":"m 325 -12 b 579 263 486 -12 579 82 l 579 535 b 403 961 579 708 518 847 l 529 1058 l 424 1058 l 354 1004 b 282 1058 332 1024 307 1042 l 138 1058 b 286 953 194 1022 244 988 l 154 851 l 261 851 l 336 910 b 478 674 414 835 460 761 b 300 792 450 747 392 792 b 68 526 158 792 68 700 l 68 257 b 325 -12 68 81 157 -12 z m 325 76 b 168 258 219 76 168 144 l 168 525 b 328 707 168 643 226 707 b 482 526 432 707 482 636 l 482 264 b 325 76 482 143 431 76 z "},"é":{"ha":638,"x_min":0,"x_max":0,"o":"m 163 524 b 326 719 163 656 219 719 b 481 532 435 719 481 658 l 481 451 l 163 451 z m 576 239 l 576 268 l 478 268 l 478 232 b 326 76 478 131 428 76 b 163 264 211 76 163 140 l 163 368 l 576 368 l 576 529 b 326 807 576 694 500 807 b 68 521 164 807 68 703 l 68 261 b 325 -12 68 85 149 -12 b 576 239 510 -12 576 90 z m 289 894 l 367 894 l 535 1113 l 428 1113 z "},"ĕ":{"ha":638,"x_min":0,"x_max":0,"o":"m 163 524 b 326 719 163 656 219 719 b 481 532 435 719 481 658 l 481 451 l 163 451 z m 576 239 l 576 268 l 478 268 l 478 232 b 326 76 478 131 428 76 b 163 264 211 76 163 140 l 163 368 l 576 368 l 576 529 b 326 807 576 694 500 807 b 68 521 164 807 68 703 l 68 261 b 325 -12 68 85 149 -12 b 576 239 510 -12 576 90 z m 338 892 b 525 1094 465 892 524 968 l 450 1094 b 339 963 447 1008 414 964 b 228 1094 260 964 231 1008 l 153 1094 b 338 892 156 968 200 892 z "},"ě":{"ha":638,"x_min":0,"x_max":0,"o":"m 163 524 b 326 719 163 656 219 719 b 481 532 435 719 481 658 l 481 451 l 163 451 z m 576 239 l 576 268 l 478 268 l 478 232 b 326 76 478 131 428 76 b 163 264 211 76 163 140 l 163 368 l 576 368 l 576 529 b 326 807 576 694 500 807 b 68 521 164 807 68 703 l 68 261 b 325 -12 68 85 149 -12 b 576 239 510 -12 576 90 z m 368 894 l 507 1094 l 421 1094 l 335 968 l 250 1094 l 161 1094 l 299 894 z "},"ê":{"ha":638,"x_min":0,"x_max":0,"o":"m 163 524 b 326 719 163 656 219 719 b 481 532 435 719 481 658 l 481 451 l 163 451 z m 576 239 l 576 268 l 478 268 l 478 232 b 326 76 478 131 428 76 b 163 264 211 76 163 140 l 163 368 l 576 368 l 576 529 b 326 807 576 694 500 807 b 68 521 164 807 68 703 l 68 261 b 325 -12 68 85 149 -12 b 576 239 510 -12 576 90 z m 418 894 l 506 894 l 368 1097 l 296 1097 l 158 894 l 246 894 l 332 1026 z "},"ë":{"ha":638,"x_min":0,"x_max":0,"o":"m 163 524 b 326 719 163 656 219 719 b 481 532 435 719 481 658 l 481 451 l 163 451 z m 576 239 l 576 268 l 478 268 l 478 232 b 326 76 478 131 428 76 b 163 264 211 76 163 140 l 163 368 l 576 368 l 576 529 b 326 807 576 694 500 807 b 68 521 164 807 68 703 l 68 261 b 325 -12 68 85 149 -12 b 576 239 510 -12 576 90 z m 424 894 b 483 964 463 894 483 914 b 424 1032 483 1013 464 1032 b 361 964 382 1032 361 1013 b 424 894 361 911 379 894 z m 233 894 b 296 964 276 894 296 914 b 235 1032 296 1013 276 1032 b 174 964 193 1032 174 1013 b 233 894 174 911 192 894 z "},"ė":{"ha":638,"x_min":0,"x_max":0,"o":"m 163 524 b 326 719 163 656 219 719 b 481 532 435 719 481 658 l 481 451 l 163 451 z m 576 239 l 576 268 l 478 268 l 478 232 b 326 76 478 131 428 76 b 163 264 211 76 163 140 l 163 368 l 576 368 l 576 529 b 326 807 576 694 500 807 b 68 521 164 807 68 703 l 68 261 b 325 -12 68 85 149 -12 b 576 239 510 -12 576 90 z m 333 893 b 401 969 378 893 401 915 b 335 1047 401 1025 378 1047 b 264 969 288 1047 264 1025 b 333 893 264 913 285 893 z "},"è":{"ha":638,"x_min":0,"x_max":0,"o":"m 163 524 b 326 719 163 656 219 719 b 481 532 435 719 481 658 l 481 451 l 163 451 z m 576 239 l 576 268 l 478 268 l 478 232 b 326 76 478 131 428 76 b 163 264 211 76 163 140 l 163 368 l 576 368 l 576 529 b 326 807 576 694 500 807 b 68 521 164 807 68 703 l 68 261 b 325 -12 68 85 149 -12 b 576 239 510 -12 576 90 z m 300 894 l 378 894 l 253 1097 l 147 1097 z "},"ē":{"ha":638,"x_min":0,"x_max":0,"o":"m 163 524 b 326 719 163 656 219 719 b 481 532 435 719 481 658 l 481 451 l 163 451 z m 576 239 l 576 268 l 478 268 l 478 232 b 326 76 478 131 428 76 b 163 264 211 76 163 140 l 163 368 l 576 368 l 576 529 b 326 807 576 694 500 807 b 68 521 164 807 68 703 l 68 261 b 325 -12 68 85 149 -12 b 576 239 510 -12 576 90 z m 183 910 l 489 910 l 489 988 l 183 988 z "},"ę":{"ha":638,"x_min":0,"x_max":0,"o":"m 413 -244 b 586 -119 501 -244 558 -204 l 496 -119 b 417 -178 485 -156 457 -178 b 347 -119 374 -178 347 -156 b 471 17 347 -78 376 -47 l 469 18 b 576 239 546 58 576 139 l 576 268 l 478 268 l 478 232 b 326 76 478 131 428 76 b 163 264 211 76 163 140 l 163 368 l 576 368 l 576 529 b 326 807 576 694 500 807 b 68 521 164 807 68 703 l 68 261 b 321 -12 68 86 147 -11 b 267 -126 281 -51 267 -87 b 413 -244 267 -203 319 -244 z m 163 524 b 326 719 163 656 219 719 b 481 532 435 719 481 658 l 481 451 l 163 451 z "},"ğ":{"ha":618,"x_min":0,"x_max":0,"o":"m 299 914 b 486 1117 426 914 485 990 l 411 1117 b 300 985 408 1031 375 986 b 189 1117 221 986 192 1031 l 114 1117 b 299 914 117 990 161 914 z m 299 -269 b 600 -72 510 -269 600 -179 l 600 -69 b 389 94 600 31 538 94 l 246 94 b 136 149 167 93 136 111 b 285 214 136 190 174 214 l 311 214 b 554 429 458 214 554 289 l 554 586 b 404 782 554 703 488 769 l 378 786 b 543 872 507 790 543 810 l 543 896 l 436 896 l 436 889 b 299 807 436 824 408 826 b 253 799 286 806 263 801 b 72 581 138 775 72 701 l 72 428 b 188 246 72 329 110 272 b 47 124 94 231 47 188 b 189 8 47 57 93 15 b 43 -132 100 -14 43 -65 b 271 -269 43 -217 110 -269 z m 310 289 b 171 428 219 289 171 335 l 171 581 b 267 725 171 658 203 706 b 318 731 281 729 300 731 b 454 585 408 731 454 676 l 454 429 b 310 289 454 339 404 289 z m 278 -186 b 139 -107 185 -186 139 -154 l 139 -104 b 288 8 139 -43 200 0 l 375 8 b 504 -76 467 8 504 -22 l 504 -79 b 313 -186 504 -140 436 -186 z "},"ĝ":{"ha":618,"x_min":0,"x_max":0,"o":"m 390 944 l 478 944 l 340 1147 l 268 1147 l 131 944 l 218 944 l 304 1076 z m 299 -269 b 600 -72 510 -269 600 -179 l 600 -69 b 389 94 600 31 538 94 l 246 94 b 136 149 167 93 136 111 b 285 214 136 190 174 214 l 311 214 b 554 429 458 214 554 289 l 554 586 b 404 782 554 703 488 769 l 378 786 b 543 872 507 790 543 810 l 543 896 l 436 896 l 436 889 b 299 807 436 824 408 826 b 253 799 286 806 263 801 b 72 581 138 775 72 701 l 72 428 b 188 246 72 329 110 272 b 47 124 94 231 47 188 b 189 8 47 57 93 15 b 43 -132 100 -14 43 -65 b 271 -269 43 -217 110 -269 z m 310 289 b 171 428 219 289 171 335 l 171 581 b 267 725 171 658 203 706 b 318 731 281 729 300 731 b 454 585 408 731 454 676 l 454 429 b 310 289 454 339 404 289 z m 278 -186 b 139 -107 185 -186 139 -154 l 139 -104 b 288 8 139 -43 200 0 l 375 8 b 504 -76 467 8 504 -22 l 504 -79 b 313 -186 504 -140 436 -186 z "},"ģ":{"ha":618,"x_min":0,"x_max":0,"o":"m 311 904 b 376 974 354 904 376 925 b 324 1036 376 1025 357 1036 b 308 1033 318 1036 313 1035 b 371 1122 314 1079 333 1110 l 365 1175 b 246 1000 285 1156 246 1089 b 311 904 246 931 264 904 z m 299 -269 b 600 -72 510 -269 600 -179 l 600 -69 b 389 94 600 31 538 94 l 246 94 b 136 149 167 93 136 111 b 285 214 136 190 174 214 l 311 214 b 554 429 458 214 554 289 l 554 586 b 404 782 554 703 488 769 l 378 786 b 543 872 507 790 543 810 l 543 896 l 436 896 l 436 889 b 299 807 436 824 408 826 b 253 799 286 806 263 801 b 72 581 138 775 72 701 l 72 428 b 188 246 72 329 110 272 b 47 124 94 231 47 188 b 189 8 47 57 93 15 b 43 -132 100 -14 43 -65 b 271 -269 43 -217 110 -269 z m 310 289 b 171 428 219 289 171 335 l 171 581 b 267 725 171 658 203 706 b 318 731 281 729 300 731 b 454 585 408 731 454 676 l 454 429 b 310 289 454 339 404 289 z m 278 -186 b 139 -107 185 -186 139 -154 l 139 -104 b 288 8 139 -43 200 0 l 375 8 b 504 -76 467 8 504 -22 l 504 -79 b 313 -186 504 -140 436 -186 z "},"ġ":{"ha":618,"x_min":0,"x_max":0,"o":"m 318 915 b 386 992 363 915 386 938 b 319 1069 386 1047 363 1069 b 249 992 272 1069 249 1047 b 318 915 249 935 269 915 z m 299 -269 b 600 -72 510 -269 600 -179 l 600 -69 b 389 94 600 31 538 94 l 246 94 b 136 149 167 93 136 111 b 285 214 136 190 174 214 l 311 214 b 554 429 458 214 554 289 l 554 586 b 404 782 554 703 488 769 l 378 786 b 543 872 507 790 543 810 l 543 896 l 436 896 l 436 889 b 299 807 436 824 408 826 b 253 799 286 806 263 801 b 72 581 138 775 72 701 l 72 428 b 188 246 72 329 110 272 b 47 124 94 231 47 188 b 189 8 47 57 93 15 b 43 -132 100 -14 43 -65 b 271 -269 43 -217 110 -269 z m 310 289 b 171 428 219 289 171 335 l 171 581 b 267 725 171 658 203 706 b 318 731 281 729 300 731 b 454 585 408 731 454 676 l 454 429 b 310 289 454 339 404 289 z m 278 -186 b 139 -107 185 -186 139 -154 l 139 -104 b 288 8 139 -43 200 0 l 375 8 b 504 -76 467 8 504 -22 l 504 -79 b 313 -186 504 -140 436 -186 z "},"ß":{"ha":688,"x_min":0,"x_max":0,"o":"m 379 -1 b 625 254 565 -1 625 100 l 625 333 b 472 551 625 458 578 526 b 597 756 564 579 597 650 l 597 814 b 346 1047 597 963 511 1047 b 89 807 179 1047 89 958 l 89 0 l 186 0 l 186 801 b 346 957 186 906 239 957 b 503 810 447 957 503 908 l 503 753 b 344 592 503 646 450 592 l 314 592 l 314 504 l 346 504 b 524 331 464 504 524 456 l 524 263 b 365 90 524 147 472 90 b 308 94 347 90 314 92 l 308 1 b 379 -1 314 0 361 -1 z "},"ħ":{"ha":658,"x_min":0,"x_max":0,"o":"m 183 514 b 340 718 183 640 238 718 b 476 543 439 718 476 656 l 476 0 l 575 0 l 575 556 b 371 806 575 715 508 806 b 183 656 271 806 210 749 l 183 879 l 293 879 l 293 943 l 183 943 l 183 1032 l 89 1032 l 89 943 l 13 943 l 13 879 l 89 879 l 89 0 l 183 0 z "},"ĥ":{"ha":660,"x_min":0,"x_max":0,"o":"m 183 514 b 340 718 183 640 238 718 b 476 543 439 718 476 656 l 476 0 l 575 0 l 575 556 b 371 806 575 715 508 806 b 183 656 271 806 210 749 l 183 1032 l 89 1032 l 89 0 l 183 0 z m 222 1119 l 310 1119 l 172 1322 l 100 1322 l -37 1119 l 50 1119 l 136 1251 z "},"í":{"ha":275,"x_min":0,"x_max":0,"o":"m 186 0 l 186 794 l 89 794 l 89 0 z m 99 886 l 176 886 l 344 1104 l 238 1104 z "},"ĭ":{"ha":275,"x_min":0,"x_max":0,"o":"m 186 0 l 186 794 l 89 794 l 89 0 z m 136 881 b 324 1083 264 881 322 957 l 249 1083 b 138 951 246 997 213 953 b 26 1083 58 953 29 997 l -49 1083 b 136 881 -46 957 -1 881 z "},"î":{"ha":275,"x_min":0,"x_max":0,"o":"m 186 0 l 186 794 l 89 794 l 89 0 z m 222 883 l 310 883 l 172 1086 l 100 1086 l -37 883 l 50 883 l 136 1015 z "},"ï":{"ha":275,"x_min":0,"x_max":0,"o":"m 186 0 l 186 794 l 89 794 l 89 0 z m 229 883 b 289 953 268 883 289 903 b 229 1021 289 1001 269 1021 b 167 953 188 1021 167 1001 b 229 883 167 900 185 883 z m 39 883 b 101 953 82 883 101 903 b 40 1021 101 1001 82 1021 b -21 953 -1 1021 -21 1001 b 39 883 -21 900 -3 883 z "},"ì":{"ha":275,"x_min":0,"x_max":0,"o":"m 186 0 l 186 794 l 89 794 l 89 0 z m 101 883 l 179 883 l 54 1086 l -51 1086 z "},"ī":{"ha":275,"x_min":0,"x_max":0,"o":"m 186 0 l 186 794 l 89 794 l 89 0 z m -14 899 l 292 899 l 292 976 l -14 976 z "},"į":{"ha":275,"x_min":0,"x_max":0,"o":"m 140 878 b 206 954 185 878 206 899 b 140 1029 206 1010 186 1029 b 75 954 94 1029 75 1010 b 140 878 75 897 92 878 z m 301 -136 l 211 -136 b 132 -194 200 -172 172 -194 b 63 -136 89 -194 63 -172 b 186 0 63 -94 92 -64 l 186 794 l 89 794 l 89 13 b -18 -143 8 -40 -18 -90 b 128 -261 -18 -219 35 -261 b 301 -136 217 -261 274 -221 z "},"ĩ":{"ha":275,"x_min":0,"x_max":0,"o":"m 186 0 l 186 794 l 89 794 l 89 0 z m -60 886 l 11 886 b 53 961 11 940 24 961 b 228 882 106 961 144 882 b 342 1033 311 882 342 939 l 272 1033 b 226 957 272 974 258 957 b 53 1036 178 957 136 1036 b -60 886 -28 1036 -58 982 z "},"ı":{"ha":275,"x_min":0,"x_max":0,"o":"m 186 0 l 186 794 l 89 794 l 89 0 z "},"ĵ":{"ha":276,"x_min":0,"x_max":0,"o":"m -40 -243 l 3 -243 b 188 -44 151 -243 188 -200 l 188 794 l 90 794 l 90 -35 b -6 -150 90 -131 74 -150 l -40 -150 z m 225 883 l 313 883 l 175 1086 l 103 1086 l -35 883 l 53 883 l 139 1015 z "},"ȷ":{"ha":276,"x_min":0,"x_max":0,"o":"m -40 -243 l 3 -243 b 188 -44 151 -243 188 -200 l 188 794 l 90 794 l 90 -35 b -6 -150 90 -131 74 -150 l -40 -150 z "},"ķ":{"ha":615,"x_min":0,"x_max":0,"o":"m 489 0 l 594 0 l 378 503 l 579 794 l 467 794 l 190 394 l 182 374 l 183 419 l 183 1032 l 89 1032 l 89 0 l 183 0 l 183 268 l 304 443 z m 275 -331 b 394 -156 354 -311 394 -244 b 328 -61 394 -86 376 -61 b 264 -129 285 -61 264 -81 b 317 -192 264 -181 282 -192 b 332 -189 322 -192 328 -190 b 269 -278 326 -235 307 -265 z "},"ĸ":{"ha":615,"x_min":0,"x_max":0,"o":"m 489 0 l 594 0 l 378 503 l 579 794 l 467 794 l 190 394 l 182 374 l 183 419 l 183 794 l 89 794 l 89 0 l 183 0 l 183 268 l 304 443 z "},"ĺ":{"ha":275,"x_min":0,"x_max":0,"o":"m 186 0 l 186 1032 l 89 1032 l 89 0 z m 97 1119 l 175 1119 l 343 1338 l 236 1338 z "},"ľ":{"ha":275,"x_min":0,"x_max":0,"o":"m 186 0 l 186 1032 l 89 1032 l 89 0 z m 267 906 l 332 906 l 399 1111 l 313 1111 z "},"ļ":{"ha":275,"x_min":0,"x_max":0,"o":"m 186 0 l 186 1032 l 89 1032 l 89 0 z m 90 -349 b 210 -174 169 -329 210 -262 b 143 -79 210 -104 192 -79 b 79 -147 100 -79 79 -99 b 132 -210 79 -199 97 -210 b 147 -207 138 -210 143 -208 b 85 -296 142 -253 122 -283 z "},"ŀ":{"ha":393,"x_min":0,"x_max":0,"o":"m 186 0 l 186 1032 l 89 1032 l 89 0 z m 331 303 b 399 379 375 303 399 325 b 332 457 399 435 375 457 b 261 379 285 457 261 435 b 331 303 261 322 282 303 z "},"ł":{"ha":296,"x_min":0,"x_max":0,"o":"m 199 0 l 199 428 l 297 460 l 279 519 l 199 493 l 199 1032 l 101 1032 l 101 461 l 1 428 l 19 368 l 101 394 l 101 0 z "},"ń":{"ha":660,"x_min":0,"x_max":0,"o":"m 186 514 b 342 718 186 643 239 718 b 479 542 442 718 479 654 l 479 0 l 578 0 l 578 554 b 371 806 578 717 511 806 b 178 647 264 806 201 746 l 167 794 l 88 794 l 88 0 l 186 0 z m 297 892 l 375 892 l 543 1110 l 436 1110 z "},"ň":{"ha":660,"x_min":0,"x_max":0,"o":"m 186 514 b 342 718 186 643 239 718 b 479 542 442 718 479 654 l 479 0 l 578 0 l 578 554 b 371 806 578 717 511 806 b 178 647 264 806 201 746 l 167 794 l 88 794 l 88 0 l 186 0 z m 369 892 l 508 1092 l 422 1092 l 336 965 l 251 1092 l 163 1092 l 300 892 z "},"ņ":{"ha":660,"x_min":0,"x_max":0,"o":"m 186 514 b 342 718 186 643 239 718 b 479 542 442 718 479 654 l 479 0 l 578 0 l 578 554 b 371 806 578 717 511 806 b 178 647 264 806 201 746 l 167 794 l 88 794 l 88 0 l 186 0 z m 281 -332 b 400 -157 360 -312 400 -246 b 333 -62 400 -87 382 -62 b 269 -131 290 -62 269 -82 b 322 -193 269 -182 288 -193 b 338 -190 328 -193 333 -192 b 275 -279 332 -236 313 -267 z "},"ñ":{"ha":660,"x_min":0,"x_max":0,"o":"m 186 514 b 342 718 186 643 239 718 b 479 542 442 718 479 654 l 479 0 l 578 0 l 578 554 b 371 806 578 717 511 806 b 178 647 264 806 201 746 l 167 794 l 88 794 l 88 0 l 186 0 z m 144 894 l 215 894 b 257 969 215 949 228 969 b 432 890 310 969 349 890 b 546 1042 515 890 546 947 l 476 1042 b 431 965 476 982 463 965 b 257 1044 382 965 340 1044 b 144 894 176 1044 146 990 z "},"ŋ":{"ha":661,"x_min":0,"x_max":0,"o":"m 390 -243 b 578 -44 539 -243 578 -203 l 578 554 b 371 806 578 717 511 806 b 178 647 264 806 201 746 l 167 794 l 88 794 l 88 0 l 186 0 l 186 514 b 342 718 186 643 239 718 b 479 542 442 718 479 654 l 479 -35 b 383 -150 479 -131 461 -150 l 349 -150 l 349 -243 z "},"ó":{"ha":650,"x_min":0,"x_max":0,"o":"m 324 -12 b 581 263 483 -12 581 79 l 581 524 b 324 807 581 713 483 807 b 68 524 167 807 68 714 l 68 263 b 324 -12 68 78 158 -12 z m 324 76 b 168 265 218 76 168 144 l 168 522 b 324 719 168 656 222 719 b 481 522 426 719 481 654 l 481 265 b 324 76 481 143 429 76 z m 286 893 l 364 893 l 532 1111 l 425 1111 z "},"ŏ":{"ha":650,"x_min":0,"x_max":0,"o":"m 324 -12 b 581 263 483 -12 581 79 l 581 524 b 324 807 581 713 483 807 b 68 524 167 807 68 714 l 68 263 b 324 -12 68 78 158 -12 z m 324 76 b 168 265 218 76 168 144 l 168 522 b 324 719 168 656 222 719 b 481 522 426 719 481 654 l 481 265 b 324 76 481 143 429 76 z m 325 890 b 513 1093 453 890 511 967 l 438 1093 b 326 961 435 1007 401 963 b 215 1093 247 963 218 1007 l 140 1093 b 325 890 143 967 188 890 z "},"ô":{"ha":650,"x_min":0,"x_max":0,"o":"m 324 -12 b 581 263 483 -12 581 79 l 581 524 b 324 807 581 713 483 807 b 68 524 167 807 68 714 l 68 263 b 324 -12 68 78 158 -12 z m 324 76 b 168 265 218 76 168 144 l 168 522 b 324 719 168 656 222 719 b 481 522 426 719 481 654 l 481 265 b 324 76 481 143 429 76 z m 414 893 l 501 893 l 364 1096 l 292 1096 l 154 893 l 242 893 l 328 1025 z "},"ö":{"ha":650,"x_min":0,"x_max":0,"o":"m 324 -12 b 581 263 483 -12 581 79 l 581 524 b 324 807 581 713 483 807 b 68 524 167 807 68 714 l 68 263 b 324 -12 68 78 158 -12 z m 324 76 b 168 265 218 76 168 144 l 168 522 b 324 719 168 656 222 719 b 481 522 426 719 481 654 l 481 265 b 324 76 481 143 429 76 z m 422 893 b 482 963 461 893 482 913 b 422 1031 482 1011 463 1031 b 360 963 381 1031 360 1011 b 422 893 360 910 378 893 z m 232 893 b 294 963 275 893 294 913 b 233 1031 294 1011 275 1031 b 172 963 192 1031 172 1011 b 232 893 172 910 190 893 z "},"œ":{"ha":1057,"x_min":0,"x_max":0,"o":"m 324 76 b 168 265 218 76 168 144 l 168 522 b 324 719 168 656 222 719 b 481 522 426 719 481 654 l 481 265 b 324 76 481 143 429 76 z m 576 524 b 743 719 576 656 636 719 b 900 532 850 719 900 658 l 900 447 l 576 447 z m 996 233 l 996 268 l 896 268 l 896 231 b 739 76 896 131 842 76 b 576 267 628 76 576 143 l 576 365 l 996 365 l 996 529 b 749 807 996 694 917 807 b 531 676 636 807 565 761 b 319 807 499 764 431 807 b 68 524 165 807 68 714 l 68 263 b 318 -12 68 78 156 -12 b 528 108 428 -12 496 28 b 746 -12 560 31 626 -12 b 996 233 913 -12 996 83 z "},"ò":{"ha":650,"x_min":0,"x_max":0,"o":"m 324 -12 b 581 263 483 -12 581 79 l 581 524 b 324 807 581 713 483 807 b 68 524 167 807 68 714 l 68 263 b 324 -12 68 78 158 -12 z m 324 76 b 168 265 218 76 168 144 l 168 522 b 324 719 168 656 222 719 b 481 522 426 719 481 654 l 481 265 b 324 76 481 143 429 76 z m 292 894 l 369 894 l 244 1097 l 139 1097 z "},"ő":{"ha":650,"x_min":0,"x_max":0,"o":"m 324 -12 b 581 263 483 -12 581 79 l 581 524 b 324 807 581 713 483 807 b 68 524 167 807 68 714 l 68 263 b 324 -12 68 78 158 -12 z m 324 76 b 168 265 218 76 168 144 l 168 522 b 324 719 168 656 222 719 b 481 522 426 719 481 654 l 481 265 b 324 76 481 143 429 76 z m 431 1097 l 328 1097 l 207 893 l 279 893 z m 604 1097 l 500 1097 l 372 893 l 444 893 z "},"ō":{"ha":650,"x_min":0,"x_max":0,"o":"m 324 -12 b 581 263 483 -12 581 79 l 581 524 b 324 807 581 713 483 807 b 68 524 167 807 68 714 l 68 263 b 324 -12 68 78 158 -12 z m 324 76 b 168 265 218 76 168 144 l 168 522 b 324 719 168 656 222 719 b 481 522 426 719 481 654 l 481 265 b 324 76 481 143 429 76 z m 175 908 l 481 908 l 481 986 l 175 986 z "},"ø":{"ha":650,"x_min":0,"x_max":0,"o":"m 167 265 l 167 522 b 324 719 167 656 222 719 b 382 711 344 719 364 717 l 214 117 b 167 265 182 149 167 199 z m 324 76 b 272 83 304 76 288 79 l 438 674 b 482 522 467 642 482 590 l 482 265 b 324 76 482 143 429 76 z m 324 -12 b 581 263 483 -12 581 79 l 581 524 b 467 772 581 647 539 729 l 507 908 l 439 908 l 407 797 b 324 807 382 804 354 807 b 68 524 167 807 68 714 l 68 263 b 186 17 68 139 108 57 l 144 -125 l 215 -125 l 249 -6 b 324 -12 271 -10 296 -12 z "},"ǿ":{"ha":650,"x_min":0,"x_max":0,"o":"m 167 265 l 167 522 b 324 719 167 656 222 719 b 382 711 344 719 364 717 l 214 117 b 167 265 182 149 167 199 z m 324 76 b 272 83 304 76 288 79 l 438 674 b 482 522 467 642 482 590 l 482 265 b 324 76 482 143 429 76 z m 324 -12 b 581 263 483 -12 581 79 l 581 524 b 467 772 581 647 539 729 l 507 908 l 439 908 l 407 797 b 324 807 382 804 354 807 b 68 524 167 807 68 714 l 68 263 b 186 17 68 139 108 57 l 144 -125 l 215 -125 l 249 -6 b 324 -12 271 -10 296 -12 z m 288 932 l 365 932 l 533 1150 l 426 1150 z "},"õ":{"ha":650,"x_min":0,"x_max":0,"o":"m 324 -12 b 581 263 483 -12 581 79 l 581 524 b 324 807 581 713 483 807 b 68 524 167 807 68 714 l 68 263 b 324 -12 68 78 158 -12 z m 324 76 b 168 265 218 76 168 144 l 168 522 b 324 719 168 656 222 719 b 481 522 426 719 481 654 l 481 265 b 324 76 481 143 429 76 z m 125 897 l 196 897 b 238 972 196 951 208 972 b 413 893 290 972 329 893 b 526 1044 496 893 526 950 l 457 1044 b 411 968 457 985 443 968 b 238 1047 363 968 321 1047 b 125 897 157 1047 126 993 z "},"ŕ":{"ha":426,"x_min":0,"x_max":0,"o":"m 185 0 l 185 476 b 361 693 185 626 222 693 l 399 693 l 399 799 l 374 799 b 179 640 251 799 196 758 l 163 794 l 88 794 l 88 0 z m 188 874 l 265 874 l 433 1092 l 326 1092 z "},"ř":{"ha":426,"x_min":0,"x_max":0,"o":"m 185 0 l 185 476 b 361 693 185 626 222 693 l 399 693 l 399 799 l 374 799 b 179 640 251 799 196 758 l 163 794 l 88 794 l 88 0 z m 260 874 l 399 1074 l 313 1074 l 226 947 l 142 1074 l 53 1074 l 190 874 z "},"ŗ":{"ha":426,"x_min":0,"x_max":0,"o":"m 185 0 l 185 476 b 361 693 185 626 222 693 l 399 693 l 399 799 l 374 799 b 179 640 251 799 196 758 l 163 794 l 88 794 l 88 0 z m 82 -349 b 201 -174 161 -329 201 -262 b 135 -79 201 -104 183 -79 b 71 -147 92 -79 71 -99 b 124 -210 71 -199 89 -210 b 139 -207 129 -210 135 -208 b 76 -296 133 -253 114 -283 z "},"ś":{"ha":589,"x_min":0,"x_max":0,"o":"m 299 -12 b 538 207 458 -12 538 71 l 538 232 b 332 450 538 369 431 413 b 163 590 244 482 163 508 l 163 604 b 293 722 163 672 204 722 b 426 601 385 722 426 678 l 426 543 l 524 543 l 524 603 b 293 807 524 729 444 807 b 65 603 144 807 65 722 l 65 585 b 267 375 65 453 168 411 b 440 225 356 342 440 314 l 440 207 b 300 75 440 124 394 75 b 154 213 199 75 154 124 l 154 283 l 51 283 l 51 207 b 299 -12 51 63 131 -12 z m 254 894 l 332 894 l 500 1113 l 393 1113 z "},"š":{"ha":589,"x_min":0,"x_max":0,"o":"m 299 -12 b 538 207 458 -12 538 71 l 538 232 b 332 450 538 369 431 413 b 163 590 244 482 163 508 l 163 604 b 293 722 163 672 204 722 b 426 601 385 722 426 678 l 426 543 l 524 543 l 524 603 b 293 807 524 729 444 807 b 65 603 144 807 65 722 l 65 585 b 267 375 65 453 168 411 b 440 225 356 342 440 314 l 440 207 b 300 75 440 124 394 75 b 154 213 199 75 154 124 l 154 283 l 51 283 l 51 207 b 299 -12 51 63 131 -12 z m 325 894 l 464 1094 l 378 1094 l 292 968 l 207 1094 l 118 1094 l 256 894 z "},"ş":{"ha":589,"x_min":0,"x_max":0,"o":"m 314 -317 b 476 -189 414 -317 476 -271 b 342 -81 476 -122 429 -82 l 342 -10 b 538 207 472 4 538 83 l 538 232 b 332 450 538 369 431 413 b 163 590 244 482 163 508 l 163 604 b 293 722 163 672 204 722 b 426 601 385 722 426 678 l 426 543 l 524 543 l 524 603 b 293 807 524 729 444 807 b 65 603 144 807 65 722 l 65 585 b 267 375 65 453 168 411 b 440 225 356 342 440 314 l 440 207 b 300 75 440 124 394 75 b 154 213 199 75 154 124 l 154 283 l 51 283 l 51 207 b 267 -11 51 72 121 -3 l 267 -139 l 311 -139 b 396 -192 372 -139 396 -157 b 314 -251 396 -232 367 -251 b 226 -185 263 -251 232 -229 l 139 -185 b 314 -317 151 -269 199 -317 z "},"ŝ":{"ha":589,"x_min":0,"x_max":0,"o":"m 299 -12 b 538 207 458 -12 538 71 l 538 232 b 332 450 538 369 431 413 b 163 590 244 482 163 508 l 163 604 b 293 722 163 672 204 722 b 426 601 385 722 426 678 l 426 543 l 524 543 l 524 603 b 293 807 524 729 444 807 b 65 603 144 807 65 722 l 65 585 b 267 375 65 453 168 411 b 440 225 356 342 440 314 l 440 207 b 300 75 440 124 394 75 b 154 213 199 75 154 124 l 154 283 l 51 283 l 51 207 b 299 -12 51 63 131 -12 z m 381 894 l 468 894 l 331 1097 l 258 1097 l 121 894 l 208 894 l 294 1026 z "},"ș":{"ha":589,"x_min":0,"x_max":0,"o":"m 299 -12 b 538 207 458 -12 538 71 l 538 232 b 332 450 538 369 431 413 b 163 590 244 482 163 508 l 163 604 b 293 722 163 672 204 722 b 426 601 385 722 426 678 l 426 543 l 524 543 l 524 603 b 293 807 524 729 444 807 b 65 603 144 807 65 722 l 65 585 b 267 375 65 453 168 411 b 440 225 356 342 440 314 l 440 207 b 300 75 440 124 394 75 b 154 213 199 75 154 124 l 154 283 l 51 283 l 51 207 b 299 -12 51 63 131 -12 z m 244 -357 b 364 -182 324 -337 364 -271 b 297 -87 364 -112 346 -87 b 233 -156 254 -87 233 -107 b 286 -218 233 -207 251 -218 b 301 -215 292 -218 297 -217 b 239 -304 296 -261 276 -292 z "},"ŧ":{"ha":414,"x_min":0,"x_max":0,"o":"m 379 94 l 342 94 b 218 244 243 94 218 115 l 218 371 l 322 371 l 322 450 l 218 450 l 218 704 l 379 704 l 379 794 l 218 794 l 218 954 l 146 954 b 133 850 143 917 140 874 b 88 796 126 813 115 801 b 22 788 75 790 40 788 l 22 704 l 126 704 l 126 450 l 42 450 l 42 371 l 126 371 l 126 236 b 322 0 126 47 171 0 l 379 0 z "},"ť":{"ha":414,"x_min":0,"x_max":0,"o":"m 379 94 l 342 94 b 218 244 243 94 218 115 l 218 704 l 379 704 l 379 794 l 218 794 l 218 954 l 146 954 b 133 850 143 917 140 874 b 88 796 126 813 115 801 b 22 788 75 790 40 788 l 22 704 l 126 704 l 126 236 b 322 0 126 47 171 0 l 379 0 z m 299 901 l 364 901 l 431 1107 l 344 1107 z "},"ţ":{"ha":417,"x_min":0,"x_max":0,"o":"m 379 94 l 342 94 b 218 244 243 94 218 115 l 218 704 l 379 704 l 379 794 l 218 794 l 218 954 l 146 954 b 133 850 143 917 140 874 b 88 796 126 813 115 801 b 22 788 75 790 40 788 l 22 704 l 126 704 l 126 236 b 322 0 126 47 171 0 l 379 0 z m 206 -346 b 325 -171 285 -326 325 -260 b 258 -76 325 -101 307 -76 b 194 -144 215 -76 194 -96 b 247 -207 194 -196 213 -207 b 263 -204 253 -207 258 -206 b 200 -293 257 -250 238 -281 z "},"ú":{"ha":643,"x_min":0,"x_max":0,"o":"m 476 0 l 556 0 l 556 794 l 457 794 l 457 282 b 311 76 457 154 406 76 b 182 250 218 76 182 140 l 182 794 l 83 794 l 83 236 b 282 -12 83 76 146 -12 b 464 146 382 -12 442 47 z m 275 869 l 353 869 l 521 1088 l 414 1088 z "},"ŭ":{"ha":643,"x_min":0,"x_max":0,"o":"m 476 0 l 556 0 l 556 794 l 457 794 l 457 282 b 311 76 457 154 406 76 b 182 250 218 76 182 140 l 182 794 l 83 794 l 83 236 b 282 -12 83 76 146 -12 b 464 146 382 -12 442 47 z m 319 872 b 507 1075 447 872 506 949 l 432 1075 b 321 943 429 989 396 944 b 210 1075 242 944 213 989 l 135 1075 b 319 872 138 949 182 872 z "},"û":{"ha":643,"x_min":0,"x_max":0,"o":"m 476 0 l 556 0 l 556 794 l 457 794 l 457 282 b 311 76 457 154 406 76 b 182 250 218 76 182 140 l 182 794 l 83 794 l 83 236 b 282 -12 83 76 146 -12 b 464 146 382 -12 442 47 z m 404 875 l 492 875 l 354 1078 l 282 1078 l 144 875 l 232 875 l 318 1007 z "},"ü":{"ha":643,"x_min":0,"x_max":0,"o":"m 476 0 l 556 0 l 556 794 l 457 794 l 457 282 b 311 76 457 154 406 76 b 182 250 218 76 182 140 l 182 794 l 83 794 l 83 236 b 282 -12 83 76 146 -12 b 464 146 382 -12 442 47 z m 413 875 b 472 944 451 875 472 894 b 413 1013 472 993 453 1013 b 350 944 371 1013 350 993 b 413 875 350 892 368 875 z m 222 875 b 285 944 265 875 285 894 b 224 1013 285 993 265 1013 b 163 944 182 1013 163 993 b 222 875 163 892 181 875 z "},"ù":{"ha":643,"x_min":0,"x_max":0,"o":"m 476 0 l 556 0 l 556 794 l 457 794 l 457 282 b 311 76 457 154 406 76 b 182 250 218 76 182 140 l 182 794 l 83 794 l 83 236 b 282 -12 83 76 146 -12 b 464 146 382 -12 442 47 z m 282 869 l 360 869 l 235 1072 l 129 1072 z "},"ű":{"ha":643,"x_min":0,"x_max":0,"o":"m 476 0 l 556 0 l 556 794 l 457 794 l 457 282 b 311 76 457 154 406 76 b 182 250 218 76 182 140 l 182 794 l 83 794 l 83 236 b 282 -12 83 76 146 -12 b 464 146 382 -12 442 47 z m 417 1079 l 314 1079 l 193 875 l 265 875 z m 590 1079 l 486 1079 l 358 875 l 431 875 z "},"ū":{"ha":643,"x_min":0,"x_max":0,"o":"m 476 0 l 556 0 l 556 794 l 457 794 l 457 282 b 311 76 457 154 406 76 b 182 250 218 76 182 140 l 182 794 l 83 794 l 83 236 b 282 -12 83 76 146 -12 b 464 146 382 -12 442 47 z m 165 890 l 471 890 l 471 968 l 165 968 z "},"ų":{"ha":643,"x_min":0,"x_max":0,"o":"m 671 -136 l 581 -136 b 501 -194 569 -172 542 -194 b 432 -136 458 -194 432 -172 b 556 0 432 -94 461 -64 l 556 794 l 457 794 l 457 282 b 311 76 457 154 406 76 b 182 250 218 76 182 140 l 182 794 l 83 794 l 83 236 b 282 -12 83 76 146 -12 b 464 146 382 -12 442 47 l 475 24 b 351 -143 382 -35 351 -87 b 497 -261 351 -219 404 -261 b 671 -136 586 -261 643 -221 z "},"ů":{"ha":643,"x_min":0,"x_max":0,"o":"m 476 0 l 556 0 l 556 794 l 457 794 l 457 282 b 311 76 457 154 406 76 b 182 250 218 76 182 140 l 182 794 l 83 794 l 83 236 b 282 -12 83 76 146 -12 b 464 146 382 -12 442 47 z m 319 874 b 457 1007 401 874 457 924 b 319 1140 457 1092 401 1140 b 183 1007 240 1140 183 1089 b 319 874 183 922 239 874 z m 319 943 b 257 1007 279 943 257 968 b 319 1074 257 1047 282 1074 b 385 1007 358 1074 385 1047 b 319 943 385 965 354 943 z "},"ũ":{"ha":643,"x_min":0,"x_max":0,"o":"m 476 0 l 556 0 l 556 794 l 457 794 l 457 282 b 311 76 457 154 406 76 b 182 250 218 76 182 140 l 182 794 l 83 794 l 83 236 b 282 -12 83 76 146 -12 b 464 146 382 -12 442 47 z m 125 882 l 196 882 b 238 957 196 936 208 957 b 413 878 290 957 329 878 b 526 1029 496 878 526 935 l 457 1029 b 411 953 457 969 443 953 b 238 1032 363 953 321 1032 b 125 882 157 1032 126 978 z "},"ẃ":{"ha":878,"x_min":0,"x_max":0,"o":"m 421 560 l 435 678 l 447 563 l 581 0 l 674 0 l 849 794 l 754 794 l 636 219 l 621 99 l 604 222 l 465 794 l 404 794 l 257 224 l 238 104 l 226 221 l 125 794 l 29 794 l 179 0 l 275 0 z m 390 883 l 468 883 l 636 1101 l 529 1101 z "},"ŵ":{"ha":878,"x_min":0,"x_max":0,"o":"m 421 560 l 435 678 l 447 563 l 581 0 l 674 0 l 849 794 l 754 794 l 636 219 l 621 99 l 604 222 l 465 794 l 404 794 l 257 224 l 238 104 l 226 221 l 125 794 l 29 794 l 179 0 l 275 0 z m 517 883 l 604 883 l 467 1086 l 394 1086 l 257 883 l 344 883 l 431 1015 z "},"ẅ":{"ha":878,"x_min":0,"x_max":0,"o":"m 421 560 l 435 678 l 447 563 l 581 0 l 674 0 l 849 794 l 754 794 l 636 219 l 621 99 l 604 222 l 465 794 l 404 794 l 257 224 l 238 104 l 226 221 l 125 794 l 29 794 l 179 0 l 275 0 z m 525 883 b 585 953 564 883 585 903 b 525 1021 585 1001 565 1021 b 463 953 483 1021 463 1001 b 525 883 463 900 481 883 z m 335 883 b 397 953 378 883 397 903 b 336 1021 397 1001 378 1021 b 275 953 294 1021 275 1001 b 335 883 275 900 293 883 z "},"ẁ":{"ha":878,"x_min":0,"x_max":0,"o":"m 421 560 l 435 678 l 447 563 l 581 0 l 674 0 l 849 794 l 754 794 l 636 219 l 621 99 l 604 222 l 465 794 l 404 794 l 257 224 l 238 104 l 226 221 l 125 794 l 29 794 l 179 0 l 275 0 z m 394 883 l 472 883 l 347 1086 l 242 1086 z "},"ý":{"ha":590,"x_min":0,"x_max":0,"o":"m 110 -226 b 335 -42 254 -226 290 -196 l 565 794 l 465 794 l 317 210 l 303 113 l 290 206 l 131 794 l 31 794 l 256 14 l 244 -29 b 106 -135 217 -121 194 -135 l 57 -135 l 57 -226 z m 256 869 l 333 869 l 501 1088 l 394 1088 z "},"ŷ":{"ha":590,"x_min":0,"x_max":0,"o":"m 110 -226 b 335 -42 254 -226 290 -196 l 565 794 l 465 794 l 317 210 l 303 113 l 290 206 l 131 794 l 31 794 l 256 14 l 244 -29 b 106 -135 217 -121 194 -135 l 57 -135 l 57 -226 z m 383 875 l 471 875 l 333 1078 l 261 1078 l 124 875 l 211 875 l 297 1007 z "},"ÿ":{"ha":590,"x_min":0,"x_max":0,"o":"m 110 -226 b 335 -42 254 -226 290 -196 l 565 794 l 465 794 l 317 210 l 303 113 l 290 206 l 131 794 l 31 794 l 256 14 l 244 -29 b 106 -135 217 -121 194 -135 l 57 -135 l 57 -226 z m 392 875 b 451 944 431 875 451 894 b 392 1013 451 993 432 1013 b 329 944 350 1013 329 993 b 392 875 329 892 347 875 z m 201 875 b 264 944 244 875 264 894 b 203 1013 264 993 244 1013 b 142 944 161 1013 142 993 b 201 875 142 892 160 875 z "},"ỳ":{"ha":590,"x_min":0,"x_max":0,"o":"m 110 -226 b 335 -42 254 -226 290 -196 l 565 794 l 465 794 l 317 210 l 303 113 l 290 206 l 131 794 l 31 794 l 256 14 l 244 -29 b 106 -135 217 -121 194 -135 l 57 -135 l 57 -226 z m 261 868 l 339 868 l 214 1071 l 108 1071 z "},"ĳ":{"ha":546,"x_min":0,"x_max":0,"o":"m 136 879 b 201 956 182 879 201 900 b 138 1032 201 1011 182 1032 b 72 956 92 1032 72 1011 b 136 879 72 899 89 879 z m 410 879 b 475 956 454 879 475 900 b 410 1032 475 1011 456 1032 b 344 956 365 1032 344 1011 b 410 879 344 899 363 879 z m 86 0 l 186 0 l 186 796 b 136 793 183 793 143 793 b 86 796 131 793 89 793 z m 146 -235 l 272 -235 b 457 -37 421 -235 457 -192 l 457 796 b 410 793 456 793 415 793 b 361 796 403 793 364 793 l 361 -28 b 264 -142 361 -122 343 -142 l 146 -142 z "},"ź":{"ha":539,"x_min":0,"x_max":0,"o":"m 43 -1 l 497 0 l 497 90 l 156 90 l 497 713 l 497 794 l 64 794 l 64 706 l 390 706 l 43 76 z m 240 883 l 318 883 l 486 1101 l 379 1101 z "},"ž":{"ha":539,"x_min":0,"x_max":0,"o":"m 43 -1 l 497 0 l 497 90 l 156 90 l 497 713 l 497 794 l 64 794 l 64 706 l 390 706 l 43 76 z m 313 883 l 451 1083 l 365 1083 l 279 957 l 194 1083 l 106 1083 l 243 883 z "},"ż":{"ha":539,"x_min":0,"x_max":0,"o":"m 43 -1 l 497 0 l 497 90 l 156 90 l 497 713 l 497 794 l 64 794 l 64 706 l 390 706 l 43 76 z m 279 882 b 347 958 324 882 347 904 b 281 1036 347 1014 324 1036 b 210 958 233 1036 210 1014 b 279 882 210 901 231 882 z "},"þ":{"ha":671,"x_min":0,"x_max":0,"o":"m 340 76 b 182 281 235 76 182 157 l 182 507 b 346 721 182 636 236 721 b 503 507 450 721 503 654 l 503 282 b 340 76 503 146 449 76 z m 368 -12 b 603 283 514 -12 603 85 l 603 506 b 372 807 603 717 518 807 b 183 668 272 807 211 753 l 183 1032 l 89 1032 l 89 -268 l 183 -268 l 183 117 b 368 -12 211 36 269 -12 z "},"ª":{"ha":474,"x_min":0,"x_max":0,"o":"m 215 497 b 143 569 165 497 143 526 l 143 582 b 169 650 143 613 153 631 b 249 697 186 669 210 682 b 333 749 297 717 322 728 l 333 647 b 215 497 333 561 290 497 z m 343 433 l 421 433 l 422 839 b 244 1001 422 944 361 1001 b 54 835 122 1001 56 936 l 54 790 l 146 790 l 146 833 b 244 925 146 892 181 925 b 333 843 308 925 333 896 l 333 835 b 232 753 333 796 303 781 b 99 688 167 729 132 714 b 43 574 67 664 43 624 l 43 558 b 179 426 43 478 85 426 b 335 533 254 426 308 467 z "},"º":{"ha":488,"x_min":0,"x_max":0,"o":"m 243 426 b 429 615 357 426 429 496 l 429 810 b 243 1001 429 932 354 1001 b 58 810 135 1001 58 933 l 58 615 b 243 426 58 494 122 426 z m 243 508 b 149 618 179 508 149 550 l 149 807 b 243 922 149 883 183 922 b 340 808 306 922 340 879 l 340 618 b 243 508 340 550 308 508 z "},"&":{"ha":822,"x_min":0,"x_max":0,"o":"m 286 782 l 286 790 b 389 921 286 874 324 921 b 488 821 454 921 488 883 l 488 814 b 321 581 488 711 421 649 b 286 782 297 654 286 719 z m 325 72 b 144 238 213 72 144 133 l 144 243 b 276 457 144 339 196 396 b 340 324 294 413 317 368 b 479 114 386 238 432 168 b 325 72 436 88 385 72 z m 701 -10 b 786 15 742 -10 767 -4 l 786 107 b 706 76 764 85 743 76 b 610 114 676 76 644 89 b 756 579 707 225 756 394 l 756 646 l 667 646 l 667 579 b 546 172 667 417 628 267 b 418 363 504 219 461 283 b 351 501 392 411 369 458 b 574 810 483 590 574 679 l 574 821 b 389 999 574 933 504 999 b 199 788 271 999 199 918 l 199 779 b 246 536 199 706 215 624 b 47 240 135 458 47 378 l 47 229 b 325 -14 47 67 156 -14 b 543 53 410 -14 482 11 b 701 -10 594 11 647 -10 z "},"´":{"ha":568,"x_min":0,"x_max":0,"o":"m 217 886 l 294 886 l 463 1104 l 356 1104 z "},"˘":{"ha":568,"x_min":0,"x_max":0,"o":"m 281 883 b 468 1086 408 883 467 960 l 393 1086 b 282 954 390 1000 357 956 b 171 1086 203 956 174 1000 l 96 1086 b 281 883 99 960 143 883 z "},"ˇ":{"ha":568,"x_min":0,"x_max":0,"o":"m 317 886 l 456 1086 l 369 1086 l 283 960 l 199 1086 l 110 1086 l 247 886 z "},"¸":{"ha":568,"x_min":0,"x_max":0,"o":"m 282 -301 b 444 -174 382 -301 444 -256 b 310 -65 444 -107 397 -67 l 310 8 l 235 8 l 235 -124 l 279 -124 b 364 -176 340 -124 364 -142 b 282 -236 364 -217 335 -236 b 194 -169 231 -236 200 -214 l 107 -169 b 282 -301 119 -254 167 -301 z "},"ˆ":{"ha":568,"x_min":0,"x_max":0,"o":"m 369 886 l 457 886 l 319 1089 l 247 1089 l 110 886 l 197 886 l 283 1018 z "},"¨":{"ha":572,"x_min":0,"x_max":0,"o":"m 378 886 b 438 956 417 886 438 906 b 378 1024 438 1004 418 1024 b 315 956 336 1024 315 1004 b 378 886 315 903 333 886 z m 188 886 b 250 956 231 886 250 906 b 189 1024 250 1004 231 1024 b 128 956 147 1024 128 1004 b 188 886 128 903 146 886 z "},"˙":{"ha":571,"x_min":0,"x_max":0,"o":"m 275 885 b 343 961 319 885 343 907 b 276 1039 343 1017 319 1039 b 206 961 229 1039 206 1017 b 275 885 206 904 226 885 z "},"`":{"ha":568,"x_min":0,"x_max":0,"o":"m 296 886 l 374 886 l 249 1089 l 143 1089 z "},"˝":{"ha":568,"x_min":0,"x_max":0,"o":"m 329 1090 l 226 1090 l 106 886 l 178 886 z m 503 1090 l 399 1090 l 271 886 l 343 886 z "},"¯":{"ha":568,"x_min":0,"x_max":0,"o":"m 132 901 l 438 901 l 438 979 l 132 979 z "},"˛":{"ha":568,"x_min":0,"x_max":0,"o":"m 282 -261 b 456 -136 371 -261 428 -221 l 365 -136 b 286 -194 354 -172 326 -194 b 217 -136 243 -194 217 -172 b 340 0 217 -94 246 -64 l 281 36 b 136 -143 171 -26 136 -83 b 282 -261 136 -219 189 -261 z "},"˚":{"ha":568,"x_min":0,"x_max":0,"o":"m 281 889 b 418 1022 363 889 418 939 b 281 1156 418 1107 363 1156 b 144 1022 201 1156 144 1104 b 281 889 144 938 200 889 z m 281 958 b 218 1022 240 958 218 983 b 281 1089 218 1063 243 1089 b 346 1022 319 1089 346 1063 b 281 958 346 981 315 958 z "},"˜":{"ha":568,"x_min":0,"x_max":0,"o":"m 85 889 l 156 889 b 197 964 156 943 168 964 b 372 885 250 964 289 885 b 486 1036 456 885 486 942 l 417 1036 b 371 960 417 976 403 960 b 197 1039 322 960 281 1039 b 85 889 117 1039 86 985 z "},".":{"ha":339,"x_min":0,"x_max":0,"o":"m 169 -11 b 242 71 218 -11 242 11 b 171 153 242 132 219 153 b 99 72 121 153 99 133 b 169 -11 99 10 118 -11 z "},",":{"ha":339,"x_min":0,"x_max":0,"o":"m 107 -164 b 244 39 199 -137 244 -65 b 171 147 244 122 224 147 b 100 67 121 147 100 126 b 158 -8 100 6 119 -8 b 178 -4 165 -8 172 -7 b 100 -108 171 -57 143 -92 z "},":":{"ha":346,"x_min":0,"x_max":0,"o":"m 174 531 b 244 613 224 531 244 550 b 174 692 244 674 225 692 b 103 613 122 692 103 674 b 174 531 103 549 121 531 z m 174 51 b 244 132 224 51 244 69 b 174 213 244 194 225 213 b 103 132 122 213 103 194 b 174 51 103 68 121 51 z "},";":{"ha":346,"x_min":0,"x_max":0,"o":"m 174 531 b 244 613 224 531 244 550 b 174 692 244 674 225 692 b 103 613 122 692 103 674 b 174 531 103 549 121 531 z m 113 -164 b 249 39 201 -137 249 -65 b 174 147 249 122 228 147 b 104 67 125 147 104 126 b 161 -8 104 6 125 -8 b 182 -4 168 -8 175 -7 b 106 -108 175 -57 147 -92 z "},"…":{"ha":818,"x_min":0,"x_max":0,"o":"m 651 -10 b 717 69 697 -10 717 8 b 651 149 717 131 700 149 b 585 69 603 149 585 131 b 651 -10 585 8 603 -10 z m 410 -10 b 476 69 457 -10 476 8 b 410 149 476 131 458 149 b 344 69 363 149 344 131 b 410 -10 344 8 361 -10 z m 168 -10 b 235 69 215 -10 235 8 b 168 149 235 131 217 149 b 103 69 121 149 103 131 b 168 -10 103 8 119 -10 z "},"!":{"ha":356,"x_min":0,"x_max":0,"o":"m 124 988 l 124 779 b 140 222 124 568 136 251 b 176 226 147 224 163 226 b 211 222 190 226 204 224 b 228 779 215 251 228 568 l 228 988 z m 175 -11 b 247 71 224 -11 247 11 b 175 151 247 132 225 151 b 104 71 126 151 104 132 b 175 -11 104 10 124 -11 z "},"¡":{"ha":356,"x_min":0,"x_max":0,"o":"m 178 817 b 106 735 129 817 106 796 b 178 654 106 674 128 654 b 249 735 226 654 249 674 b 178 817 249 796 229 817 z m 229 -185 l 229 26 b 211 583 229 238 215 556 b 176 579 204 582 192 579 b 140 583 161 579 149 582 b 125 26 136 556 125 238 l 125 -185 z "},"?":{"ha":654,"x_min":0,"x_max":0,"o":"m 265 218 b 314 226 272 224 293 226 b 363 218 336 226 356 224 l 363 297 b 464 478 364 392 413 433 b 578 699 519 524 578 576 l 578 783 b 332 997 578 906 499 997 b 78 768 161 997 78 911 l 78 625 l 182 625 l 182 760 b 331 908 182 856 224 908 b 475 776 435 908 475 850 l 475 694 b 378 529 475 608 428 571 b 264 308 321 485 264 433 l 264 274 b 265 218 264 258 264 225 z m 315 -11 b 386 72 364 -11 386 11 b 315 153 386 132 365 153 b 244 72 267 153 244 132 b 315 -11 244 10 264 -11 z "},"¿":{"ha":654,"x_min":0,"x_max":0,"o":"m 392 586 b 343 578 385 581 364 578 b 294 586 321 578 301 581 l 294 507 b 193 326 293 413 244 371 b 79 106 138 281 79 228 l 79 21 b 325 -193 79 -101 158 -193 b 579 36 496 -193 579 -107 l 579 179 l 475 179 l 475 44 b 326 -104 475 -51 433 -104 b 182 28 222 -104 182 -46 l 182 110 b 279 275 182 196 229 233 b 393 496 336 319 393 371 l 393 531 b 392 586 393 546 393 579 z m 342 815 b 271 732 293 815 271 793 b 342 651 271 672 292 651 b 413 732 390 651 413 672 b 342 815 413 794 393 815 z "},"‽":{"ha":679,"x_min":0,"x_max":0,"o":"m 378 779 l 378 917 b 499 783 463 906 499 854 l 499 694 b 369 449 499 554 413 564 b 378 779 375 554 378 683 z m 336 225 b 372 221 351 225 367 224 l 374 288 b 594 699 376 483 594 463 l 594 790 b 340 1000 594 908 515 1000 b 81 768 165 1000 81 914 l 81 621 l 176 621 l 176 763 b 292 915 176 849 210 901 l 292 779 b 294 304 292 619 292 413 b 300 219 296 257 297 232 b 336 225 306 224 321 225 z m 338 -11 b 408 72 386 -11 408 11 b 338 153 408 132 386 153 b 267 72 288 153 267 132 b 338 -11 267 10 286 -11 z "},"⸘":{"ha":679,"x_min":0,"x_max":0,"o":"m 343 782 b 272 699 294 782 272 758 b 343 617 272 638 293 617 b 414 699 392 617 414 638 b 343 782 414 761 394 782 z m 339 -229 b 600 1 514 -229 600 -144 l 600 150 l 504 150 l 504 8 b 388 -146 504 -78 469 -132 l 388 -8 b 385 465 388 151 388 357 b 381 550 385 514 382 538 b 343 544 374 547 360 544 b 307 550 329 544 314 547 l 306 482 b 86 71 303 288 86 308 l 86 -21 b 339 -229 86 -137 165 -229 z m 181 -14 l 181 75 b 311 324 181 218 268 206 b 301 -10 304 217 301 86 l 301 -147 b 181 -14 217 -136 181 -83 z "},"‘":{"ha":318,"x_min":0,"x_max":0,"o":"m 161 708 b 225 785 207 708 225 728 b 171 856 225 843 207 856 b 153 851 164 856 158 854 b 221 953 157 908 181 939 l 214 1001 b 92 815 133 985 92 918 b 161 708 92 732 111 708 z "},"’":{"ha":318,"x_min":0,"x_max":0,"o":"m 106 707 b 228 894 186 725 228 790 b 158 1000 228 976 208 1000 b 93 925 113 1000 93 981 b 147 854 93 867 111 854 b 167 857 154 854 161 856 b 97 756 163 800 139 769 z "},"“":{"ha":524,"x_min":0,"x_max":0,"o":"m 367 708 b 431 785 413 708 431 728 b 376 856 431 843 413 856 b 358 851 369 856 364 854 b 426 953 363 908 386 939 l 419 1001 b 297 815 339 985 297 918 b 367 708 297 732 317 708 z m 161 708 b 225 785 207 708 225 728 b 171 856 225 843 207 856 b 153 851 164 856 158 854 b 221 953 157 908 181 939 l 214 1001 b 92 815 133 985 92 918 b 161 708 92 732 111 708 z "},"”":{"ha":524,"x_min":0,"x_max":0,"o":"m 104 707 b 226 894 185 725 226 790 b 157 1000 226 976 207 1000 b 93 925 111 1000 93 981 b 147 854 93 867 111 854 b 165 858 154 854 160 856 b 97 756 161 800 138 769 z m 310 707 b 432 894 390 725 432 790 b 363 1000 432 976 413 1000 b 299 925 317 1000 299 981 b 353 854 299 867 317 854 b 371 858 360 854 365 856 b 303 756 367 800 343 769 z "},"‚":{"ha":328,"x_min":0,"x_max":0,"o":"m 108 -151 b 231 36 189 -133 231 -68 b 161 142 231 118 211 142 b 96 67 115 142 96 124 b 150 -4 96 8 114 -4 b 169 0 157 -4 164 -3 b 100 -101 165 -57 142 -87 z "},"„":{"ha":525,"x_min":0,"x_max":0,"o":"m 104 -151 b 226 36 185 -133 226 -68 b 157 142 226 118 207 142 b 93 67 111 142 93 124 b 147 -4 93 8 111 -4 b 165 0 154 -4 160 -3 b 97 -101 161 -57 138 -87 z m 311 -151 b 433 36 392 -133 433 -68 b 364 142 433 118 414 142 b 300 67 318 142 300 124 b 354 -4 300 8 318 -4 b 372 0 361 -4 367 -3 b 304 -101 368 -57 344 -87 z "},"‛":{"ha":318,"x_min":0,"x_max":0,"o":"m 221 756 b 153 858 181 769 157 800 b 171 854 158 856 164 854 b 225 925 207 854 225 867 b 161 1000 225 981 207 1000 b 90 892 111 1000 90 974 b 214 707 90 788 133 725 z "},"‟":{"ha":524,"x_min":0,"x_max":0,"o":"m 219 756 b 151 858 179 769 156 800 b 169 854 157 856 163 854 b 224 925 206 854 224 867 b 160 1000 224 981 206 1000 b 89 892 110 1000 89 974 b 213 707 89 788 132 725 z m 425 756 b 357 858 385 769 361 800 b 375 854 363 856 368 854 b 429 925 411 854 429 867 b 365 1000 429 981 411 1000 b 294 892 315 1000 294 974 b 418 707 294 788 338 725 z "},"‹":{"ha":424,"x_min":0,"x_max":0,"o":"m 358 151 l 171 417 l 347 685 l 253 685 l 82 419 l 82 407 l 260 151 z "},"›":{"ha":424,"x_min":0,"x_max":0,"o":"m 164 151 l 342 407 l 342 419 l 171 685 l 76 685 l 251 415 l 65 151 z "},"«":{"ha":654,"x_min":0,"x_max":0,"o":"m 597 151 l 403 421 l 578 685 l 485 685 l 314 424 l 314 411 l 497 151 z m 358 151 l 172 418 l 346 685 l 254 685 l 83 419 l 83 408 l 260 151 z "},"»":{"ha":654,"x_min":0,"x_max":0,"o":"m 161 151 l 344 411 l 344 424 l 175 685 l 81 685 l 256 422 l 63 151 z m 399 151 l 575 408 l 575 419 l 404 685 l 313 685 l 486 419 l 300 151 z "},"/":{"ha":408,"x_min":0,"x_max":0,"o":"m 143 0 l 369 988 l 269 988 l 40 0 z "},"\\":{"ha":408,"x_min":0,"x_max":0,"o":"m 42 988 l 267 0 l 367 0 l 142 988 z "},"|":{"ha":292,"x_min":0,"x_max":0,"o":"m 194 -125 l 194 1099 l 96 1099 l 96 -125 z "},"‖":{"ha":543,"x_min":0,"x_max":0,"o":"m 446 -125 l 446 1099 l 347 1099 l 347 -125 z m 194 -125 l 194 1099 l 96 1099 l 96 -125 z "},"¦":{"ha":292,"x_min":0,"x_max":0,"o":"m 96 560 l 194 560 l 194 1099 l 96 1099 z m 96 438 l 96 -125 l 194 -125 l 194 438 z "},"•":{"ha":364,"x_min":0,"x_max":0,"o":"m 182 310 b 275 401 243 310 275 338 b 182 493 275 469 242 493 b 90 401 122 493 90 467 b 182 310 90 336 117 310 z "},"·":{"ha":340,"x_min":0,"x_max":0,"o":"m 171 336 b 243 418 219 336 243 357 b 171 500 243 479 219 500 b 99 418 121 500 99 479 b 171 336 99 357 118 336 z "},"-":{"ha":568,"x_min":0,"x_max":0,"o":"m 497 467 l 72 467 l 72 369 l 497 369 z "},"­":{"ha":568,"x_min":0,"x_max":0,"o":"m 497 467 l 72 467 l 72 369 l 497 369 z "},"–":{"ha":550,"x_min":0,"x_max":0,"o":"m 478 467 l 72 467 l 72 369 l 478 369 z "},"—":{"ha":732,"x_min":0,"x_max":0,"o":"m 661 467 l 72 467 l 72 369 l 661 369 z "},"‒":{"ha":717,"x_min":0,"x_max":0,"o":"m 644 467 l 72 467 l 72 369 l 644 369 z "},"―":{"ha":960,"x_min":0,"x_max":0,"o":"m 888 467 l 72 467 l 72 369 l 888 369 z "},"(":{"ha":440,"x_min":0,"x_max":0,"o":"m 92 179 b 392 -240 92 -108 199 -229 l 392 -144 b 194 183 267 -136 194 -40 l 194 604 b 392 935 194 831 265 922 l 392 1029 b 92 606 206 1015 92 893 z "},")":{"ha":440,"x_min":0,"x_max":0,"o":"m 49 -240 b 349 179 242 -229 349 -108 l 349 606 b 49 1029 349 893 235 1015 l 49 933 b 246 604 175 922 246 831 l 246 183 b 49 -144 246 -40 174 -136 z "},"[":{"ha":425,"x_min":0,"x_max":0,"o":"m 375 -153 l 204 -153 l 204 940 l 375 940 l 375 1026 l 106 1026 l 106 -239 l 375 -239 z "},"]":{"ha":425,"x_min":0,"x_max":0,"o":"m 321 -239 l 321 1026 l 50 1026 l 50 939 l 222 939 l 222 -153 l 50 -153 l 50 -239 z "},"{":{"ha":439,"x_min":0,"x_max":0,"o":"m 390 -239 l 390 -157 l 339 -157 b 219 -49 249 -157 219 -118 b 283 268 219 35 283 179 b 161 407 283 354 242 407 l 161 410 b 282 540 243 411 282 457 b 222 838 282 629 222 754 b 340 946 222 907 250 946 l 390 946 l 390 1028 l 300 1028 b 121 858 163 1028 121 958 b 182 551 121 757 182 631 b 89 456 182 485 153 456 l 43 456 l 43 361 l 92 361 b 186 257 153 361 186 331 b 118 -71 186 179 118 32 b 297 -239 118 -171 161 -239 z "},"}":{"ha":439,"x_min":0,"x_max":0,"o":"m 50 -239 l 142 -239 b 322 -71 278 -239 322 -171 b 253 257 322 32 253 179 b 347 361 253 331 286 361 l 397 361 l 397 456 l 350 456 b 257 551 286 456 257 485 b 318 858 257 631 318 757 b 139 1028 318 958 278 1028 l 50 1028 l 50 946 l 99 946 b 218 838 189 946 218 907 b 158 540 218 754 158 629 b 279 410 158 457 196 411 l 279 407 b 156 268 197 407 156 354 b 219 -49 156 179 219 35 b 101 -157 219 -118 192 -157 l 50 -157 z "},"〈":{"ha":415,"x_min":0,"x_max":0,"o":"m 382 -243 l 171 393 l 376 1022 l 272 1022 l 67 392 l 276 -243 z "},"〉":{"ha":415,"x_min":0,"x_max":0,"o":"m 140 -243 l 350 392 l 144 1022 l 40 1022 l 244 393 l 33 -243 z "},"*":{"ha":489,"x_min":0,"x_max":0,"o":"m 386 706 l 426 778 l 261 836 l 426 893 l 385 965 l 254 851 l 288 1022 l 203 1022 l 236 853 l 104 964 l 63 892 l 228 835 l 63 778 l 104 707 l 236 821 l 203 649 l 288 649 l 256 819 z "},"†":{"ha":549,"x_min":0,"x_max":0,"o":"m 485 660 l 485 757 l 322 757 l 322 1044 l 225 1044 l 225 757 l 64 757 l 64 660 l 225 660 l 225 -57 l 322 -57 l 322 660 z "},"‡":{"ha":549,"x_min":0,"x_max":0,"o":"m 485 258 l 485 356 l 322 356 l 322 661 l 485 661 l 485 758 l 322 758 l 322 1044 l 225 1044 l 225 758 l 64 758 l 64 661 l 225 661 l 225 356 l 64 356 l 64 258 l 225 258 l 225 -57 l 322 -57 l 322 258 z "},"§":{"ha":614,"x_min":0,"x_max":0,"o":"m 308 425 b 114 572 167 481 114 506 l 114 576 b 149 651 115 604 129 633 b 299 582 188 625 239 604 b 497 436 431 535 497 506 l 497 431 b 469 356 496 401 485 375 b 308 425 428 382 374 400 z m 308 -12 b 547 197 468 -12 547 61 l 547 207 b 494 338 547 269 528 308 b 585 456 540 351 585 399 l 585 464 b 364 657 585 575 488 611 b 172 800 240 704 172 721 l 172 804 b 303 914 172 872 214 914 b 436 801 394 914 436 878 l 436 742 l 533 742 l 533 803 b 303 999 533 929 454 999 b 75 803 154 999 75 922 l 75 797 b 128 668 75 739 94 699 b 26 550 75 656 26 604 l 26 543 b 244 350 26 435 111 401 b 450 201 376 299 450 281 l 450 197 b 310 75 450 114 404 75 b 164 207 208 75 164 118 l 164 268 l 61 268 l 61 201 b 308 -12 61 57 140 -12 z "},"¶":{"ha":772,"x_min":0,"x_max":0,"o":"m 474 0 l 474 903 l 585 903 l 585 0 l 679 0 l 679 988 l 342 988 b 54 704 153 988 54 879 l 54 699 b 339 417 54 521 154 415 l 379 417 l 379 0 z m 340 503 b 154 699 222 501 154 571 l 154 704 b 342 903 154 831 218 903 l 379 903 l 379 503 z "},"^":{"ha":592,"x_min":0,"x_max":0,"o":"m 404 642 l 494 642 l 331 988 l 257 988 l 96 642 l 188 642 l 294 896 z "},"~":{"ha":588,"x_min":0,"x_max":0,"o":"m 83 754 l 156 754 b 201 839 156 813 169 839 b 382 749 254 839 292 749 b 500 910 468 749 500 811 l 428 910 b 379 825 428 846 413 825 b 200 915 326 825 286 915 b 83 754 117 915 83 854 z "},"_":{"ha":624,"x_min":0,"x_max":0,"o":"m 574 -72 l 50 -72 l 50 -168 l 574 -168 z "},"'":{"ha":231,"x_min":0,"x_max":0,"o":"m 86 663 l 143 663 b 160 932 151 710 160 833 l 160 988 l 71 988 l 71 932 b 86 663 71 833 78 710 z "},"\"":{"ha":403,"x_min":0,"x_max":0,"o":"m 258 663 l 315 663 b 333 935 324 710 333 836 l 333 988 l 243 988 l 243 935 b 258 663 243 838 250 710 z m 86 663 l 143 663 b 160 935 151 710 160 836 l 160 988 l 71 988 l 71 935 b 86 663 71 838 78 710 z "},"‴":{"ha":576,"x_min":0,"x_max":0,"o":"m 415 988 l 415 935 b 431 663 415 838 422 710 l 489 663 b 506 935 497 710 506 836 l 506 988 z m 243 988 l 243 935 b 258 663 243 838 250 710 l 317 663 b 333 935 325 710 333 836 l 333 988 z m 71 988 l 71 935 b 86 663 71 838 78 710 l 144 663 b 160 935 153 710 160 836 l 160 988 z "},"@":{"ha":906,"x_min":0,"x_max":0,"o":"m 453 -168 b 750 -28 586 -168 686 -119 l 661 3 b 456 -87 615 -57 554 -87 b 156 233 267 -87 156 14 l 156 556 b 457 881 156 765 275 881 b 750 578 657 881 750 756 l 750 281 b 682 126 750 172 729 126 b 619 218 638 126 619 154 l 619 740 l 565 740 l 553 657 b 431 747 536 713 499 747 b 276 542 336 747 276 682 l 276 246 b 431 46 276 114 325 46 b 554 138 497 46 538 79 b 679 53 572 83 615 53 b 832 279 779 53 832 126 l 832 582 b 458 963 832 804 701 963 b 74 560 232 963 74 817 l 74 228 b 453 -168 74 -46 225 -168 z m 447 119 b 360 251 385 119 360 160 l 360 536 b 450 676 360 635 390 676 b 538 532 515 676 538 632 l 538 254 b 447 119 538 161 510 119 z "},"©":{"ha":883,"x_min":0,"x_max":0,"o":"m 444 -14 b 813 357 656 -14 813 115 l 813 626 b 440 997 813 863 653 997 b 71 618 225 997 71 857 l 71 354 b 444 -14 71 106 225 -14 z m 444 61 b 146 358 263 61 146 164 l 146 614 b 440 924 146 811 263 924 b 738 621 617 924 738 815 l 738 361 b 444 61 738 164 622 61 z m 446 168 b 626 361 554 168 626 231 l 626 438 l 549 438 l 549 363 b 447 240 549 278 515 240 b 340 372 375 240 340 282 l 340 614 b 447 750 340 708 376 750 b 549 633 514 750 549 714 l 549 572 l 626 572 l 626 635 b 447 821 626 757 560 821 b 265 615 332 821 265 751 l 265 371 b 446 168 265 233 326 168 z "},"®":{"ha":583,"x_min":0,"x_max":0,"o":"m 294 526 b 522 754 422 526 522 610 l 522 774 b 290 1004 522 917 421 1004 b 61 772 160 1004 61 915 l 61 753 b 294 526 61 601 158 526 z m 294 581 b 118 758 189 581 118 642 l 118 768 b 290 950 118 883 190 950 b 467 769 393 950 467 886 l 467 758 b 294 581 467 640 396 581 z m 294 846 b 344 814 329 846 344 839 b 293 775 344 788 329 775 l 254 775 l 254 846 z m 293 731 b 336 692 331 731 336 721 l 336 660 b 340 646 336 654 338 649 l 393 646 b 389 658 390 649 389 653 l 389 692 b 350 753 389 729 378 746 b 396 815 379 763 396 782 b 300 890 396 860 369 890 l 203 890 l 203 646 l 254 646 l 254 731 z "},"℗":{"ha":883,"x_min":0,"x_max":0,"o":"m 444 -14 b 813 357 656 -14 813 115 l 813 626 b 440 997 813 863 653 997 b 71 618 225 997 71 857 l 71 354 b 444 -14 71 106 225 -14 z m 444 61 b 146 358 263 61 146 164 l 146 614 b 440 924 146 811 263 924 b 738 621 617 924 738 815 l 738 361 b 444 61 738 164 622 61 z m 449 743 b 544 653 519 743 544 714 l 544 536 b 450 442 544 472 515 442 l 375 442 l 375 743 z m 456 374 b 618 533 568 374 618 435 l 618 660 b 451 810 618 758 567 810 l 303 810 l 303 175 l 375 175 l 375 374 z "},"™":{"ha":688,"x_min":0,"x_max":0,"o":"m 261 929 l 261 988 l 36 988 l 36 929 l 117 929 l 117 565 l 178 565 l 178 929 z m 371 789 l 361 907 l 381 839 l 456 674 l 468 674 l 542 839 l 561 907 l 551 789 l 551 565 l 610 565 l 610 988 l 554 988 l 461 771 l 368 988 l 314 988 l 314 565 l 371 565 z "},"℠":{"ha":708,"x_min":0,"x_max":0,"o":"m 400 790 l 394 888 l 404 850 l 485 653 l 497 653 l 576 850 l 586 888 l 581 790 l 581 565 l 640 565 l 640 988 l 585 988 l 490 758 l 396 988 l 342 988 l 342 565 l 400 565 z m 161 560 b 278 665 239 560 278 604 l 278 685 b 185 804 278 756 231 782 b 106 882 144 824 106 840 l 106 890 b 157 943 106 924 124 943 b 211 892 194 943 211 926 l 211 853 l 272 853 l 272 896 b 157 994 272 956 238 994 b 43 893 86 994 43 951 l 43 879 b 139 763 43 808 93 785 b 218 681 179 744 218 726 l 218 665 b 161 614 218 636 200 614 b 100 672 115 614 100 635 l 100 718 l 36 718 l 36 669 b 161 560 36 599 75 560 z "},"€":{"ha":710,"x_min":0,"x_max":0,"o":"m 671 274 l 671 299 l 565 299 l 565 279 b 406 79 565 136 521 79 b 228 297 282 79 228 150 l 228 360 l 438 360 l 465 435 l 228 435 l 228 561 l 507 561 l 536 635 l 228 635 l 228 686 b 403 910 228 831 276 910 b 563 726 522 910 563 843 l 563 714 l 665 714 l 665 731 b 403 999 665 890 589 999 b 128 689 224 999 128 892 l 128 635 l 36 635 l 36 561 l 128 561 l 128 435 l 36 435 l 36 360 l 128 360 l 128 292 b 407 -14 128 79 225 -14 b 671 274 581 -14 671 82 z "},"$":{"ha":638,"x_min":0,"x_max":0,"o":"m 372 -164 l 372 -10 b 579 229 507 8 579 104 l 579 279 b 360 540 579 438 467 492 b 168 732 263 585 168 624 l 168 761 b 315 913 168 849 217 913 b 464 765 414 913 464 861 l 464 672 l 563 672 l 563 771 b 376 993 563 890 503 974 l 376 1153 l 283 1153 l 283 996 b 69 763 140 983 69 888 l 69 728 b 286 472 69 572 181 519 b 481 272 386 428 481 388 l 481 229 b 325 78 481 143 433 78 b 157 242 208 78 157 139 l 157 354 l 54 354 l 54 240 b 278 -11 54 90 119 3 l 278 -164 z "},"¢":{"ha":636,"x_min":0,"x_max":0,"o":"m 576 249 l 576 321 l 472 321 l 472 251 b 322 76 472 131 426 76 b 168 268 217 76 168 142 l 168 521 b 325 719 168 657 219 719 b 472 546 425 719 472 674 l 472 492 l 576 492 l 576 549 b 378 804 576 708 503 788 l 378 965 l 283 965 l 283 804 b 68 524 146 789 68 697 l 68 265 b 282 -11 68 97 138 3 l 282 -186 l 376 -186 l 376 -8 b 576 249 504 8 576 93 z "},"£":{"ha":715,"x_min":0,"x_max":0,"o":"m 163 49 b 101 96 122 49 101 67 b 154 142 101 122 117 142 b 250 101 185 142 217 125 b 163 49 231 67 200 49 z m 499 -18 b 667 204 622 -18 667 43 l 667 263 l 564 263 l 564 218 b 478 71 564 106 540 71 b 335 131 429 71 382 99 b 347 217 343 157 347 186 b 321 408 347 285 336 347 l 482 408 l 482 488 l 300 488 b 242 781 271 585 242 676 b 360 917 242 867 285 917 b 479 783 444 917 479 871 l 479 735 l 585 736 l 585 783 b 365 1006 585 929 508 1006 b 140 779 222 1006 140 918 b 206 488 140 667 174 576 l 83 488 l 83 408 l 233 408 b 274 211 257 343 274 279 b 271 171 274 197 272 183 b 151 210 233 193 193 210 b 24 93 74 210 24 163 b 157 -19 24 24 65 -19 b 303 63 218 -19 269 13 b 499 -18 360 22 422 -18 z "},"ƒ":{"ha":419,"x_min":0,"x_max":0,"o":"m 253 40 l 253 465 l 392 465 l 392 553 l 253 553 l 253 854 b 356 993 253 971 271 993 l 392 993 l 392 1079 l 344 1079 b 157 864 207 1079 157 1028 l 157 553 l 26 553 l 26 465 l 157 465 l 157 51 b 57 -75 157 -56 139 -75 l 11 -75 l 11 -167 l 67 -167 b 253 40 215 -167 253 -122 z "},"¥":{"ha":600,"x_min":0,"x_max":0,"o":"m 521 169 l 521 249 l 344 249 l 344 354 l 521 354 l 521 433 l 346 433 l 578 988 l 474 988 l 310 564 l 296 500 l 283 564 l 125 988 l 21 988 l 244 433 l 81 433 l 81 354 l 246 354 l 246 249 l 79 249 l 79 169 l 246 169 l 246 0 l 344 0 l 344 169 z "},"₡":{"ha":717,"x_min":0,"x_max":0,"o":"m 332 76 b 267 94 307 79 285 86 l 394 914 b 461 899 419 913 442 907 z m 169 306 l 169 672 b 335 914 169 818 224 900 l 213 136 b 169 306 182 175 169 232 z m 290 -160 l 353 -160 l 375 -15 b 661 282 571 -15 661 94 l 661 386 l 563 386 l 563 285 b 392 75 563 154 511 83 l 515 861 b 563 711 547 825 563 775 l 563 626 l 658 626 l 658 714 b 532 964 658 835 614 919 l 564 1139 l 503 1139 l 476 986 b 408 999 456 993 432 996 l 429 1139 l 369 1139 l 349 1000 b 74 678 169 990 74 874 l 74 300 b 194 28 74 169 115 78 l 158 -160 l 219 -160 l 249 3 b 315 -12 269 -4 292 -10 z "},"₢":{"ha":714,"x_min":0,"x_max":0,"o":"m 649 276 l 649 375 l 551 375 l 551 279 b 404 76 551 157 508 89 l 404 303 b 543 474 404 440 425 474 l 597 474 l 597 571 l 556 571 b 399 450 467 571 417 533 l 386 568 l 315 568 l 315 78 b 172 303 215 94 172 168 l 172 678 b 364 913 172 829 236 913 b 547 714 490 913 547 840 l 547 661 l 646 661 l 646 717 b 364 1000 646 903 547 1000 b 74 683 178 1000 74 886 l 74 297 b 363 -15 74 90 167 -15 b 649 276 560 -15 649 96 z "},"₣":{"ha":564,"x_min":0,"x_max":0,"o":"m 486 279 l 486 369 l 192 369 l 192 504 l 486 504 l 486 596 l 192 596 l 192 896 l 518 896 l 518 988 l 96 988 l 96 0 l 192 0 l 192 279 z "},"₤":{"ha":719,"x_min":0,"x_max":0,"o":"m 163 49 b 101 96 122 49 101 67 b 154 142 101 122 117 142 b 257 96 188 142 221 122 b 163 49 238 63 206 49 z m 499 -18 b 667 204 622 -18 667 43 l 667 263 l 564 263 l 564 218 b 478 71 564 106 540 71 b 338 128 431 71 385 99 b 346 203 343 151 346 176 b 332 339 346 250 340 294 l 485 339 l 485 407 l 318 407 b 294 494 311 436 303 465 l 485 494 l 485 564 l 276 564 b 242 781 257 636 242 707 b 360 917 242 867 282 917 b 479 783 444 917 479 871 l 479 735 l 585 736 l 585 783 b 364 1006 585 929 506 1006 b 140 779 218 1006 140 918 b 181 564 140 706 158 633 l 75 564 l 75 494 l 204 494 b 236 407 215 465 226 436 l 75 407 l 75 339 l 257 339 b 278 199 269 292 278 246 b 276 168 278 188 278 178 b 151 210 236 192 196 210 b 24 93 74 210 24 163 b 157 -19 24 24 65 -19 b 308 58 222 -19 275 8 b 499 -18 363 19 425 -18 z "},"₦":{"ha":803,"x_min":0,"x_max":0,"o":"m 213 690 l 201 867 l 236 764 l 303 617 l 213 617 z m 375 456 l 213 456 l 213 547 l 333 547 z m 589 456 l 464 456 l 422 547 l 589 547 z m 579 0 l 679 0 l 679 388 l 789 388 l 789 456 l 679 456 l 679 547 l 789 547 l 789 617 l 679 617 l 679 988 l 589 988 l 589 617 l 392 617 l 225 988 l 122 988 l 122 617 l 14 617 l 14 547 l 122 547 l 122 456 l 14 456 l 14 388 l 122 388 l 122 0 l 213 0 l 213 388 l 406 388 z m 561 239 l 494 388 l 589 388 l 589 308 l 599 129 z "},"₧":{"ha":1558,"x_min":0,"x_max":0,"o":"m 321 899 b 489 735 438 899 489 846 l 489 578 b 324 408 489 469 435 407 l 192 408 l 192 899 z m 328 319 b 588 576 507 319 588 419 l 588 704 l 722 704 l 722 310 b 1050 0 722 83 774 0 l 1213 0 b 1507 218 1436 0 1507 79 l 1507 235 b 1319 444 1507 364 1413 410 b 1132 592 1225 481 1132 506 l 1132 604 b 1263 722 1132 672 1174 722 b 1396 601 1354 722 1396 678 l 1396 543 l 1493 543 l 1493 603 b 1263 807 1493 729 1414 807 b 1035 603 1114 807 1035 722 l 1035 588 b 1222 382 1035 461 1129 418 b 1410 228 1317 347 1410 321 l 1410 224 b 1208 89 1410 136 1372 89 l 1063 89 b 814 322 853 89 814 142 l 814 704 l 972 704 l 972 794 l 814 794 l 814 969 l 742 969 b 731 850 739 933 736 874 b 683 796 722 813 713 801 b 585 788 672 790 611 788 b 324 988 568 922 486 988 l 96 988 l 96 0 l 192 0 l 192 319 z "},"₨":{"ha":1244,"x_min":0,"x_max":0,"o":"m 922 -14 b 1182 217 1097 -14 1182 79 l 1182 229 b 807 592 1182 488 807 418 l 807 604 b 938 722 807 672 849 722 b 1071 601 1029 722 1071 678 l 1071 543 l 1168 543 l 1168 603 b 938 807 1168 729 1089 807 b 710 603 789 807 710 722 l 710 588 b 1085 224 710 335 1085 408 l 1085 214 b 918 75 1085 129 1033 75 l 896 75 b 664 238 788 75 729 118 l 619 321 b 467 461 579 394 536 440 b 599 654 553 488 599 549 l 599 765 b 339 988 599 910 522 988 l 96 988 l 96 0 l 193 0 l 193 415 l 314 415 b 544 268 433 415 493 367 l 588 186 b 893 -14 663 47 731 -14 z m 336 900 b 499 757 451 900 499 854 l 499 658 b 338 503 499 554 446 503 l 193 503 l 193 900 z "},"₩":{"ha":994,"x_min":0,"x_max":0,"o":"m 481 751 l 494 881 l 508 753 l 535 624 l 451 624 z m 344 463 l 239 463 l 226 554 l 364 554 z m 568 463 l 415 463 l 436 554 l 550 554 z m 750 463 l 639 463 l 619 554 l 765 554 z m 268 265 l 250 393 l 329 393 l 297 253 l 275 96 z m 664 0 l 754 0 l 825 393 l 981 393 l 981 463 l 838 463 l 854 554 l 981 554 l 981 624 l 867 624 l 932 988 l 839 988 l 778 624 l 606 624 l 529 988 l 461 988 l 381 624 l 215 624 l 163 988 l 68 988 l 125 624 l 14 624 l 14 554 l 136 554 l 150 463 l 14 463 l 14 393 l 161 393 l 222 0 l 311 0 l 400 393 l 583 393 z m 683 253 l 654 393 l 739 393 l 717 265 l 703 86 z "},"₪":{"ha":922,"x_min":0,"x_max":0,"o":"m 329 901 b 525 686 469 901 525 832 l 525 210 b 618 328 599 210 618 236 l 618 690 b 335 988 618 890 528 988 l 96 988 l 96 0 l 188 0 l 188 901 z m 553 0 b 833 307 739 0 833 108 l 833 989 l 740 989 l 740 311 b 549 86 740 154 669 86 l 403 86 l 403 664 b 310 782 403 760 389 782 l 310 0 z "},"₮":{"ha":547,"x_min":0,"x_max":0,"o":"m 458 447 l 458 515 l 321 454 l 321 556 l 458 617 l 458 685 l 321 624 l 321 896 l 514 896 l 514 988 l 33 988 l 33 896 l 222 896 l 222 581 l 94 524 l 94 456 l 222 513 l 222 411 l 94 354 l 94 286 l 222 343 l 222 0 l 321 0 l 321 386 z "},"₱":{"ha":692,"x_min":0,"x_max":0,"o":"m 314 899 b 488 756 428 899 481 853 l 210 756 l 210 899 z m 488 583 l 210 583 l 210 689 l 488 689 z m 317 369 l 210 369 l 210 518 l 486 518 b 317 369 479 424 425 368 z m 321 281 b 585 518 497 281 578 372 l 674 518 l 674 583 l 585 583 l 585 689 l 674 689 l 674 756 l 585 756 b 317 988 578 913 497 988 l 113 988 l 113 756 l 19 756 l 19 689 l 113 689 l 113 583 l 19 583 l 19 518 l 113 518 l 113 0 l 210 0 l 210 281 z "},"฿":{"ha":701,"x_min":0,"x_max":0,"o":"m 193 550 l 193 901 l 322 901 l 322 550 z m 532 765 l 532 706 b 397 551 532 606 494 557 l 397 901 b 532 765 494 896 532 849 z m 193 89 l 193 464 l 322 464 l 322 89 z m 542 315 l 542 239 b 397 89 542 136 507 92 l 397 464 b 542 315 501 458 542 408 z m 400 0 b 643 233 583 0 643 88 l 643 321 b 504 508 643 421 601 483 b 629 704 592 536 629 600 l 629 774 b 397 988 629 903 571 982 l 397 1117 l 322 1117 l 322 988 l 96 988 l 96 0 l 322 0 l 322 -133 l 397 -133 l 397 0 z "},"#":{"ha":910,"x_min":0,"x_max":0,"o":"m 532 393 l 342 393 l 375 625 l 565 625 z m 478 0 l 572 0 l 615 308 l 815 308 l 815 393 l 626 393 l 658 625 l 853 625 l 853 710 l 669 710 l 708 988 l 615 988 l 576 710 l 386 710 l 425 988 l 331 988 l 292 710 l 96 710 l 96 625 l 281 625 l 247 393 l 57 393 l 57 308 l 236 308 l 193 0 l 288 0 l 331 308 l 521 308 z "},"⁰":{"ha":382,"x_min":0,"x_max":0,"o":"m 190 490 b 333 644 281 490 333 540 l 333 842 b 192 994 333 944 279 994 b 49 842 101 994 49 943 l 49 644 b 190 490 49 540 99 490 z m 190 560 b 124 646 144 560 124 588 l 124 840 b 192 928 124 899 146 928 b 260 840 238 928 260 899 l 260 646 b 190 560 260 588 236 560 z "},"¹":{"ha":286,"x_min":0,"x_max":0,"o":"m 256 499 l 256 567 l 179 567 l 179 988 l 122 988 b 46 910 115 936 96 911 l 46 851 l 113 851 l 113 567 l 35 567 l 35 499 z "},"²":{"ha":358,"x_min":0,"x_max":0,"o":"m 318 499 l 318 568 l 124 568 b 314 844 139 674 314 704 l 314 872 b 182 994 314 947 272 994 b 47 867 96 994 47 946 l 47 797 l 121 797 l 121 864 b 181 932 121 907 136 932 b 242 869 225 932 242 910 l 242 847 b 44 550 242 735 44 707 l 44 499 z "},"³":{"ha":365,"x_min":0,"x_max":0,"o":"m 182 490 b 321 611 272 490 321 536 l 321 657 b 256 751 321 707 301 739 b 314 846 299 767 314 801 l 314 875 b 181 994 314 950 272 994 b 47 869 93 994 47 949 l 47 825 l 119 825 l 119 869 b 182 932 119 910 138 932 b 243 869 226 932 243 911 l 243 843 b 185 781 243 801 232 781 l 142 781 l 142 717 l 185 717 b 247 656 229 717 247 699 l 247 617 b 181 557 247 575 228 557 b 115 617 133 557 115 578 l 115 674 l 40 674 l 40 613 b 182 490 40 532 86 490 z "},"⁴":{"ha":360,"x_min":0,"x_max":0,"o":"m 207 853 l 224 899 l 218 842 l 218 663 l 100 663 z m 339 604 l 339 663 l 281 663 l 281 988 l 217 988 l 28 657 l 28 604 l 218 604 l 218 499 l 281 499 l 281 604 z "},"⁵":{"ha":368,"x_min":0,"x_max":0,"o":"m 186 490 b 326 625 279 490 326 539 l 326 714 b 217 835 326 793 286 835 b 119 783 167 835 138 814 b 136 919 124 819 131 878 l 240 919 b 307 983 292 919 307 936 l 307 988 l 78 988 l 54 732 l 115 717 l 121 729 b 193 776 136 757 157 776 b 257 708 233 776 257 760 l 257 626 b 188 557 257 581 235 557 b 122 618 143 557 122 576 l 122 663 l 47 663 l 47 615 b 186 490 47 535 89 490 z "},"⁶":{"ha":378,"x_min":0,"x_max":0,"o":"m 332 629 l 332 682 b 217 797 332 760 290 797 b 118 743 169 797 136 778 l 118 840 b 188 932 118 907 142 932 b 251 860 233 932 251 908 l 251 839 l 325 839 l 325 860 b 188 994 325 949 278 994 b 49 840 96 994 49 940 l 49 647 b 193 490 49 544 86 490 b 332 629 285 490 332 546 z m 193 556 b 118 642 142 556 118 581 l 118 686 b 193 743 126 719 150 743 b 263 678 239 743 263 722 l 263 631 b 193 556 263 583 242 556 z "},"⁷":{"ha":315,"x_min":0,"x_max":0,"o":"m 150 499 b 288 929 172 653 225 808 l 288 988 l 28 988 l 28 918 l 215 918 b 71 499 161 814 97 657 z "},"⁸":{"ha":375,"x_min":0,"x_max":0,"o":"m 186 490 b 331 614 279 490 331 533 l 331 651 b 260 751 331 707 301 739 b 324 844 299 763 324 793 l 324 875 b 189 994 324 951 274 994 b 54 875 103 994 54 950 l 54 844 b 115 751 54 793 78 763 b 44 651 74 739 44 704 l 44 614 b 186 490 44 532 89 490 z m 193 778 l 181 778 b 122 839 143 778 122 800 l 122 869 b 189 935 122 911 144 935 b 254 871 233 935 254 913 l 254 839 b 193 778 254 799 232 778 z m 186 554 b 115 619 138 554 115 576 l 115 657 b 181 722 115 696 138 722 l 193 722 b 260 657 238 722 260 700 l 260 619 b 186 554 260 576 235 554 z "},"⁹":{"ha":372,"x_min":0,"x_max":0,"o":"m 182 749 b 113 815 136 749 113 771 l 113 856 b 183 932 113 903 135 932 b 258 843 235 932 258 904 l 258 826 b 182 749 257 782 233 749 z m 188 490 b 328 644 283 490 328 547 l 328 838 b 183 994 328 939 285 994 b 43 856 89 994 43 939 l 43 811 b 161 694 43 733 89 694 b 258 753 213 694 242 717 l 258 644 b 189 554 258 581 235 554 b 122 626 143 554 122 575 l 122 653 l 47 653 l 47 624 b 188 490 47 531 94 489 z "},"⁺":{"ha":372,"x_min":0,"x_max":0,"o":"m 311 710 l 311 769 l 215 769 l 215 863 l 153 863 l 153 769 l 58 769 l 58 710 l 153 710 l 153 611 l 215 611 l 215 710 z "},"⁻":{"ha":372,"x_min":0,"x_max":0,"o":"m 311 707 l 311 772 l 58 772 l 58 707 z "},"⁼":{"ha":372,"x_min":0,"x_max":0,"o":"m 308 774 l 308 836 l 61 836 l 61 774 z m 308 638 l 308 700 l 61 700 l 61 638 z "},"⁽":{"ha":264,"x_min":0,"x_max":0,"o":"m 60 615 b 243 374 60 450 126 379 l 243 447 b 131 619 172 451 131 499 l 131 854 b 243 1033 131 976 169 1028 l 243 1103 b 60 857 128 1096 60 1017 z "},"⁾":{"ha":264,"x_min":0,"x_max":0,"o":"m 22 374 b 204 615 139 379 204 450 l 204 857 b 22 1103 204 1017 138 1096 l 22 1032 b 135 854 94 1026 135 976 l 135 619 b 22 446 135 499 92 451 z "},"₀":{"ha":382,"x_min":0,"x_max":0,"o":"m 190 -8 b 333 146 281 -8 333 42 l 333 343 b 192 496 333 446 279 496 b 49 343 101 496 49 444 l 49 146 b 190 -8 49 42 99 -8 z m 190 61 b 124 147 144 61 124 89 l 124 342 b 192 429 124 400 146 429 b 260 342 238 429 260 400 l 260 147 b 190 61 260 89 236 61 z "},"₁":{"ha":286,"x_min":0,"x_max":0,"o":"m 256 0 l 256 68 l 179 68 l 179 489 l 122 489 b 46 411 115 438 96 413 l 46 353 l 113 353 l 113 68 l 35 68 l 35 0 z "},"₂":{"ha":358,"x_min":0,"x_max":0,"o":"m 318 0 l 318 69 l 124 69 b 314 346 139 175 314 206 l 314 374 b 182 496 314 449 272 496 b 47 368 96 496 47 447 l 47 299 l 121 299 l 121 365 b 181 433 121 408 136 433 b 242 371 225 433 242 411 l 242 349 b 44 51 242 236 44 208 l 44 0 z "},"₃":{"ha":365,"x_min":0,"x_max":0,"o":"m 182 -8 b 321 113 272 -8 321 38 l 321 158 b 256 253 321 208 301 240 b 314 347 299 268 314 303 l 314 376 b 181 496 314 451 272 496 b 47 371 93 496 47 450 l 47 326 l 119 326 l 119 371 b 182 433 119 411 138 433 b 243 371 226 433 243 413 l 243 344 b 185 282 243 303 232 282 l 142 282 l 142 218 l 185 218 b 247 157 229 218 247 200 l 247 118 b 181 58 247 76 228 58 b 115 118 133 58 115 79 l 115 175 l 40 175 l 40 114 b 182 -8 40 33 86 -8 z "},"₄":{"ha":360,"x_min":0,"x_max":0,"o":"m 207 354 l 224 400 l 218 343 l 218 164 l 100 164 z m 339 106 l 339 164 l 281 164 l 281 489 l 217 489 l 28 158 l 28 106 l 218 106 l 218 0 l 281 0 l 281 106 z "},"₅":{"ha":368,"x_min":0,"x_max":0,"o":"m 186 -8 b 326 126 279 -8 326 40 l 326 215 b 217 336 326 294 286 336 b 119 285 167 336 138 315 b 136 421 124 321 131 379 l 240 421 b 307 485 292 421 307 438 l 307 489 l 78 489 l 54 233 l 115 218 l 121 231 b 193 278 136 258 157 278 b 257 210 233 278 257 261 l 257 128 b 188 58 257 82 235 58 b 122 119 143 58 122 78 l 122 164 l 47 164 l 47 117 b 186 -8 47 36 89 -8 z "},"₆":{"ha":378,"x_min":0,"x_max":0,"o":"m 332 131 l 332 183 b 217 299 332 261 290 299 b 118 244 169 299 136 279 l 118 342 b 188 433 118 408 142 433 b 251 361 233 433 251 410 l 251 340 l 325 340 l 325 361 b 188 496 325 450 278 496 b 49 342 96 496 49 442 l 49 149 b 193 -8 49 46 86 -8 b 332 131 285 -8 332 47 z m 193 57 b 118 143 142 57 118 82 l 118 188 b 193 244 126 221 150 244 b 263 179 239 244 263 224 l 263 132 b 193 57 263 85 242 57 z "},"₇":{"ha":315,"x_min":0,"x_max":0,"o":"m 150 0 b 288 431 172 154 225 310 l 288 489 l 28 489 l 28 419 l 215 419 b 71 0 161 315 97 158 z "},"₈":{"ha":375,"x_min":0,"x_max":0,"o":"m 186 -8 b 331 115 279 -8 331 35 l 331 153 b 260 253 331 208 301 240 b 324 346 299 264 324 294 l 324 376 b 189 496 324 453 274 496 b 54 376 103 496 54 451 l 54 346 b 115 253 54 294 78 264 b 44 153 74 240 44 206 l 44 115 b 186 -8 44 33 89 -8 z m 193 279 l 181 279 b 122 340 143 279 122 301 l 122 371 b 189 436 122 413 144 436 b 254 372 233 436 254 414 l 254 340 b 193 279 254 300 232 279 z m 186 56 b 115 121 138 56 115 78 l 115 158 b 181 224 115 197 138 224 l 193 224 b 260 158 238 224 260 201 l 260 121 b 186 56 260 78 235 56 z "},"₉":{"ha":372,"x_min":0,"x_max":0,"o":"m 182 250 b 113 317 136 250 113 272 l 113 357 b 183 433 113 404 135 433 b 258 344 235 433 258 406 l 258 328 b 182 250 257 283 233 250 z m 188 -8 b 328 146 283 -8 328 49 l 328 339 b 183 496 328 440 285 496 b 43 357 89 496 43 440 l 43 313 b 161 196 43 235 89 196 b 258 254 213 196 242 218 l 258 146 b 189 56 258 82 235 56 b 122 128 143 56 122 76 l 122 154 l 47 154 l 47 125 b 188 -8 47 32 94 -10 z "},"₊":{"ha":372,"x_min":0,"x_max":0,"o":"m 311 211 l 311 271 l 215 271 l 215 364 l 153 364 l 153 271 l 58 271 l 58 211 l 153 211 l 153 113 l 215 113 l 215 211 z "},"₋":{"ha":372,"x_min":0,"x_max":0,"o":"m 311 208 l 311 274 l 58 274 l 58 208 z "},"₌":{"ha":372,"x_min":0,"x_max":0,"o":"m 308 278 l 308 340 l 61 340 l 61 278 z m 308 142 l 308 204 l 61 204 l 61 142 z "},"₍":{"ha":264,"x_min":0,"x_max":0,"o":"m 60 110 b 243 -132 60 -56 126 -126 l 243 -58 b 131 114 172 -54 131 -7 l 131 349 b 243 528 131 471 169 522 l 243 597 b 60 351 128 590 60 511 z "},"₎":{"ha":264,"x_min":0,"x_max":0,"o":"m 22 -132 b 204 110 139 -126 204 -56 l 204 351 b 22 597 204 511 138 590 l 22 526 b 135 349 94 521 135 471 l 135 114 b 22 -60 135 -7 92 -54 z "},"⁄":{"ha":801,"x_min":0,"x_max":0,"o":"m 463 554 l 750 954 l 656 1015 l 431 575 z m 354 457 l 63 43 l 160 -24 l 386 436 z "},"⅟":{"ha":801,"x_min":0,"x_max":0,"o":"m 463 554 l 750 954 l 656 1015 l 431 575 z m 354 457 l 63 43 l 160 -24 l 386 436 z m 294 499 l 294 567 l 218 567 l 218 988 l 161 988 b 85 910 154 936 135 911 l 85 851 l 151 851 l 151 567 l 74 567 l 74 499 z "},"½":{"ha":801,"x_min":0,"x_max":0,"o":"m 463 554 l 750 954 l 656 1015 l 431 575 z m 354 457 l 63 43 l 160 -24 l 386 436 z m 294 499 l 294 567 l 218 567 l 218 988 l 161 988 b 85 910 154 936 135 911 l 85 851 l 151 851 l 151 567 l 74 567 l 74 499 z m 743 0 l 743 69 l 549 69 b 739 346 564 175 739 206 l 739 374 b 607 496 739 449 697 496 b 472 368 521 496 472 447 l 472 299 l 546 299 l 546 365 b 606 433 546 408 561 433 b 667 371 650 433 667 411 l 667 349 b 469 51 667 236 469 208 l 469 0 z "},"⅓":{"ha":801,"x_min":0,"x_max":0,"o":"m 463 554 l 750 954 l 656 1015 l 431 575 z m 354 457 l 63 43 l 160 -24 l 386 436 z m 294 499 l 294 567 l 218 567 l 218 988 l 161 988 b 85 910 154 936 135 911 l 85 851 l 151 851 l 151 567 l 74 567 l 74 499 z m 600 -8 b 739 113 690 -8 739 38 l 739 158 b 674 253 739 208 719 240 b 732 347 717 268 732 303 l 732 376 b 599 496 732 451 690 496 b 465 371 511 496 465 450 l 465 326 l 538 326 l 538 371 b 600 433 538 411 556 433 b 661 371 644 433 661 413 l 661 344 b 603 282 661 303 650 282 l 560 282 l 560 218 l 603 218 b 665 157 647 218 665 200 l 665 118 b 599 58 665 76 646 58 b 533 118 551 58 533 79 l 533 175 l 458 175 l 458 114 b 600 -8 458 33 504 -8 z "},"⅔":{"ha":801,"x_min":0,"x_max":0,"o":"m 463 554 l 750 954 l 656 1015 l 431 575 z m 354 457 l 63 43 l 160 -24 l 386 436 z m 324 499 l 324 568 l 129 568 b 319 844 144 674 319 704 l 319 872 b 188 994 319 947 278 994 b 53 867 101 994 53 946 l 53 797 l 126 797 l 126 864 b 186 932 126 907 142 932 b 247 869 231 932 247 910 l 247 847 b 50 550 247 735 50 707 l 50 499 z m 600 -8 b 739 113 690 -8 739 38 l 739 158 b 674 253 739 208 719 240 b 732 347 717 268 732 303 l 732 376 b 599 496 732 451 690 496 b 465 371 511 496 465 450 l 465 326 l 538 326 l 538 371 b 600 433 538 411 556 433 b 661 371 644 433 661 413 l 661 344 b 603 282 661 303 650 282 l 560 282 l 560 218 l 603 218 b 665 157 647 218 665 200 l 665 118 b 599 58 665 76 646 58 b 533 118 551 58 533 79 l 533 175 l 458 175 l 458 114 b 600 -8 458 33 504 -8 z "},"¼":{"ha":801,"x_min":0,"x_max":0,"o":"m 463 554 l 750 954 l 656 1015 l 431 575 z m 354 457 l 63 43 l 160 -24 l 386 436 z m 594 354 l 611 400 l 606 343 l 606 164 l 488 164 z m 726 106 l 726 164 l 668 164 l 668 489 l 604 489 l 415 158 l 415 106 l 606 106 l 606 0 l 668 0 l 668 106 z m 294 499 l 294 567 l 218 567 l 218 988 l 161 988 b 85 910 154 936 135 911 l 85 851 l 151 851 l 151 567 l 74 567 l 74 499 z "},"¾":{"ha":801,"x_min":0,"x_max":0,"o":"m 463 554 l 750 954 l 656 1015 l 431 575 z m 354 457 l 63 43 l 160 -24 l 386 436 z m 593 354 l 610 400 l 604 343 l 604 164 l 486 164 z m 725 106 l 725 164 l 667 164 l 667 489 l 603 489 l 414 158 l 414 106 l 604 106 l 604 0 l 667 0 l 667 106 z m 186 490 b 325 611 276 490 325 536 l 325 657 b 260 751 325 707 306 739 b 318 846 303 767 318 801 l 318 875 b 185 994 318 950 276 994 b 51 869 97 994 51 949 l 51 825 l 124 825 l 124 869 b 186 932 124 910 142 932 b 247 869 231 932 247 911 l 247 843 b 189 781 247 801 236 781 l 146 781 l 146 717 l 189 717 b 251 656 233 717 251 699 l 251 617 b 185 557 251 575 232 557 b 119 617 138 557 119 578 l 119 674 l 44 674 l 44 613 b 186 490 44 532 90 490 z "},"⅕":{"ha":801,"x_min":0,"x_max":0,"o":"m 463 554 l 750 954 l 656 1015 l 431 575 z m 354 457 l 63 43 l 160 -24 l 386 436 z m 603 -8 b 743 126 696 -8 743 40 l 743 215 b 633 336 743 294 703 336 b 536 285 583 336 554 315 b 553 421 540 321 547 379 l 657 421 b 724 485 708 421 724 438 l 724 489 l 494 489 l 471 233 l 532 218 l 538 231 b 610 278 553 258 574 278 b 674 210 650 278 674 261 l 674 128 b 604 58 674 82 651 58 b 539 119 560 58 539 78 l 539 164 l 464 164 l 464 117 b 603 -8 464 36 506 -8 z m 294 499 l 294 567 l 218 567 l 218 988 l 161 988 b 85 910 154 936 135 911 l 85 851 l 151 851 l 151 567 l 74 567 l 74 499 z "},"⅖":{"ha":801,"x_min":0,"x_max":0,"o":"m 463 554 l 750 954 l 656 1015 l 431 575 z m 354 457 l 63 43 l 160 -24 l 386 436 z m 603 -8 b 743 126 696 -8 743 40 l 743 215 b 633 336 743 294 703 336 b 536 285 583 336 554 315 b 553 421 540 321 547 379 l 657 421 b 724 485 708 421 724 438 l 724 489 l 494 489 l 471 233 l 532 218 l 538 231 b 610 278 553 258 574 278 b 674 210 650 278 674 261 l 674 128 b 604 58 674 82 651 58 b 539 119 560 58 539 78 l 539 164 l 464 164 l 464 117 b 603 -8 464 36 506 -8 z m 325 499 l 325 568 l 131 568 b 321 844 146 674 321 704 l 321 872 b 189 994 321 947 279 994 b 54 867 103 994 54 946 l 54 797 l 128 797 l 128 864 b 188 932 128 907 143 932 b 249 869 232 932 249 910 l 249 847 b 51 550 249 735 51 707 l 51 499 z "},"⅗":{"ha":801,"x_min":0,"x_max":0,"o":"m 463 554 l 750 954 l 656 1015 l 431 575 z m 354 457 l 63 43 l 160 -24 l 386 436 z m 603 -8 b 743 126 696 -8 743 40 l 743 215 b 633 336 743 294 703 336 b 536 285 583 336 554 315 b 553 421 540 321 547 379 l 657 421 b 724 485 708 421 724 438 l 724 489 l 494 489 l 471 233 l 532 218 l 538 231 b 610 278 553 258 574 278 b 674 210 650 278 674 261 l 674 128 b 604 58 674 82 651 58 b 539 119 560 58 539 78 l 539 164 l 464 164 l 464 117 b 603 -8 464 36 506 -8 z m 188 490 b 326 611 278 490 326 536 l 326 657 b 261 751 326 707 307 739 b 319 846 304 767 319 801 l 319 875 b 186 994 319 950 278 994 b 53 869 99 994 53 949 l 53 825 l 125 825 l 125 869 b 188 932 125 910 143 932 b 249 869 232 932 249 911 l 249 843 b 190 781 249 801 238 781 l 147 781 l 147 717 l 190 717 b 253 656 235 717 253 699 l 253 617 b 186 557 253 575 233 557 b 121 617 139 557 121 578 l 121 674 l 46 674 l 46 613 b 188 490 46 532 92 490 z "},"⅘":{"ha":801,"x_min":0,"x_max":0,"o":"m 463 554 l 750 954 l 656 1015 l 431 575 z m 354 457 l 63 43 l 160 -24 l 386 436 z m 603 -8 b 743 126 696 -8 743 40 l 743 215 b 633 336 743 294 703 336 b 536 285 583 336 554 315 b 553 421 540 321 547 379 l 657 421 b 724 485 708 421 724 438 l 724 489 l 494 489 l 471 233 l 532 218 l 538 231 b 610 278 553 258 574 278 b 674 210 650 278 674 261 l 674 128 b 604 58 674 82 651 58 b 539 119 560 58 539 78 l 539 164 l 464 164 l 464 117 b 603 -8 464 36 506 -8 z m 215 853 l 232 899 l 226 842 l 226 663 l 108 663 z m 347 604 l 347 663 l 289 663 l 289 988 l 225 988 l 36 657 l 36 604 l 226 604 l 226 499 l 289 499 l 289 604 z "},"⅙":{"ha":801,"x_min":0,"x_max":0,"o":"m 463 554 l 750 954 l 656 1015 l 431 575 z m 354 457 l 63 43 l 160 -24 l 386 436 z m 294 499 l 294 567 l 218 567 l 218 988 l 161 988 b 85 910 154 936 135 911 l 85 851 l 151 851 l 151 567 l 74 567 l 74 499 z m 742 131 l 742 183 b 626 299 742 261 700 299 b 528 244 579 299 546 279 l 528 342 b 597 433 528 408 551 433 b 661 361 643 433 661 410 l 661 340 l 735 340 l 735 361 b 597 496 735 450 688 496 b 458 342 506 496 458 442 l 458 149 b 603 -8 458 46 496 -8 b 742 131 694 -8 742 47 z m 603 57 b 528 143 551 57 528 82 l 528 188 b 603 244 536 221 560 244 b 672 179 649 244 672 224 l 672 132 b 603 57 672 85 651 57 z "},"⅚":{"ha":801,"x_min":0,"x_max":0,"o":"m 463 554 l 750 954 l 656 1015 l 431 575 z m 354 457 l 63 43 l 160 -24 l 386 436 z m 189 490 b 329 625 282 490 329 539 l 329 714 b 219 835 329 793 289 835 b 122 783 169 835 140 814 b 139 919 126 819 133 878 l 243 919 b 310 983 294 919 310 936 l 310 988 l 81 988 l 57 732 l 118 717 l 124 729 b 196 776 139 757 160 776 b 260 708 236 776 260 760 l 260 626 b 190 557 260 581 238 557 b 125 618 146 557 125 576 l 125 663 l 50 663 l 50 615 b 189 490 50 535 92 490 z m 742 131 l 742 183 b 626 299 742 261 700 299 b 528 244 579 299 546 279 l 528 342 b 597 433 528 408 551 433 b 661 361 643 433 661 410 l 661 340 l 735 340 l 735 361 b 597 496 735 450 688 496 b 458 342 506 496 458 442 l 458 149 b 603 -8 458 46 496 -8 b 742 131 694 -8 742 47 z m 603 57 b 528 143 551 57 528 82 l 528 188 b 603 244 536 221 560 244 b 672 179 649 244 672 224 l 672 132 b 603 57 672 85 651 57 z "},"⅛":{"ha":801,"x_min":0,"x_max":0,"o":"m 463 554 l 750 954 l 656 1015 l 431 575 z m 354 457 l 63 43 l 160 -24 l 386 436 z m 296 499 l 296 567 l 219 567 l 219 988 l 163 988 b 86 910 156 936 136 911 l 86 851 l 153 851 l 153 567 l 75 567 l 75 499 z m 599 -8 b 743 115 692 -8 743 35 l 743 153 b 672 253 743 208 714 240 b 736 346 711 264 736 294 l 736 376 b 601 496 736 453 686 496 b 467 376 515 496 467 451 l 467 346 b 528 253 467 294 490 264 b 457 153 486 240 457 206 l 457 115 b 599 -8 457 33 501 -8 z m 606 279 l 593 279 b 535 340 556 279 535 301 l 535 371 b 601 436 535 413 557 436 b 667 372 646 436 667 414 l 667 340 b 606 279 667 300 644 279 z m 599 56 b 528 121 550 56 528 78 l 528 158 b 593 224 528 197 550 224 l 606 224 b 672 158 650 224 672 201 l 672 121 b 599 56 672 78 647 56 z "},"⅜":{"ha":801,"x_min":0,"x_max":0,"o":"m 463 554 l 750 954 l 656 1015 l 431 575 z m 354 457 l 63 43 l 160 -24 l 386 436 z m 599 -8 b 743 115 692 -8 743 35 l 743 153 b 672 253 743 208 714 240 b 736 346 711 264 736 294 l 736 376 b 601 496 736 453 686 496 b 467 376 515 496 467 451 l 467 346 b 528 253 467 294 490 264 b 457 153 486 240 457 206 l 457 115 b 599 -8 457 33 501 -8 z m 606 279 l 593 279 b 535 340 556 279 535 301 l 535 371 b 601 436 535 413 557 436 b 667 372 646 436 667 414 l 667 340 b 606 279 667 300 644 279 z m 599 56 b 528 121 550 56 528 78 l 528 158 b 593 224 528 197 550 224 l 606 224 b 672 158 650 224 672 201 l 672 121 b 599 56 672 78 647 56 z m 186 490 b 325 611 276 490 325 536 l 325 657 b 260 751 325 707 306 739 b 318 846 303 767 318 801 l 318 875 b 185 994 318 950 276 994 b 51 869 97 994 51 949 l 51 825 l 124 825 l 124 869 b 186 932 124 910 142 932 b 247 869 231 932 247 911 l 247 843 b 189 781 247 801 236 781 l 146 781 l 146 717 l 189 717 b 251 656 233 717 251 699 l 251 617 b 185 557 251 575 232 557 b 119 617 138 557 119 578 l 119 674 l 44 674 l 44 613 b 186 490 44 532 90 490 z "},"⅝":{"ha":801,"x_min":0,"x_max":0,"o":"m 463 554 l 750 954 l 656 1015 l 431 575 z m 354 457 l 63 43 l 160 -24 l 386 436 z m 599 -8 b 743 115 692 -8 743 35 l 743 153 b 672 253 743 208 714 240 b 736 346 711 264 736 294 l 736 376 b 601 496 736 453 686 496 b 467 376 515 496 467 451 l 467 346 b 528 253 467 294 490 264 b 457 153 486 240 457 206 l 457 115 b 599 -8 457 33 501 -8 z m 606 279 l 593 279 b 535 340 556 279 535 301 l 535 371 b 601 436 535 413 557 436 b 667 372 646 436 667 414 l 667 340 b 606 279 667 300 644 279 z m 599 56 b 528 121 550 56 528 78 l 528 158 b 593 224 528 197 550 224 l 606 224 b 672 158 650 224 672 201 l 672 121 b 599 56 672 78 647 56 z m 189 490 b 329 625 282 490 329 539 l 329 714 b 219 835 329 793 289 835 b 122 783 169 835 140 814 b 139 919 126 819 133 878 l 243 919 b 310 983 294 919 310 936 l 310 988 l 81 988 l 57 732 l 118 717 l 124 729 b 196 776 139 757 160 776 b 260 708 236 776 260 760 l 260 626 b 190 557 260 581 238 557 b 125 618 146 557 125 576 l 125 663 l 50 663 l 50 615 b 189 490 50 535 92 490 z "},"⅞":{"ha":801,"x_min":0,"x_max":0,"o":"m 463 554 l 750 954 l 656 1015 l 431 575 z m 354 457 l 63 43 l 160 -24 l 386 436 z m 599 -8 b 743 115 692 -8 743 35 l 743 153 b 672 253 743 208 714 240 b 736 346 711 264 736 294 l 736 376 b 601 496 736 453 686 496 b 467 376 515 496 467 451 l 467 346 b 528 253 467 294 490 264 b 457 153 486 240 457 206 l 457 115 b 599 -8 457 33 501 -8 z m 606 279 l 593 279 b 535 340 556 279 535 301 l 535 371 b 601 436 535 413 557 436 b 667 372 646 436 667 414 l 667 340 b 606 279 667 300 644 279 z m 599 56 b 528 121 550 56 528 78 l 528 158 b 593 224 528 197 550 224 l 606 224 b 672 158 650 224 672 201 l 672 121 b 599 56 672 78 647 56 z m 231 499 b 368 929 253 653 306 808 l 368 988 l 108 988 l 108 918 l 296 918 b 151 499 242 814 178 657 z "},"%":{"ha":828,"x_min":0,"x_max":0,"o":"m 211 575 b 365 732 308 575 365 636 l 365 842 b 213 997 365 940 307 997 b 60 842 122 997 60 942 l 60 732 b 211 575 60 632 114 575 z m 81 0 l 185 0 l 746 988 l 644 988 z m 211 644 b 133 736 160 644 133 676 l 133 840 b 213 931 133 899 164 931 b 290 840 261 931 290 899 l 290 736 b 211 644 290 679 264 644 z m 614 -14 b 767 143 710 -14 767 47 l 767 253 b 614 413 767 351 707 413 b 461 253 522 413 461 353 l 461 143 b 614 -14 461 43 515 -14 z m 614 57 b 536 147 563 57 536 89 l 536 251 b 614 342 536 310 564 342 b 693 251 664 342 693 310 l 693 147 b 614 57 693 92 667 57 z "},"‰":{"ha":1218,"x_min":0,"x_max":0,"o":"m 211 575 b 365 732 308 575 365 636 l 365 842 b 213 997 365 940 307 997 b 60 842 122 997 60 942 l 60 732 b 211 575 60 632 114 575 z m 81 0 l 185 0 l 746 988 l 644 988 z m 211 644 b 133 736 160 644 133 676 l 133 840 b 213 931 133 899 164 931 b 290 840 261 931 290 899 l 290 736 b 211 644 290 679 264 644 z m 1004 -14 b 1157 143 1100 -14 1157 47 l 1157 253 b 1004 413 1157 351 1097 413 b 851 253 913 413 851 353 l 851 143 b 1004 -14 851 43 906 -14 z m 614 -14 b 767 143 710 -14 767 47 l 767 253 b 614 413 767 351 707 413 b 461 253 522 413 461 353 l 461 143 b 614 -14 461 43 515 -14 z m 1004 57 b 926 147 953 57 926 89 l 926 251 b 1004 342 926 310 954 342 b 1083 251 1054 342 1083 310 l 1083 147 b 1004 57 1083 92 1057 57 z m 614 57 b 536 147 563 57 536 89 l 536 251 b 614 342 536 310 564 342 b 693 251 664 342 693 310 l 693 147 b 614 57 693 92 667 57 z "},"№":{"ha":1183,"x_min":0,"x_max":0,"o":"m 938 426 b 1124 615 1051 426 1124 496 l 1124 810 b 938 1001 1124 932 1049 1001 b 753 810 829 1001 753 933 l 753 615 b 938 426 753 494 817 426 z m 938 508 b 843 618 874 508 843 550 l 843 807 b 938 922 843 883 878 922 b 1035 808 1000 922 1035 879 l 1035 618 b 938 508 1035 550 1003 508 z m 186 688 l 171 868 l 207 746 l 551 0 l 636 0 l 636 988 l 544 988 l 544 306 l 560 146 l 521 257 l 182 988 l 96 988 l 96 0 l 186 0 z m 1113 324 l 764 324 l 764 238 l 1113 238 z "},"¤":{"ha":708,"x_min":0,"x_max":0,"o":"m 357 335 b 218 479 272 335 218 399 l 218 529 b 357 674 218 613 274 674 b 496 529 440 674 496 611 l 496 479 b 357 335 496 397 439 335 z m 357 251 b 486 288 407 251 450 264 l 586 179 l 650 243 l 549 353 b 582 479 569 388 582 431 l 582 531 b 544 664 582 582 568 626 l 646 776 l 579 836 l 479 726 b 357 758 446 747 404 758 b 231 724 308 758 265 746 l 128 835 l 65 771 l 168 661 b 131 529 144 625 131 579 l 131 478 b 164 350 131 429 142 386 l 57 233 l 126 172 l 228 285 b 357 251 264 264 307 251 z "},"←":{"ha":1054,"x_min":0,"x_max":0,"o":"m 953 451 l 953 544 l 232 544 b 419 782 301 596 381 688 l 313 782 b 82 519 278 688 174 575 l 82 474 b 317 211 174 421 281 306 l 425 211 b 229 451 385 307 301 400 z "},"→":{"ha":1054,"x_min":0,"x_max":0,"o":"m 736 211 b 971 474 771 306 878 421 l 971 519 b 739 782 879 574 775 688 l 633 782 b 821 544 671 688 751 596 l 100 544 l 100 451 l 824 451 b 628 211 753 400 667 308 z "},"↑":{"ha":1054,"x_min":0,"x_max":0,"o":"m 807 586 l 807 693 b 544 925 713 729 599 832 l 499 925 b 235 693 444 832 331 728 l 235 586 b 476 776 331 626 424 706 l 476 69 l 568 69 l 568 776 b 807 586 619 706 710 625 z "},"↓":{"ha":1054,"x_min":0,"x_max":0,"o":"m 544 65 b 808 296 597 157 713 261 l 808 403 b 567 213 711 364 618 283 l 567 919 l 474 919 l 474 214 b 236 404 422 285 333 365 l 236 296 b 499 65 331 261 443 157 z "},"↖":{"ha":1054,"x_min":0,"x_max":0,"o":"m 861 226 l 350 736 b 653 771 435 722 558 729 l 578 846 b 228 825 486 806 332 797 l 196 792 b 174 443 224 689 215 535 l 249 367 b 285 671 289 461 297 585 l 796 160 z "},"↗":{"ha":1054,"x_min":0,"x_max":0,"o":"m 786 368 l 863 443 b 840 792 819 535 814 689 l 808 824 b 458 847 706 797 550 804 l 382 772 b 688 736 478 732 601 724 l 176 224 l 242 160 l 753 671 b 786 368 739 585 744 463 z "},"↘":{"ha":1054,"x_min":0,"x_max":0,"o":"m 808 179 l 842 211 b 863 561 814 314 821 469 l 788 638 b 753 332 747 542 739 418 l 240 843 l 175 778 l 688 267 b 383 233 601 281 479 275 l 460 157 b 808 179 551 200 706 206 z "},"↙":{"ha":1054,"x_min":0,"x_max":0,"o":"m 578 156 l 653 231 b 349 267 558 271 436 279 l 860 778 l 794 843 l 283 332 b 250 636 297 418 292 540 l 174 560 b 196 211 215 468 224 314 l 228 178 b 578 156 332 206 485 197 z "},"○":{"ha":1251,"x_min":0,"x_max":0,"o":"m 625 -14 b 1126 488 918 -14 1126 197 b 625 990 1126 779 917 990 b 125 488 335 990 125 778 b 625 -14 125 194 333 -14 z m 625 118 b 258 488 415 118 258 278 b 625 861 258 701 418 861 b 993 488 838 861 993 697 b 625 118 993 278 836 118 z "},"●":{"ha":1251,"x_min":0,"x_max":0,"o":"m 625 -14 b 1126 488 918 -14 1126 197 b 625 990 1126 779 917 990 b 125 488 335 990 125 778 b 625 -14 125 194 333 -14 z "},"■":{"ha":1256,"x_min":0,"x_max":0,"o":"m 138 0 l 1118 0 l 1118 988 l 138 988 z "},"□":{"ha":1256,"x_min":0,"x_max":0,"o":"m 138 0 l 1118 0 l 1118 988 l 138 988 z m 271 861 l 983 861 l 983 125 l 271 125 z "},"⊠":{"ha":1256,"x_min":0,"x_max":0,"o":"m 138 0 l 1118 0 l 1118 988 l 138 988 z m 271 861 l 983 861 l 983 125 l 271 125 z m 818 222 l 897 301 l 706 497 l 896 694 l 817 772 l 628 578 l 439 771 l 360 694 l 551 497 l 358 299 l 438 221 l 628 418 z "},"▪":{"ha":1060,"x_min":0,"x_max":0,"o":"m 139 0 l 921 0 l 921 781 l 139 781 z "},"▫":{"ha":1060,"x_min":0,"x_max":0,"o":"m 139 0 l 921 0 l 921 781 l 139 781 z m 272 657 l 789 657 l 789 125 l 272 125 z "},"▲":{"ha":1219,"x_min":0,"x_max":0,"o":"m 1190 0 l 611 1007 l 29 0 z "},"▼":{"ha":1219,"x_min":0,"x_max":0,"o":"m 29 990 l 611 -17 l 1190 990 z "},"◄":{"ha":1219,"x_min":0,"x_max":0,"o":"m 1082 1085 l 76 504 l 1082 -76 z "},"►":{"ha":1219,"x_min":0,"x_max":0,"o":"m 138 -76 l 1144 504 l 138 1085 z "},"◤":{"ha":1219,"x_min":0,"x_max":0,"o":"m 1164 -72 l 864 1049 l 42 226 z "},"◥":{"ha":1219,"x_min":0,"x_max":0,"o":"m 1183 221 l 364 1043 l 63 -78 z "},"◢":{"ha":1219,"x_min":0,"x_max":0,"o":"m 1185 722 l 64 1024 l 364 -99 z "},"◣":{"ha":1219,"x_min":0,"x_max":0,"o":"m 860 -99 l 1160 1024 l 38 722 z "},"◎":{"ha":1239,"x_min":0,"x_max":0,"o":"m 617 -14 b 1115 482 910 -14 1115 197 b 617 982 1115 774 906 982 b 124 482 329 982 124 769 b 617 -14 124 193 329 -14 z m 617 163 b 301 482 440 163 301 301 b 617 808 301 668 440 808 b 938 482 803 808 938 664 b 617 163 938 301 803 163 z m 618 253 b 853 481 753 253 853 351 b 618 714 853 614 751 714 b 389 481 489 714 389 614 b 618 253 389 349 485 253 z m 618 404 b 547 481 578 404 547 439 b 618 561 547 528 578 561 b 693 481 663 561 693 528 b 618 404 693 439 663 404 z "},"★":{"ha":1238,"x_min":0,"x_max":0,"o":"m 772 415 l 1029 600 l 714 601 l 617 899 l 517 601 l 204 603 l 460 417 l 360 117 l 615 301 l 872 117 z "},"☼":{"ha":1276,"x_min":0,"x_max":0,"o":"m 621 778 l 647 778 l 671 974 l 597 974 z m 768 747 l 789 733 l 907 890 l 844 929 z m 481 733 l 499 747 l 425 929 l 360 890 z m 879 644 l 893 622 l 1074 700 l 1033 763 z m 376 622 l 390 643 l 232 763 l 194 699 z m 396 488 b 633 249 396 357 503 249 b 874 488 764 249 874 357 b 633 726 874 618 764 726 b 396 488 503 726 396 618 z m 922 503 l 922 476 l 1118 453 l 1118 526 z m 344 476 l 344 503 l 150 526 l 150 453 z m 390 333 l 376 354 l 194 278 l 235 214 z m 893 354 l 879 335 l 1036 214 l 1074 279 z m 499 231 l 481 244 l 360 88 l 425 50 z m 789 244 l 768 231 l 844 50 l 907 88 z m 647 201 l 621 201 l 597 6 l 671 6 z "},"☾":{"ha":1083,"x_min":0,"x_max":0,"o":"m 735 829 b 832 813 767 829 800 821 b 588 890 761 863 676 890 b 182 485 364 890 182 708 b 588 79 182 261 364 79 b 832 158 676 79 761 108 b 735 142 800 149 767 142 b 407 485 553 142 407 296 b 735 829 407 674 553 829 z "},"♻":{"ha":1142,"x_min":0,"x_max":0,"o":"m 482 932 b 588 867 482 932 551 928 l 671 721 l 625 693 l 824 656 l 896 851 l 846 822 l 813 879 b 707 933 783 931 750 932 l 482 933 z m 244 722 l 419 622 l 553 856 b 363 896 529 900 432 938 b 324 861 344 888 329 871 z m 947 639 l 775 542 l 908 308 b 1040 454 957 308 1040 372 b 1029 504 1040 475 1035 494 z m 229 172 b 233 296 229 172 200 236 b 318 442 236 301 318 442 l 365 413 l 297 607 l 93 571 l 143 542 l 110 483 b 115 365 79 433 94 403 l 226 172 z m 1015 338 b 903 276 1015 338 972 276 l 736 276 l 736 335 l 606 178 l 736 19 l 736 76 l 803 76 b 903 142 864 76 882 106 l 1017 336 z m 531 76 l 531 276 l 263 276 b 324 92 236 233 253 133 b 375 76 342 81 361 76 z "},"♼":{"ha":1142,"x_min":0,"x_max":0,"o":"m 1035 485 b 572 951 1035 743 828 951 b 106 485 315 951 106 743 b 572 24 106 228 315 24 b 1035 485 828 24 1035 228 z m 493 839 l 668 839 b 751 796 703 839 728 836 l 776 753 l 815 774 l 760 622 l 606 651 l 642 674 l 576 786 b 493 838 550 832 493 838 z m 378 781 b 407 810 381 790 393 801 b 554 778 461 842 536 813 l 453 599 l 317 675 z m 921 507 b 932 468 926 497 932 483 b 832 351 932 404 871 351 l 726 533 l 863 613 z m 303 247 l 215 397 b 211 490 201 428 188 450 l 238 535 l 200 558 l 356 585 l 410 435 l 372 458 l 307 346 b 304 247 281 299 304 247 z m 913 374 l 826 224 b 749 176 810 199 796 176 l 697 176 l 697 131 l 594 251 l 697 372 l 697 331 l 826 331 b 911 375 882 331 911 375 z m 413 176 b 372 188 403 176 386 179 b 325 331 318 217 304 296 l 533 331 l 533 176 z "},"♽":{"ha":1142,"x_min":0,"x_max":0,"o":"m 1035 485 b 572 951 1035 743 828 951 b 106 485 315 951 106 743 b 572 24 106 228 315 24 b 1035 485 828 24 1035 228 z m 1011 485 b 572 46 1011 240 815 46 b 129 485 328 46 129 240 b 572 928 129 731 328 928 b 1011 485 815 928 1011 731 z m 493 838 b 576 786 493 838 550 832 l 642 674 l 606 651 l 760 622 l 815 774 l 776 753 l 751 796 b 668 839 728 836 703 839 l 493 839 z m 317 675 l 453 599 l 554 778 b 407 810 536 813 461 842 b 378 781 393 801 381 790 z m 863 613 l 726 533 l 832 351 b 932 468 871 351 932 404 b 921 507 932 483 926 497 z m 304 247 b 307 346 304 247 281 299 l 372 458 l 410 435 l 356 585 l 200 558 l 238 535 l 211 490 b 215 397 188 450 201 428 l 303 247 z m 911 375 b 826 331 911 375 882 331 l 697 331 l 697 372 l 594 251 l 697 131 l 697 176 l 749 176 b 826 224 796 176 810 199 l 913 374 z m 533 176 l 533 331 l 325 331 b 372 188 304 296 318 217 b 413 176 386 179 403 176 z "},"⌂":{"ha":1172,"x_min":0,"x_max":0,"o":"m 1033 0 l 1033 557 l 586 986 l 139 557 l 139 0 z "},"♠":{"ha":1240,"x_min":0,"x_max":0,"o":"m 664 389 b 907 207 700 296 776 207 b 1119 419 1025 207 1119 303 b 814 853 1119 574 1036 675 l 625 1003 l 438 853 b 119 419 214 675 119 574 b 350 207 119 303 225 207 b 578 389 474 207 544 296 b 451 0 578 226 488 68 l 799 0 b 664 389 764 68 664 226 z "},"♣":{"ha":1240,"x_min":0,"x_max":0,"o":"m 890 176 b 1126 415 1021 176 1126 283 b 892 651 1126 547 1022 651 b 828 640 869 651 847 647 b 854 761 844 676 854 719 b 618 996 854 890 749 996 b 381 761 486 996 381 890 b 408 643 381 719 392 679 b 351 651 392 647 372 651 b 113 415 219 651 113 547 b 351 176 113 283 219 176 b 576 338 456 176 539 243 b 453 0 560 194 485 60 l 800 0 b 669 336 769 60 688 193 b 890 176 706 243 786 176 z "},"♥":{"ha":1240,"x_min":0,"x_max":0,"o":"m 617 -24 l 806 189 b 1118 742 1031 436 1118 586 b 864 996 1118 881 1001 996 b 617 779 726 996 632 903 b 368 996 601 903 503 996 b 121 742 229 996 121 881 b 428 189 121 586 204 436 z "},"♦":{"ha":1240,"x_min":0,"x_max":0,"o":"m 181 499 l 621 -14 l 1058 499 l 621 1007 z "},"+":{"ha":617,"x_min":0,"x_max":0,"o":"m 528 444 l 528 532 l 351 532 l 351 704 l 264 704 l 264 532 l 90 532 l 90 444 l 264 444 l 264 272 l 351 272 l 351 444 z "},"−":{"ha":617,"x_min":0,"x_max":0,"o":"m 539 444 l 539 533 l 78 533 l 78 444 z "},"±":{"ha":617,"x_min":0,"x_max":0,"o":"m 514 567 l 514 654 l 350 654 l 350 813 l 264 813 l 264 654 l 104 654 l 104 567 l 264 567 l 264 410 l 350 410 l 350 567 z m 515 239 l 515 328 l 104 328 l 104 239 z "},"×":{"ha":613,"x_min":0,"x_max":0,"o":"m 457 282 l 517 342 l 361 501 l 510 653 l 451 714 l 303 563 l 160 710 l 100 650 l 243 501 l 86 342 l 144 282 l 301 442 z "},"÷":{"ha":617,"x_min":0,"x_max":0,"o":"m 307 618 b 364 678 344 618 364 633 b 307 739 364 722 347 739 b 249 678 268 739 249 722 b 307 618 249 633 267 618 z m 533 443 l 533 532 l 83 532 l 83 443 z m 307 239 b 364 297 344 239 364 253 b 307 357 364 343 346 357 b 249 297 267 357 249 343 b 307 239 249 251 265 239 z "},"=":{"ha":628,"x_min":0,"x_max":0,"o":"m 529 582 l 529 669 l 97 669 l 97 582 z m 529 321 l 529 410 l 97 410 l 97 321 z "},"≠":{"ha":628,"x_min":0,"x_max":0,"o":"m 529 324 l 529 410 l 317 410 l 364 583 l 529 583 l 529 669 l 388 669 l 418 782 l 357 782 l 326 669 l 97 669 l 97 583 l 303 583 l 256 410 l 97 410 l 97 324 l 232 324 l 197 197 l 258 197 l 293 324 z "},"≈":{"ha":628,"x_min":0,"x_max":0,"o":"m 200 683 b 101 638 157 683 115 661 l 101 542 b 199 596 121 575 163 596 b 431 542 263 596 343 542 b 525 586 471 542 511 563 l 525 683 b 431 629 506 649 469 629 b 200 683 365 629 276 683 z m 101 396 l 101 300 b 197 353 119 329 160 353 b 431 299 263 353 346 299 b 525 343 475 299 511 321 l 525 440 b 431 386 501 404 469 386 b 197 442 367 386 276 442 b 101 396 157 442 115 419 z "},"<":{"ha":628,"x_min":0,"x_max":0,"o":"m 518 279 l 518 382 l 203 508 l 518 635 l 518 733 l 97 550 l 97 465 z "},">":{"ha":628,"x_min":0,"x_max":0,"o":"m 110 279 l 532 465 l 532 550 l 110 733 l 110 635 l 425 508 l 110 382 z "},"≤":{"ha":628,"x_min":0,"x_max":0,"o":"m 521 378 l 521 478 l 211 592 l 521 704 l 521 800 l 99 631 l 99 550 z m 522 207 l 522 294 l 100 294 l 100 207 z "},"≥":{"ha":628,"x_min":0,"x_max":0,"o":"m 107 378 l 529 550 l 529 631 l 107 800 l 107 704 l 417 592 l 107 478 z m 528 207 l 528 294 l 107 294 l 107 207 z "},"¬":{"ha":693,"x_min":0,"x_max":0,"o":"m 604 288 l 604 633 l 61 633 l 61 543 l 511 543 l 511 288 z "},"≡":{"ha":628,"x_min":0,"x_max":0,"o":"m 529 657 l 529 743 l 97 743 l 97 657 z m 529 453 l 529 540 l 97 540 l 97 453 z m 529 251 l 529 338 l 97 338 l 97 251 z "},"′":{"ha":231,"x_min":0,"x_max":0,"o":"m 108 711 l 193 988 l 96 988 l 40 711 z "},"″":{"ha":388,"x_min":0,"x_max":0,"o":"m 260 711 l 353 988 l 256 988 l 193 711 z m 108 711 l 192 988 l 94 988 l 40 711 z "},"℅":{"ha":828,"x_min":0,"x_max":0,"o":"m 81 0 l 185 0 l 746 988 l 644 988 z m 213 575 b 364 729 310 575 364 635 l 364 744 l 286 744 l 286 733 b 213 644 286 679 265 644 b 133 736 161 644 133 676 l 133 840 b 213 931 133 899 164 931 b 285 844 263 931 285 900 l 285 836 l 363 836 l 363 847 b 213 997 363 943 307 997 b 60 842 122 997 60 942 l 60 732 b 213 575 60 632 114 575 z m 614 -14 b 767 143 710 -14 767 47 l 767 253 b 614 413 767 351 707 413 b 461 253 522 413 461 353 l 461 143 b 614 -14 461 43 515 -14 z m 614 57 b 536 147 563 57 536 89 l 536 251 b 614 342 536 310 564 342 b 693 251 664 342 693 310 l 693 147 b 614 57 693 92 667 57 z "},"‗":{"ha":604,"x_min":0,"x_max":0,"o":"m 556 76 l 50 76 l 50 0 l 556 0 z m 556 -82 l 50 -82 l 50 -158 l 556 -158 z "},"‼":{"ha":619,"x_min":0,"x_max":0,"o":"m 390 989 l 390 779 b 408 222 390 568 404 251 b 443 226 415 224 428 226 b 479 222 458 226 471 224 b 496 779 483 251 496 568 l 496 989 z m 124 989 l 124 779 b 140 222 124 568 136 251 b 176 226 147 224 161 226 b 211 222 192 226 204 224 b 229 779 215 251 229 568 l 229 989 z m 443 -11 b 514 72 490 -11 514 11 b 443 153 514 132 492 153 b 372 72 393 153 372 132 b 443 -11 372 10 392 -11 z m 175 -11 b 247 72 224 -11 247 11 b 175 153 247 132 225 153 b 104 72 126 153 104 132 b 175 -11 104 10 124 -11 z "},"∞":{"ha":988,"x_min":0,"x_max":0,"o":"m 263 315 b 494 439 360 315 431 382 b 726 315 558 383 628 315 b 911 499 836 315 911 390 b 728 682 911 608 838 682 b 494 554 629 682 556 613 b 263 682 431 613 360 682 b 75 497 154 682 75 604 b 263 315 75 383 149 315 z m 725 400 b 553 496 658 400 604 450 b 725 596 604 544 660 596 b 824 497 783 596 824 553 b 725 400 824 443 782 400 z m 264 400 b 167 497 207 400 167 443 b 264 596 167 553 208 596 b 438 497 328 596 386 546 b 264 400 386 451 329 400 z "},"∂":{"ha":656,"x_min":0,"x_max":0,"o":"m 325 -12 b 579 263 486 -12 579 82 l 579 535 b 282 1058 579 763 474 929 l 138 1058 b 478 674 346 926 447 818 b 300 792 450 747 392 792 b 68 526 158 792 68 700 l 68 257 b 325 -12 68 81 157 -12 z m 325 76 b 168 258 219 76 168 144 l 168 525 b 328 707 168 643 226 707 b 482 526 432 707 482 636 l 482 264 b 325 76 482 143 431 76 z "},"π":{"ha":772,"x_min":0,"x_max":0,"o":"m 489 196 b 679 0 489 43 531 0 l 724 0 l 724 90 l 689 90 b 588 206 608 90 588 111 l 588 897 l 735 897 l 735 988 l 38 988 l 38 897 l 178 897 l 178 0 l 275 0 l 275 897 l 489 897 z "},"μ":{"ha":647,"x_min":0,"x_max":0,"o":"m 317 -12 b 469 131 404 -12 451 40 l 481 0 l 560 0 l 560 794 l 461 794 l 461 282 b 315 76 461 154 410 76 b 186 250 222 76 186 140 l 186 794 l 88 794 l 88 -268 l 182 -268 l 182 94 b 317 -12 199 24 236 -12 z "},"∫":{"ha":397,"x_min":0,"x_max":0,"o":"m -4 -208 l 54 -208 b 240 -1 203 -208 240 -164 l 240 854 b 344 993 240 971 260 993 l 382 993 l 382 1079 l 332 1079 b 144 864 196 1079 144 1028 l 144 10 b 44 -117 144 -97 126 -117 l -4 -117 z "},"√":{"ha":785,"x_min":0,"x_max":0,"o":"m 394 0 l 749 988 l 644 988 l 350 153 l 207 665 l 44 665 l 44 572 l 136 572 l 300 0 z "},"∆":{"ha":807,"x_min":0,"x_max":0,"o":"m 792 0 l 404 1006 l 15 0 z m 654 90 l 156 90 l 404 758 z "},"Ω":{"ha":858,"x_min":0,"x_max":0,"o":"m 369 78 b 194 564 276 219 194 360 b 424 908 194 814 290 908 b 657 564 558 908 657 818 b 486 78 657 358 579 221 l 532 0 l 822 0 l 822 93 l 606 93 b 758 563 688 211 758 363 b 424 1000 758 868 628 1000 b 93 563 222 1000 93 863 b 249 93 93 357 167 208 l 33 93 l 33 0 l 329 0 z "},"∏":{"ha":772,"x_min":0,"x_max":0,"o":"m 494 0 l 593 0 l 593 897 l 735 897 l 735 988 l 38 988 l 38 897 l 178 897 l 178 0 l 275 0 l 275 897 l 494 897 z "},"∑":{"ha":542,"x_min":0,"x_max":0,"o":"m 494 90 l 146 90 l 385 510 l 156 899 l 479 899 l 479 988 l 51 988 l 51 892 l 278 511 l 43 100 l 43 0 l 494 0 z "},"◊":{"ha":814,"x_min":0,"x_max":0,"o":"m 407 124 l 775 490 l 404 860 l 38 493 z m 165 493 l 403 732 l 646 490 l 407 251 z "},"°":{"ha":436,"x_min":0,"x_max":0,"o":"m 218 675 b 382 831 318 675 382 738 l 382 838 b 218 999 382 938 315 999 b 54 838 128 999 54 942 l 54 831 b 218 675 54 735 118 675 z m 218 746 b 132 835 164 746 132 781 l 132 838 b 218 928 132 897 171 928 b 306 838 268 928 306 894 l 306 835 b 218 746 306 782 274 746 z "}}}
